<svg width="88" height="34" viewBox="0 0 88 34" fill="none" xmlns="http://www.w3.org/2000/svg">
<path fill-rule="evenodd" clip-rule="evenodd" d="M4.30867 33.5957C1.94585 33.5915 0.0042118 31.6499 0 29.2871V5.08602C0.0042118 2.7232 1.94585 0.781556 4.30867 0.777344H83.0735C85.4363 0.781556 87.3779 2.7232 87.3821 5.08602V29.2829C87.3779 31.6457 85.4363 33.5873 83.0735 33.5915H4.30867V33.5957Z" fill="#015A75"/>
<path fill-rule="evenodd" clip-rule="evenodd" d="M4.30922 1.45117C2.31704 1.45538 0.674438 3.09378 0.674438 5.08596V29.2828C0.67865 31.275 2.31704 32.9176 4.30922 32.9176H29.6221V1.45117H4.30922ZM63.9019 23.3526L64.441 22.5944C64.8285 22.9988 65.3676 23.2262 65.9278 23.2262C66.4753 23.2262 66.7407 22.9735 66.7407 22.7082C66.7407 22.367 66.3069 22.2659 65.793 22.1396C65.0265 21.9669 64.0493 21.7563 64.0493 20.6907C64.0493 19.9115 64.7232 19.2671 65.8225 19.2671C66.568 19.2671 67.1829 19.4903 67.6462 19.9199L67.0903 20.6486C66.7154 20.3159 66.2311 20.1348 65.7299 20.139C65.3045 20.139 65.0644 20.3285 65.0644 20.6065C65.0644 20.9097 65.494 21.0066 65.9952 21.1245C66.7617 21.3056 67.7473 21.5373 67.7473 22.5987C67.7473 23.4537 67.1366 24.0981 65.8773 24.0981C64.9801 24.0896 64.3315 23.7948 63.9019 23.3526ZM59.6396 23.3526L60.1787 22.5944C60.5662 22.9988 61.1053 23.2262 61.6655 23.2262C62.213 23.2262 62.4783 22.9735 62.4783 22.7082C62.4783 22.367 62.0445 22.2659 61.5349 22.1396C60.7684 21.9669 59.7912 21.7563 59.7912 20.6907C59.7912 19.9115 60.4651 19.2671 61.5644 19.2671C62.3057 19.2671 62.9248 19.4903 63.3881 19.9199L62.8363 20.6486C62.4615 20.3159 61.9771 20.1348 61.4759 20.139C61.0505 20.139 60.8105 20.3285 60.8105 20.6065C60.8105 20.9097 61.2401 21.0066 61.7413 21.1245C62.5078 21.3056 63.4934 21.5373 63.4934 22.5987C63.4934 23.4537 62.8827 24.0981 61.6234 24.0981C60.722 24.0896 60.0776 23.7948 59.6396 23.3526ZM44.1191 23.3526L44.6582 22.5944C45.0457 22.9988 45.5848 23.2262 46.145 23.2262C46.6925 23.2262 46.9579 22.9735 46.9579 22.7082C46.9579 22.367 46.5241 22.2659 46.0102 22.1396C45.2437 21.9669 44.2665 21.7563 44.2665 20.6907C44.2665 19.9115 44.9404 19.2671 46.0397 19.2671C46.7852 19.2671 47.4001 19.4903 47.8634 19.9199L47.3075 20.6486C46.9326 20.3159 46.4482 20.1348 45.947 20.139C45.5216 20.139 45.2816 20.3285 45.2816 20.6065C45.2816 20.9097 45.707 21.0066 46.2124 21.1245C46.9789 21.3056 47.9645 21.5373 47.9645 22.5987C47.9645 23.4537 47.3538 24.0981 46.0945 24.0981C45.2016 24.0896 44.5571 23.7948 44.1191 23.3526ZM39.2419 22.148V19.3345H40.2611V22.1101C40.2611 22.7629 40.6444 23.2094 41.3604 23.2094C42.0764 23.2094 42.4555 22.7587 42.4555 22.1101V19.3345H43.4747V22.1396C43.4747 23.302 42.7882 24.0939 41.3646 24.0939C39.9452 24.0981 39.2419 23.2978 39.2419 22.148ZM53.8863 24.0138L51.6582 20.9645V24.0138H50.6643V19.3345H51.6835L53.8526 22.2659V19.3345H54.8466V24.0096H53.8863V24.0138ZM48.6931 24.0138V19.3345H49.6871V24.0096H48.6931V24.0138ZM55.8195 24.0138V19.3345H59.1342V20.2106H56.8177V21.2003H59.0836V22.0764H56.8177V23.1336H59.13V24.0096L55.8195 24.0138ZM34.5499 24.0138V19.3345H37.0096C37.9025 19.3345 38.3574 19.9031 38.3574 20.5264C38.3574 21.1161 37.991 21.5078 37.5529 21.6005C38.0499 21.6763 38.4458 22.1606 38.4458 22.7461C38.4458 23.4452 37.9783 24.0096 37.0854 24.0096L34.5499 24.0138ZM37.4308 22.6113C37.4308 22.3165 37.2202 22.0638 36.8285 22.0638H35.5481V23.1504H36.8285C37.2034 23.1504 37.4308 22.944 37.4308 22.6113ZM37.3423 20.6991C37.3423 20.4169 37.1107 20.1895 36.8327 20.1895C36.8201 20.1895 36.8074 20.1895 36.7948 20.1895H35.5481V21.2088H36.7948C37.1317 21.2088 37.3423 20.9982 37.3423 20.7033V20.6991ZM39.1703 13.6444C39.1703 12.2081 40.2569 11.2226 41.6594 11.2226C42.4765 11.2015 43.2346 11.648 43.6137 12.3682L42.7587 12.7894C42.5481 12.3808 42.1269 12.1155 41.6636 12.107C40.8171 12.107 40.1979 12.7599 40.1979 13.6359C40.1979 14.512 40.8129 15.1648 41.6636 15.1648C42.1269 15.1606 42.5523 14.8995 42.7629 14.4867L43.6137 14.9121C43.2768 15.4933 42.6871 16.0577 41.6594 16.0577C40.2611 16.0619 39.1703 15.0848 39.1703 13.6444ZM44.0349 13.6444C44.0349 12.2081 45.1215 11.2226 46.5241 11.2226C47.3411 11.2015 48.0993 11.648 48.4783 12.3682L47.6233 12.7894C47.4085 12.3766 46.9874 12.1155 46.5241 12.107C45.6775 12.107 45.0584 12.7599 45.0584 13.6359C45.0584 14.512 45.6733 15.1648 46.5241 15.1648C46.9874 15.1606 47.4127 14.8995 47.6233 14.4867L48.4783 14.8995C48.1414 15.4807 47.5517 16.0451 46.5241 16.0451C45.1257 16.0619 44.0349 15.0848 44.0349 13.6444ZM51.7677 15.9819L50.8496 14.3267H50.1209V15.9819H49.1269V11.3068H51.3129C52.2858 11.3068 52.8839 11.9428 52.8839 12.8146C52.8839 13.6401 52.3658 14.0908 51.8646 14.2045L52.9176 15.9903L51.7677 15.9819ZM37.7762 15.9819L37.4898 15.1901H35.4849L35.1901 15.9819H34.0529L35.864 11.3068H37.1107L38.9133 15.9819H37.7762ZM73.1384 15.9819V11.3068H74.9832C76.4489 11.3068 77.4639 12.2376 77.4639 13.6486C77.4639 15.0595 76.4447 15.9819 74.9832 15.9819H73.1384ZM69.0024 15.9819V11.3068H72.3171V12.1829H69.9964V13.1726H72.2581V14.0487H69.9964V15.1059H72.3087V15.9819H69.0024ZM62.9037 15.9819V11.3068H63.8977V15.9819H62.9037ZM57.8201 15.9819V11.3068H59.6649C61.1306 11.3068 62.1456 12.2376 62.1456 13.6486C62.1456 15.0595 61.1264 15.9819 59.6649 15.9819H57.8201ZM53.6841 15.9819V11.3068H56.9988V12.1829H54.6781V13.1726H56.944V14.0487H54.6781V15.1059H56.9904V15.9819H53.6841ZM65.9531 15.9819V12.1829H64.5842V11.3068H68.3159V12.1829H66.9555V15.9819H65.9531ZM76.4531 13.6486C76.4531 12.8231 75.9435 12.1829 74.9874 12.1829H74.1408V15.1059H74.9874C75.9056 15.1059 76.4447 14.4404 76.4447 13.6486H76.4531ZM61.1348 13.6486C61.1348 12.8231 60.6252 12.1829 59.6691 12.1829H58.8225V15.1059H59.6691C60.5872 15.1059 61.1264 14.4404 61.1264 13.6486H61.1348ZM36.4873 12.3008L35.7587 14.314H37.216L36.4873 12.3008ZM51.8646 12.8104C51.8646 12.4187 51.5656 12.1786 51.1655 12.1786H50.1209V13.4422H51.1655C51.5656 13.4422 51.8646 13.2063 51.8646 12.8104Z" fill="white"/>
<path fill-rule="evenodd" clip-rule="evenodd" d="M10.4709 27.8128C11.1364 28.1077 11.4607 28.3014 11.5871 29.1269C11.8019 30.5674 10.4752 31.1149 9.22426 31.1149H6.29285V24.8309H9.24953C10.3109 24.8309 11.2796 25.3152 11.2796 26.4987C11.2796 27.0884 10.9722 27.518 10.4709 27.8128ZM16.3422 27.8128C17.0077 28.1077 17.332 28.3014 17.4583 29.1269C17.6731 30.5674 16.3464 31.1149 15.0955 31.1149H12.1641V24.8309H15.1208C16.1821 24.8309 17.1509 25.3152 17.1509 26.4987C17.1509 27.0884 16.8434 27.518 16.3422 27.8128ZM23.3296 29.1311C23.2032 28.3056 22.8747 28.1119 22.2134 27.817C22.7146 27.5222 23.0263 27.0926 23.0263 26.4987C23.0263 25.3152 22.0576 24.8309 20.9962 24.8309H18.0395V31.1191H20.971C22.2176 31.1191 23.5486 30.5716 23.3296 29.1311ZM24.1467 29.6113V29.5986C24.1467 28.8026 24.7995 28.1498 25.5955 28.1498C26.3915 28.1498 27.0444 28.8026 27.0444 29.5944V29.6071C27.0444 30.4031 26.3915 31.0559 25.5955 31.0559C24.8037 31.0601 24.1509 30.4073 24.1467 29.6113ZM26.9138 29.6071V29.5944C26.9096 28.8742 26.3157 28.2803 25.5955 28.2803C24.8711 28.2803 24.2772 28.8742 24.2772 29.5986V29.6113C24.2814 30.3315 24.8753 30.9254 25.5955 30.9254C26.3199 30.9254 26.9138 30.3315 26.9138 29.6071ZM25.0269 28.8195H25.6924C25.8524 28.811 26.0125 28.87 26.1346 28.9753C26.2146 29.0511 26.2568 29.1564 26.2568 29.2617V29.2701C26.2568 29.5102 26.0967 29.6534 25.8735 29.7081L26.3326 30.3062H26.0588L25.6292 29.746H25.2501V30.3062H25.0311L25.0269 28.8195ZM9.3464 29.9272H7.62799V28.4951H9.3464C10.6057 28.4951 10.5299 29.9272 9.3464 29.9272ZM15.2176 29.9272H13.5034V28.4951H15.2176C16.477 28.4951 16.4012 29.9272 15.2176 29.9272ZM19.3747 28.4951V29.9272H21.0889C22.2724 29.9272 22.3482 28.4951 21.0889 28.4951H19.3747ZM25.6713 29.5481C25.8777 29.5481 26.0251 29.4512 26.0251 29.2827V29.2743C26.0251 29.1185 25.8988 29.0174 25.684 29.0174H25.2459V29.5481H25.6713ZM7.62799 26.0312H9.1695C10.1298 26.0312 10.1635 27.3706 9.22847 27.3706H7.62799V26.0312ZM19.3789 26.0312H20.9078C21.8681 26.0312 21.9018 27.3706 20.9667 27.3706H19.3705L19.3789 26.0312ZM13.5077 26.0312H15.045C16.0052 26.0312 16.0389 27.3706 15.1039 27.3706H13.5034L13.5077 26.0312ZM9.1316 22.0174H11.9914L12.501 23.7526H17.1761L17.6858 22.0174H20.5456L20.1707 20.7412H9.50645L9.1316 22.0174ZM12.5937 11.7364L11.208 13.6485C10.5131 14.6046 10.7279 16.302 11.6755 16.9843L14.2447 18.8375C14.687 19.1576 14.7207 19.4734 14.5101 19.8062L14.8849 20.0842L16.1864 18.2815C16.9908 17.1654 16.9192 15.6533 15.7273 14.7815L13.1328 12.8904C12.8253 12.663 12.7916 12.3471 12.9601 11.9975L12.5937 11.7364ZM14.8175 3.2959L12.6611 6.28207C11.6503 7.68039 12.0167 10.0685 13.3981 11.0877L16.9445 13.6906C17.6647 14.2171 17.7574 15.5649 17.2351 16.2514L17.5341 16.4789L19.9812 13.0378C21.0805 11.4921 21.0173 9.20506 19.2905 7.95416L15.4956 5.19542C14.9649 4.81215 14.6996 4.15511 15.1418 3.52755L14.8175 3.2959Z" fill="#015A75"/>
</svg>
