<svg width="270" height="26" viewBox="0 0 270 26" fill="none" xmlns="http://www.w3.org/2000/svg">
<path d="M43.875 10.3784L39.5357 9.08108L35.5179 3.56757C35.1964 3.08108 34.7143 2.91892 34.2321 2.91892H31.5V1.62162C31.5 0.648649 30.6964 0 29.8929 0H7.55357C6.58929 0 5.94643 0.648649 5.94643 1.62162V4.86487H9.16071V3.24324H28.2857V17.8378H19.2857C18.6429 16.0541 17.0357 14.9189 15.1071 14.9189C13.1786 14.9189 11.5714 16.2162 10.9286 17.8378H9.32143V16.2162H6.10714V19.4595C6.10714 20.2703 6.75 21.0811 7.71429 21.0811H10.9286C11.5714 22.8649 13.1786 24 15.1071 24C17.0357 24 18.6429 22.7027 19.2857 21.0811H32.4643C33.1071 22.8649 34.7143 24 36.6429 24C38.5714 24 40.1786 22.7027 40.8214 21.0811H43.3929C44.3571 21.0811 45 20.4324 45 19.4595V12C45 11.3514 44.5179 10.7027 43.875 10.3784ZM14.9464 20.7568C14.3036 20.7568 13.6607 20.1081 13.6607 19.4595C13.6607 18.6486 14.3036 18.1622 14.9464 18.1622C15.5893 18.1622 16.2321 18.8108 16.2321 19.4595C16.2321 20.2703 15.75 20.7568 14.9464 20.7568ZM36.6429 20.7568C36 20.7568 35.3571 20.1081 35.3571 19.4595C35.3571 18.6486 36 18.1622 36.6429 18.1622C37.2857 18.1622 37.9286 18.8108 37.9286 19.4595C37.9286 20.2703 37.2857 20.7568 36.6429 20.7568ZM41.7857 17.8378H40.8214C40.1786 16.0541 38.5714 14.9189 36.6429 14.9189C34.7143 14.9189 33.1071 16.2162 32.4643 17.8378H31.5V6.16216H33.4286L35.3571 8.91892H33.75C32.7857 8.91892 32.1429 9.56757 32.1429 10.5405C32.1429 11.5135 32.7857 12.1622 33.75 12.1622H38.4107L41.9464 13.2973V17.8378H41.7857ZM10.6071 14.5946H1.60714C0.642857 14.5946 0 13.9459 0 12.973C0 12 0.642857 11.3514 1.60714 11.3514H10.6071C11.5714 11.3514 12.2143 12 12.2143 12.973C12.2143 13.9459 11.5714 14.5946 10.6071 14.5946ZM2.89286 8.10811C2.89286 7.13514 3.53571 6.48649 4.5 6.48649H13.5C14.4643 6.48649 15.1071 7.13514 15.1071 8.10811C15.1071 9.08108 14.4643 9.72973 13.5 9.72973H4.5C3.53571 9.72973 2.89286 9.08108 2.89286 8.10811Z" fill="#26BAAA"/>
<path d="M247.297 19V3.90802H249.845V6.98802L249.481 6.51202C249.855 5.56002 250.452 4.83202 251.273 4.32802C252.095 3.82402 253.019 3.57202 254.045 3.57202C255.221 3.57202 256.276 3.89869 257.209 4.55202C258.161 5.20535 258.815 6.06402 259.169 7.12802L258.441 7.15602C258.833 5.98002 259.496 5.09335 260.429 4.49602C261.363 3.88002 262.399 3.57202 263.537 3.57202C264.583 3.57202 265.525 3.81469 266.365 4.30002C267.224 4.78535 267.905 5.45735 268.409 6.31602C268.913 7.17469 269.165 8.14536 269.165 9.22802V19H266.533V10.068C266.533 9.22802 266.384 8.51869 266.085 7.94002C265.787 7.36135 265.376 6.91335 264.853 6.59602C264.349 6.26002 263.752 6.09202 263.061 6.09202C262.389 6.09202 261.783 6.26002 261.241 6.59602C260.719 6.91335 260.299 7.37069 259.981 7.96802C259.683 8.54669 259.533 9.24669 259.533 10.068V19H256.901V10.068C256.901 9.22802 256.752 8.51869 256.453 7.94002C256.155 7.36135 255.744 6.91335 255.221 6.59602C254.717 6.26002 254.12 6.09202 253.429 6.09202C252.757 6.09202 252.151 6.26002 251.609 6.59602C251.087 6.91335 250.667 7.37069 250.349 7.96802C250.051 8.54669 249.901 9.24669 249.901 10.068V19H247.297Z" fill="#062A54"/>
<path d="M236.145 19.336C234.689 19.336 233.373 19 232.197 18.328C231.021 17.6374 230.088 16.6947 229.397 15.5C228.706 14.3054 228.361 12.952 228.361 11.44C228.361 9.92802 228.697 8.58402 229.369 7.40802C230.06 6.23202 230.993 5.29869 232.169 4.60802C233.345 3.91735 234.67 3.57202 236.145 3.57202C237.601 3.57202 238.917 3.91735 240.093 4.60802C241.269 5.28002 242.193 6.20402 242.865 7.38002C243.556 8.55602 243.901 9.90935 243.901 11.44C243.901 12.9707 243.546 14.3334 242.837 15.528C242.128 16.704 241.185 17.6374 240.009 18.328C238.852 19 237.564 19.336 236.145 19.336ZM236.145 16.816C237.078 16.816 237.918 16.5827 238.665 16.116C239.43 15.6494 240.028 15.0054 240.457 14.184C240.905 13.3627 241.129 12.448 241.129 11.44C241.129 10.4134 240.905 9.50802 240.457 8.72402C240.028 7.92135 239.43 7.28669 238.665 6.82002C237.918 6.33469 237.078 6.09202 236.145 6.09202C235.193 6.09202 234.334 6.33469 233.569 6.82002C232.822 7.28669 232.225 7.92135 231.777 8.72402C231.329 9.50802 231.105 10.4134 231.105 11.44C231.105 12.448 231.329 13.3627 231.777 14.184C232.225 15.0054 232.822 15.6494 233.569 16.116C234.334 16.5827 235.193 16.816 236.145 16.816Z" fill="#062A54"/>
<path d="M219.106 19.336C217.631 19.336 216.315 18.9907 215.158 18.3C214.019 17.6094 213.123 16.6667 212.47 15.472C211.816 14.2774 211.49 12.9334 211.49 11.44C211.49 9.92802 211.816 8.58402 212.47 7.40802C213.123 6.23202 214.019 5.29869 215.158 4.60802C216.315 3.91735 217.631 3.57202 219.106 3.57202C220.095 3.57202 221.019 3.74935 221.878 4.10402C222.736 4.45869 223.492 4.93469 224.146 5.53202C224.799 6.12935 225.275 6.82935 225.574 7.63202L223.25 8.75202C222.895 7.96802 222.354 7.33335 221.626 6.84802C220.898 6.34402 220.058 6.09202 219.106 6.09202C218.191 6.09202 217.36 6.32535 216.614 6.79202C215.886 7.25869 215.307 7.89335 214.878 8.69602C214.448 9.49869 214.234 10.4227 214.234 11.468C214.234 12.476 214.448 13.3907 214.878 14.212C215.307 15.0147 215.886 15.6494 216.614 16.116C217.36 16.5827 218.191 16.816 219.106 16.816C220.058 16.816 220.898 16.5734 221.626 16.088C222.354 15.584 222.895 14.9214 223.25 14.1L225.574 15.276C225.275 16.06 224.799 16.76 224.146 17.376C223.492 17.9734 222.736 18.4494 221.878 18.804C221.019 19.1587 220.095 19.336 219.106 19.336Z" fill="#062A54"/>
<path d="M204.283 19V15.64H206.999V19H204.283Z" fill="#062A54"/>
<path d="M194.324 19.336C192.7 19.336 191.282 18.9533 190.068 18.188C188.874 17.404 188.052 16.3493 187.604 15.024L190.348 13.708C190.74 14.5667 191.282 15.2387 191.973 15.724C192.682 16.2093 193.466 16.452 194.324 16.452C194.996 16.452 195.529 16.3027 195.921 16.004C196.313 15.7053 196.508 15.3133 196.508 14.828C196.508 14.5293 196.425 14.2867 196.257 14.1C196.107 13.8947 195.893 13.7267 195.613 13.596C195.351 13.4467 195.062 13.3253 194.744 13.232L192.253 12.532C190.965 12.1587 189.984 11.5893 189.312 10.824C188.659 10.0587 188.332 9.15334 188.332 8.10801C188.332 7.17468 188.566 6.36268 189.033 5.67201C189.518 4.96268 190.18 4.41201 191.02 4.02001C191.879 3.62801 192.859 3.43201 193.96 3.43201C195.398 3.43201 196.667 3.77734 197.768 4.46801C198.87 5.15867 199.654 6.12934 200.12 7.38001L197.32 8.69601C197.059 8.00534 196.621 7.45467 196.005 7.04401C195.389 6.63334 194.698 6.42801 193.932 6.42801C193.316 6.42801 192.831 6.56801 192.477 6.84801C192.122 7.12801 191.944 7.49201 191.944 7.94001C191.944 8.22001 192.019 8.46267 192.169 8.66801C192.318 8.87334 192.523 9.04134 192.785 9.17201C193.065 9.30267 193.382 9.42401 193.736 9.53601L196.173 10.264C197.423 10.6373 198.385 11.1973 199.057 11.944C199.747 12.6907 200.092 13.6053 200.092 14.688C200.092 15.6027 199.85 16.4147 199.365 17.124C198.879 17.8147 198.207 18.356 197.348 18.748C196.49 19.14 195.482 19.336 194.324 19.336Z" fill="#062A54"/>
<path d="M178.056 19V3.76798H181.5V7.15598L181.22 6.65198C181.574 5.51331 182.125 4.71998 182.872 4.27198C183.637 3.82398 184.552 3.59998 185.616 3.59998H186.512V6.84798H185.196C184.15 6.84798 183.31 7.17464 182.676 7.82798C182.041 8.46264 181.724 9.35864 181.724 10.516V19H178.056Z" fill="#062A54"/>
<path d="M168.135 19.336C166.567 19.336 165.195 18.9813 164.019 18.272C162.843 17.5627 161.928 16.6013 161.275 15.388C160.622 14.1747 160.295 12.8307 160.295 11.356C160.295 9.82534 160.622 8.47201 161.275 7.29601C161.947 6.10134 162.852 5.15867 163.991 4.46801C165.148 3.77734 166.436 3.43201 167.855 3.43201C169.05 3.43201 170.095 3.62801 170.991 4.02001C171.906 4.41201 172.68 4.95334 173.315 5.64401C173.95 6.33467 174.435 7.12801 174.771 8.02401C175.107 8.90134 175.275 9.85334 175.275 10.88C175.275 11.1413 175.256 11.412 175.219 11.692C175.2 11.972 175.154 12.2147 175.079 12.42H163.319V9.62001H173.007L171.271 10.936C171.439 10.0773 171.392 9.31201 171.131 8.64001C170.888 7.96801 170.478 7.43601 169.899 7.04401C169.339 6.65201 168.658 6.45601 167.855 6.45601C167.09 6.45601 166.408 6.65201 165.811 7.04401C165.214 7.41734 164.756 7.97734 164.439 8.72401C164.14 9.45201 164.028 10.3387 164.103 11.384C164.028 12.3173 164.15 13.148 164.467 13.876C164.803 14.5853 165.288 15.136 165.923 15.528C166.576 15.92 167.323 16.116 168.163 16.116C169.003 16.116 169.712 15.9387 170.291 15.584C170.888 15.2293 171.355 14.7533 171.691 14.156L174.659 15.612C174.36 16.34 173.894 16.984 173.259 17.544C172.624 18.104 171.868 18.5427 170.991 18.86C170.132 19.1773 169.18 19.336 168.135 19.336Z" fill="#062A54"/>
<path d="M149.917 19L143.925 3.76801H147.929L152.269 15.752H150.785L155.153 3.76801H159.157L153.165 19H149.917Z" fill="#062A54"/>
<path d="M134.781 19.336C133.287 19.336 131.925 18.9907 130.693 18.3C129.479 17.6093 128.509 16.6667 127.781 15.472C127.071 14.2773 126.717 12.9147 126.717 11.384C126.717 9.85334 127.071 8.49067 127.781 7.29601C128.509 6.10134 129.479 5.15867 130.693 4.46801C131.906 3.77734 133.269 3.43201 134.781 3.43201C136.274 3.43201 137.627 3.77734 138.841 4.46801C140.054 5.15867 141.015 6.10134 141.725 7.29601C142.453 8.47201 142.817 9.83467 142.817 11.384C142.817 12.9147 142.453 14.2773 141.725 15.472C140.997 16.6667 140.026 17.6093 138.813 18.3C137.599 18.9907 136.255 19.336 134.781 19.336ZM134.781 15.976C135.602 15.976 136.321 15.78 136.937 15.388C137.571 14.996 138.066 14.4547 138.421 13.764C138.794 13.0547 138.981 12.2613 138.981 11.384C138.981 10.488 138.794 9.70401 138.421 9.03201C138.066 8.34134 137.571 7.80001 136.937 7.40801C136.321 6.99734 135.602 6.79201 134.781 6.79201C133.941 6.79201 133.203 6.99734 132.569 7.40801C131.934 7.80001 131.43 8.34134 131.057 9.03201C130.702 9.70401 130.525 10.488 130.525 11.384C130.525 12.2613 130.702 13.0547 131.057 13.764C131.43 14.4547 131.934 14.996 132.569 15.388C133.203 15.78 133.941 15.976 134.781 15.976Z" fill="#062A54"/>
<path d="M101.466 19V3.76801H104.91V7.29601L104.518 6.70801C104.798 5.60668 105.358 4.78534 106.198 4.24401C107.038 3.70267 108.027 3.43201 109.166 3.43201C110.416 3.43201 111.518 3.75867 112.47 4.41201C113.422 5.06534 114.038 5.92401 114.318 6.98801L113.282 7.07201C113.748 5.85867 114.448 4.95334 115.382 4.35601C116.315 3.74001 117.388 3.43201 118.602 3.43201C119.684 3.43201 120.646 3.67467 121.486 4.16001C122.344 4.64534 123.016 5.32667 123.502 6.20401C123.987 7.06267 124.23 8.06134 124.23 9.20001V19H120.562V10.068C120.562 9.39601 120.44 8.81734 120.198 8.33201C119.955 7.84667 119.619 7.47334 119.19 7.21201C118.76 6.93201 118.238 6.79201 117.622 6.79201C117.043 6.79201 116.53 6.93201 116.082 7.21201C115.634 7.47334 115.288 7.84667 115.046 8.33201C114.803 8.81734 114.682 9.39601 114.682 10.068V19H111.014V10.068C111.014 9.39601 110.892 8.81734 110.65 8.33201C110.407 7.84667 110.062 7.47334 109.614 7.21201C109.184 6.93201 108.671 6.79201 108.074 6.79201C107.495 6.79201 106.982 6.93201 106.534 7.21201C106.086 7.47334 105.74 7.84667 105.498 8.33201C105.255 8.81734 105.134 9.39601 105.134 10.068V19H101.466Z" fill="#062A54"/>
<path d="M96.8043 19.168C95.3296 19.168 94.1909 18.748 93.3883 17.908C92.6043 17.068 92.2123 15.8826 92.2123 14.352V6.39997H89.4683V3.90797H90.0283C90.7003 3.90797 91.2323 3.70264 91.6243 3.29197C92.0163 2.88131 92.2123 2.33997 92.2123 1.66797V0.435974H94.8163V3.90797H98.2043V6.39997H94.8163V14.268C94.8163 14.772 94.8909 15.2106 95.0403 15.584C95.2083 15.9573 95.4789 16.256 95.8523 16.48C96.2256 16.6853 96.7203 16.788 97.3363 16.788C97.4669 16.788 97.6256 16.7786 97.8123 16.76C98.0176 16.7413 98.2043 16.7226 98.3723 16.704V19C98.1296 19.056 97.8589 19.0933 97.5603 19.112C97.2616 19.1493 97.0096 19.168 96.8043 19.168Z" fill="#062A54"/>
<path d="M80.4169 19.336C78.9609 19.336 77.6636 18.9907 76.5249 18.3C75.3863 17.6094 74.4903 16.6667 73.8369 15.472C73.1836 14.2587 72.8569 12.9054 72.8569 11.412C72.8569 9.90002 73.1743 8.55602 73.8089 7.38002C74.4623 6.20402 75.3396 5.28002 76.4409 4.60802C77.5609 3.91735 78.8116 3.57202 80.1929 3.57202C81.3129 3.57202 82.3023 3.77735 83.1609 4.18802C84.0383 4.58002 84.7756 5.12135 85.3729 5.81202C85.9889 6.48402 86.4556 7.25869 86.7729 8.13602C87.1089 8.99469 87.2769 9.89069 87.2769 10.824C87.2769 11.0294 87.2583 11.2627 87.2209 11.524C87.2023 11.7667 87.1743 12 87.1369 12.224H74.7609V9.98402H85.6249L84.3929 10.992C84.5609 10.0214 84.4676 9.15335 84.1129 8.38802C83.7583 7.62269 83.2356 7.01602 82.5449 6.56802C81.8543 6.12002 81.0703 5.89602 80.1929 5.89602C79.3156 5.89602 78.5129 6.12002 77.7849 6.56802C77.0569 7.01602 76.4876 7.66002 76.0769 8.50002C75.6849 9.32135 75.5263 10.3014 75.6009 11.44C75.5263 12.5414 75.6943 13.512 76.1049 14.352C76.5343 15.1734 77.1316 15.8174 77.8969 16.284C78.6809 16.732 79.5303 16.956 80.4449 16.956C81.4529 16.956 82.3023 16.7227 82.9929 16.256C83.6836 15.7894 84.2436 15.192 84.6729 14.464L86.8569 15.584C86.5583 16.2747 86.0916 16.9094 85.4569 17.488C84.8409 18.048 84.1036 18.496 83.2449 18.832C82.4049 19.168 81.4623 19.336 80.4169 19.336Z" fill="#062A54"/>
<path d="M62.2119 25.16C61.1479 25.16 60.1586 24.992 59.2439 24.656C58.3479 24.32 57.5732 23.8534 56.9199 23.256C56.2852 22.6774 55.7999 21.996 55.4639 21.212L57.8999 20.092C58.1612 20.8014 58.6559 21.3987 59.3839 21.884C60.1306 22.388 61.0639 22.64 62.1839 22.64C63.0426 22.64 63.8172 22.472 64.5079 22.136C65.2172 21.8187 65.7772 21.3334 66.1879 20.68C66.5986 20.0454 66.8039 19.2707 66.8039 18.356V14.968L67.2799 15.472C66.7572 16.4987 66.0012 17.2827 65.0119 17.824C64.0412 18.3654 62.9679 18.636 61.7919 18.636C60.3732 18.636 59.1039 18.3094 57.9839 17.656C56.8639 16.984 55.9866 16.0787 55.3519 14.94C54.7172 13.7827 54.3999 12.504 54.3999 11.104C54.3999 9.68535 54.7172 8.40669 55.3519 7.26802C55.9866 6.12935 56.8546 5.23335 57.9559 4.58002C59.0759 3.90802 60.3452 3.57202 61.7639 3.57202C62.9399 3.57202 64.0039 3.84269 64.9559 4.38402C65.9266 4.90669 66.7012 5.63469 67.2799 6.56802L66.8879 7.26802V3.90802H69.4359V18.356C69.4359 19.6627 69.1279 20.8294 68.5119 21.856C67.8959 22.8827 67.0372 23.6854 65.9359 24.264C64.8532 24.8614 63.6119 25.16 62.2119 25.16ZM62.0159 16.116C62.9119 16.116 63.7146 15.892 64.4239 15.444C65.1519 14.996 65.7306 14.3987 66.1599 13.652C66.5892 12.8867 66.8039 12.0374 66.8039 11.104C66.8039 10.1894 66.5892 9.34935 66.1599 8.58402C65.7306 7.81869 65.1519 7.21202 64.4239 6.76402C63.7146 6.31602 62.9119 6.09202 62.0159 6.09202C61.1012 6.09202 60.2706 6.31602 59.5239 6.76402C58.7772 7.21202 58.1892 7.81869 57.7599 8.58402C57.3492 9.33069 57.1439 10.1707 57.1439 11.104C57.1439 12.0374 57.3492 12.8867 57.7599 13.652C58.1892 14.3987 58.7679 14.996 59.4959 15.444C60.2426 15.892 61.0826 16.116 62.0159 16.116Z" fill="#062A54"/>
</svg>
