<?xml version="1.0" encoding="UTF-8"?><svg id="Layer_6" xmlns="http://www.w3.org/2000/svg" viewBox="0 0 720 76.98"><defs><style>.cls-1{fill:#fff;}.cls-1,.cls-2,.cls-3{stroke-width:0px;}.cls-2{fill:#fff;}.cls-3{fill:#26baaa;}</style></defs><path class="cls-2" d="m98.89,29.74c.97,1.7,1.76,3.35,2.44,4.94-.68-1.59-1.47-3.24-2.44-4.94Z"/><path class="cls-3" d="m102.24,36.94c-.27-.73-.58-1.49-.91-2.26-.68-1.59-1.47-3.24-2.44-4.94-.78-1.37-1.6-2.62-2.44-3.81-1.66-2.37-3.4-4.41-5.08-6.12-.03-.03-.06-.07-.09-.1-1.53-1.55-3.01-2.85-4.33-3.9-.3-.24-.64-.44-.98-.61-.74-.37-1.55-.58-2.39-.58h-15.92c-.61,0-1.18.13-1.71.35V6.83c0-.73-.15-1.42-.36-2.08-.63-1.96-2.12-3.53-4.02-4.27-.1-.04-.19-.09-.29-.12-.11-.04-.23-.06-.35-.09-.58-.16-1.19-.27-1.82-.27H6.83C3.06,0,0,3.06,0,6.83v21.84h16.26c1.8,0,3.25-1.46,3.25-3.25s-1.46-3.25-3.25-3.25H4.88V6.83c0-1.08.88-1.95,1.95-1.95h52.29c1.08,0,1.95.88,1.95,1.95v54.83h-22.08c-1.3-5.49-6.22-9.58-12.1-9.58-.43,0-.85.02-1.27.06-1.26.13-2.46.44-3.57.91-3.61,1.53-6.34,4.72-7.26,8.6h-7.96c-1.08,0-1.95-.88-1.95-1.95v-18.04h26.01c1.8,0,3.25-1.46,3.25-3.25s-1.46-3.25-3.25-3.25H0v24.54c0,1.41.43,2.73,1.17,3.82,1.23,1.82,3.31,3.01,5.66,3.01h7.79c.18,1.13.52,2.21.99,3.22,1.3,2.8,3.59,5.04,6.44,6.24,1.12.47,2.32.79,3.57.91.42.04.84.06,1.27.06s.85-.02,1.27-.06c1.39-.14,2.71-.52,3.93-1.08.5-.23.98-.5,1.44-.79.16-.1.31-.22.47-.33.29-.2.57-.4.84-.63.18-.15.35-.31.53-.47.22-.2.43-.41.64-.63.18-.19.35-.39.52-.6.17-.21.33-.42.48-.64.17-.23.33-.47.48-.72.12-.2.23-.4.34-.61.15-.28.31-.56.44-.86.06-.14.11-.3.17-.44.33-.82.58-1.68.73-2.58.03-.17.04-.34.07-.52-.02.17-.03.35-.06.52h31.87c-.02-.15-.03-.31-.05-.46.02.15.03.31.06.46.15.93.42,1.82.77,2.67.06.15.11.3.18.45.14.31.31.61.47.91.11.2.22.4.34.59.16.26.34.51.52.75.16.21.32.42.49.63.18.21.36.42.55.62.21.22.43.43.66.63.18.16.36.33.55.48.28.22.58.43.88.63.16.11.32.23.49.33.48.29.99.55,1.51.77.74.31,1.53.56,2.34.72.81.17,1.65.25,2.51.25,1.86,0,3.62-.42,5.2-1.15,2.44-1.13,4.47-3.01,5.75-5.37.65-1.2,1.1-2.53,1.33-3.92h3.83c2.55,0,4.61-2.03,4.61-4.54v-18.98c-.4-1.77-.97-3.83-1.79-6.08ZM26.89,72.1c-4.17,0-7.57-3.4-7.57-7.57s3.4-7.57,7.57-7.57,7.57,3.4,7.57,7.57-3.4,7.57-7.57,7.57Zm52.13-47.77v-4.84h4.56c.14,0,.25.07.32.12,4.4,3.53,8.02,7.75,10.75,12.54.49.87.95,1.75,1.38,2.65h0c.53,1.09,1.01,2.2,1.45,3.33h-18.46v-13.81Zm4.29,47.77c-4.17,0-7.57-3.4-7.57-7.57s3.4-7.57,7.57-7.57,7.57,3.4,7.57,7.57-3.4,7.57-7.57,7.57Zm15.84-10.44h-3.74c-1.3-5.49-6.22-9.58-12.1-9.58-.86,0-1.7.09-2.51.25s-1.59.41-2.34.72c-3.75,1.58-6.53,4.96-7.34,9.04.03-.15.05-.3.08-.44h-3.29V19.5h6.22v18.82c0,1.39.63,2.63,1.6,3.49.85.75,1.95,1.21,3.17,1.21h18.3l1.93,1.98v16.67Z"/><path class="cls-2" d="m88.52,75.83c2.44-1.13,4.47-3.01,5.75-5.37-1.28,2.35-3.3,4.24-5.75,5.37Z"/><path class="cls-2" d="m70.99,66.08c.02.15.03.31.05.46.15.93.43,1.82.78,2.67-.35-.85-.62-1.74-.77-2.67-.03-.15-.04-.31-.06-.46Z"/><path class="cls-2" d="m39.16,66.54c-.15.9-.4,1.75-.73,2.58.33-.82.59-1.68.73-2.58.03-.17.04-.34.06-.52-.02.17-.04.35-.07.52Z"/><path class="cls-1" d="m148.38,10.51h7.64v46.8c0,13.28-7.64,19.67-20.44,19.67-8.31,0-13.37-2.2-16.71-8.02l5.92-4.2c2.01,3.53,5.16,5.35,11.37,5.35,8.31,0,12.22-4.58,12.22-12.8v-3.25c-2.58,3.34-6.69,4.97-12.99,4.97-12.99,0-19.1-9.17-19.1-21.58v-6.3c0-13.66,7.26-21.39,19.1-21.39,6.3,0,10.41,2.01,12.99,5.54v-4.78Zm0,26.93v-6.3c0-8.98-4.39-14.52-12.22-14.52s-12.22,5.44-12.22,14.52v6.3c0,8.12,4.11,14.71,12.22,14.71,8.79,0,12.22-6.49,12.22-14.71Z"/><path class="cls-1" d="m203.2,51c-3.34,5.83-8.4,8.02-16.71,8.02-12.8,0-20.44-8.31-20.44-21.58v-6.3c0-13.56,6.4-21.39,18.91-21.39s18.91,7.74,18.91,21.39v4.97h-30.18v1.34c0,8.21,3.92,14.71,12.22,14.71,6.21,0,9.36-1.81,11.37-5.35l5.92,4.2Zm-29.51-21.58h22.44c-.38-8.02-3.92-12.8-11.17-12.8s-10.79,4.87-11.27,12.8Z"/><path class="cls-1" d="m210.84,10.51h6.11V0h7.64v10.51h10.98v6.88h-10.98v24.26c0,6.59.76,9.36,7.16,9.36h3.82v7.26h-4.11c-11.27,0-14.52-4.78-14.52-14.71v-26.17h-6.11v-6.88Z"/><path class="cls-1" d="m282.95,58.26h-12.13v-27.98c0-7.64-2.96-10.12-7.26-10.12s-7.55,3.25-7.55,10.03v28.08h-12.22V10.51h11.94v4.01c1.81-2.48,5.25-4.87,10.6-4.87,5.73,0,10.41,2.2,13.37,6.4,3.06-3.72,7.74-6.4,13.75-6.4,10.41,0,16.52,6.3,16.52,18.72v29.89h-12.22v-27.98c0-7.16-2.48-10.12-7.35-10.12-4.39,0-7.45,3.25-7.45,10.03v28.08Z"/><path class="cls-1" d="m359.26,37.15c0,13.08-6.21,21.97-20.63,21.97s-20.63-8.6-20.63-21.97v-5.73c0-14.33,7.55-21.78,20.63-21.78s20.63,7.45,20.63,21.78v5.73Zm-12.13-.38v-4.97c0-7.64-2.48-11.84-8.5-11.84s-8.5,4.2-8.5,11.84v4.97c0,6.88,1.72,12.03,8.5,12.03s8.5-5.16,8.5-12.03Z"/><path class="cls-1" d="m409.31,10.51l-18.15,47.75h-11.46l-18.53-47.75h13.37l10.7,30.94,10.6-30.94h13.47Z"/><path class="cls-1" d="m449.81,51c-3.34,5.83-8.88,8.12-17.48,8.12-14.33,0-21.2-9.26-21.2-21.58v-6.49c0-14.42,7.26-21.39,19.67-21.39,13.47,0,19.67,7.83,19.67,22.35v5.44h-27.22c.1,6.59,2.2,11.37,8.98,11.37,5.06,0,6.69-1.53,8.5-4.11l9.07,6.3Zm-26.55-22.25h14.99c-.29-6.21-2.77-8.79-7.35-8.79-4.87,0-7.16,3.34-7.64,8.79Z"/><path class="cls-1" d="m485.15,23.78c-1.24-1.81-2.96-3.63-6.02-3.63-4.58,0-7.64,3.34-7.64,10.03v28.08h-12.22V10.51h11.94v4.01c1.62-2.39,4.78-4.87,10.41-4.87s10.03,2.48,12.89,7.45l-9.36,6.69Z"/><path class="cls-1" d="m524.59,23.97c-2.1-2.48-4.2-3.82-9.36-3.82-3.15,0-6.02.96-6.02,3.72s2.58,3.92,7.64,4.68c11.75,1.81,17.67,6.3,17.67,15.76s-6.4,14.8-18.72,14.8c-9.74,0-15.66-2.39-19.77-7.93l9.36-6.69c1.91,2.58,4.3,4.11,10.22,4.11,4.2,0,6.78-1.43,6.78-3.92,0-2.96-2.1-3.92-8.12-4.87-9.93-1.62-17.19-5.83-17.19-15.47,0-9.07,6.49-14.71,18.43-14.71,7.83,0,14.33,1.81,18.05,7.93l-8.98,6.4Z"/><path class="cls-1" d="m554.68,58.26h-11.08v-11.08h11.08v11.08Z"/><path class="cls-1" d="m600.81,51c-2.96,5.54-8.79,8.02-16.52,8.02-13.08,0-20.63-8.4-20.63-21.58v-6.3c0-13.56,7.74-21.39,20.63-21.39,7.16,0,13.08,2.58,16.52,7.45l-6.02,4.2c-2.1-3.06-6.11-4.78-10.51-4.78-8.21,0-12.99,5.54-12.99,14.52v6.3c0,8.21,3.82,14.71,12.99,14.71,4.49,0,8.6-1.53,10.6-5.35l5.92,4.2Z"/><path class="cls-1" d="m645.79,37.44c0,12.42-6.11,21.58-19.87,21.58-12.7,0-19.87-8.4-19.87-21.58v-6.3c0-13.56,7.35-21.39,19.87-21.39s19.87,7.74,19.87,21.39v6.3Zm-7.64,0v-6.3c0-9.07-4.39-14.52-12.22-14.52s-12.22,5.54-12.22,14.52v6.3c0,8.21,3.44,14.71,12.22,14.71,8.12,0,12.22-6.59,12.22-14.71Z"/><path class="cls-1" d="m655.82,10.51h7.64v4.68c2.1-3.25,5.73-5.44,11.84-5.44s11.27,2.58,13.94,7.55c3.25-5.06,8.5-7.55,14.33-7.55,10.22,0,16.43,6.3,16.43,18.72v29.8h-7.64v-29.7c0-8.69-4.3-11.75-9.93-11.75-6.11,0-10.7,4.87-10.7,11.65v29.8h-7.64v-29.7c0-8.69-4.3-11.75-9.93-11.75-6.21,0-10.7,5.06-10.7,11.65v29.8h-7.64V10.51Z"/></svg>