<svg width="92" height="30" viewBox="0 0 92 30" fill="none" xmlns="http://www.w3.org/2000/svg">
<g clip-path="url(#clip0_346_456)">
<path d="M60.6007 12.7051L60.7716 13.0967C60.1415 13.0967 59.5148 13.1273 58.888 13.0967C58.5691 13.0614 58.2532 13.0022 57.9429 12.9196L57.782 12.5314L57.8926 12.4462L57.7284 12.3713L57.2156 11.2782H53.0528L52.4697 12.3509C52.1077 12.4531 52.2786 12.7391 52.2686 12.9639C52.2731 13.0108 52.2612 13.0578 52.2351 13.0967H49.47C50.8542 9.91261 52.2284 6.72853 53.6327 3.56148C53.8841 2.99278 54.0248 2.48877 53.7131 1.88942C53.603 1.5705 53.542 1.23625 53.5321 0.898438L55.5632 0.898438C55.9926 1.41349 56.3204 2.00778 56.5285 2.64883C57.7719 5.71371 59.0355 8.7786 60.289 11.8435C60.339 11.9893 60.3793 12.1383 60.4097 12.2896C60.3828 12.4769 60.3091 12.6676 60.6007 12.7051ZM55.1443 5.8942L53.9611 8.73092C55.0001 8.88757 55.5163 8.87395 56.2067 8.65941C55.8716 7.76038 55.5364 6.87837 55.1443 5.88399V5.8942Z" fill="#C01A1A"/>
<path d="M12.039 29.7492C10.2593 28.9694 8.47625 28.2066 6.70324 27.4063C4.93023 26.606 3.17734 25.7581 1.39763 24.9544C0.942474 24.7888 0.475139 24.6602 0 24.5696L0 2.09375C0.317091 2.11167 0.630978 2.16768 0.935102 2.26062C1.74955 2.60116 2.54723 3.003 3.35162 3.39803C6.0966 4.7602 9.04937 5.66604 11.5866 7.50838C11.6905 7.5833 11.9217 7.50838 12.0725 7.48795L12.0223 12.78L5.06765 9.75256V21.1948L12.0658 24.4129L12.039 29.7492Z" fill="#C01919"/>
<path d="M62.0419 7.84211C61.0833 7.84211 61.0599 7.81146 61.0565 6.86134V5.79544L62.1089 5.69328C62.129 5.35274 62.1559 5.0122 62.1626 4.7023C62.1626 4.0757 62.1626 3.43208 62.5145 2.89402C62.8065 2.42679 63.1644 2.0057 63.5769 1.64423C64.0862 1.22518 64.7047 0.966018 65.3566 0.898438C65.4807 0.898438 67.0325 1.23898 67.5084 1.34795C67.1464 2.15164 66.8381 2.84975 66.5029 3.5751C65.9432 3.52062 65.3835 3.18007 64.9042 3.67046C64.4249 4.16084 64.7198 4.85214 64.569 5.5196H66.1376C66.3253 6.30966 66.2013 7.03843 66.2448 7.82849H64.6394C64.6193 9.62655 64.6025 11.3667 64.5858 13.1035H62.3905V8.33589C62.4072 8.04984 62.3972 7.82849 62.0419 7.84211Z" fill="#C01919"/>
<path d="M12.0659 7.48783L23.7965 2.12769V22.8055C23.8404 23.2812 23.9268 23.752 24.0546 24.2119C23.0022 24.7704 21.9666 25.3731 20.8907 25.8806C18.3032 27.1201 15.6856 28.2984 13.0714 29.5039C12.7366 29.6216 12.3923 29.7093 12.0424 29.7661L12.0659 24.4128L19.3322 21.1368C19.4797 20.8882 19.7511 20.643 19.7511 20.391C19.7824 17.1241 19.7824 13.856 19.7511 10.5868C19.7511 10.3688 19.5266 10.1509 19.416 9.92952C18.7457 10.1202 18.0552 10.2701 17.405 10.5119C15.5951 11.2406 13.802 12.0205 12.0022 12.7799L12.0659 7.48783Z" fill="#75170E"/>
<path d="M69.6131 9.75256C69.8745 10.5596 70.8431 11.1965 71.6442 11.4042C72.4452 11.6119 72.9848 10.8798 73.7792 10.5665C74.8215 10.9819 75.0896 11.1556 75.4885 11.6971C74.7344 12.5694 73.7081 13.1518 72.5815 13.3464C71.455 13.5411 70.2969 13.3363 69.3014 12.7664C67.525 11.7822 66.6536 9.5312 67.2234 7.45049C67.5097 6.43743 68.1288 5.55452 68.9776 4.94859C69.8264 4.34266 70.8538 4.05025 71.8888 4.11998C72.9021 4.10163 73.8861 4.46562 74.6506 5.14161C75.455 5.86356 76.1018 6.7081 76.2392 7.86595C76.17 8.05265 76.1173 8.24525 76.0817 8.44147C76.0515 8.73433 76.0616 9.03401 76.0549 9.36093H70.7191C70.4454 9.34046 70.1704 9.34731 69.898 9.38136C69.774 9.39158 69.7136 9.61293 69.6131 9.75256ZM69.8242 7.86595C71.1046 7.7127 72.348 8.11795 73.5479 7.57308C73.0083 6.55145 72.1871 6.09172 71.2822 6.28242C70.3035 6.48335 69.8645 6.92265 69.8242 7.85573V7.86595Z" fill="#C01919"/>
<path d="M86.3746 7.65478L86.4282 8.03279C85.9724 8.37333 86.4617 8.93523 86.0696 9.34728H80.0366C79.7685 9.34728 79.7719 9.55161 79.7752 9.74231L79.6411 9.81042L79.8054 9.90577C80.3752 10.9853 81.3739 11.2679 82.4867 11.3939C83.2475 11.2135 83.3648 10.8082 83.8273 10.4915L85.3523 11.3054C85.3988 11.361 85.4341 11.4255 85.4561 11.495C85.478 11.5645 85.4863 11.6377 85.4804 11.7105C85.4745 11.7832 85.4545 11.8541 85.4216 11.919C85.3887 11.9839 85.3435 12.0415 85.2886 12.0887L85.235 12.1295C84.253 12.9264 83.1972 13.4917 81.8834 13.3316C81.3697 13.3049 80.8582 13.2458 80.3517 13.1546C78.5016 12.6676 77.2615 10.9751 77.1677 8.9216C77.1312 8.23182 77.2569 7.54313 77.5343 6.91248C77.8117 6.28182 78.2329 5.72732 78.763 5.29482C79.2104 4.91621 79.7245 4.62731 80.278 4.44346C80.9396 4.22511 81.634 4.12712 82.3291 4.154C82.9711 4.20926 83.5929 4.40936 84.1491 4.73974C84.7037 5.12573 85.214 5.57348 85.6707 6.07466C85.761 6.19726 85.828 6.33583 85.8685 6.48332L86.0629 6.90559C86.1366 7.161 85.8282 7.57986 86.3746 7.65478ZM83.7268 7.56624C82.9023 5.95888 81.0455 5.7818 80.0836 7.13035C80.0386 7.1745 80.0028 7.2274 79.9783 7.28591C79.9539 7.34442 79.9413 7.40733 79.9413 7.47089C79.9413 7.53445 79.9539 7.59736 79.9783 7.65587C80.0028 7.71438 80.0386 7.76729 80.0836 7.81143L80.1238 7.84889C81.27 7.70927 82.4967 8.09068 83.7268 7.56624Z" fill="#C01919"/>
<path d="M45.1631 11.2202C45.6153 11.1885 46.0526 11.0426 46.4353 10.7958C46.8181 10.5491 47.1342 10.2092 47.355 9.80694L49.3224 10.9682C48.4409 13.0115 45.8803 13.7402 44.1408 13.3248C42.1298 12.8412 40.6786 11.462 40.454 8.89769C40.3932 7.92633 40.6657 6.96359 41.2249 6.17335C41.8042 5.27957 42.6716 4.61856 43.6783 4.30377C44.6752 3.95837 45.755 3.94763 46.7584 4.27312C48.0052 4.7022 48.5415 5.18578 49.3593 6.45259C48.9202 6.72162 48.4879 7.00427 48.0421 7.25628C47.4991 7.56276 47.4019 7.55255 46.9495 7.06217C46.6487 6.70201 46.2399 6.45202 45.7859 6.35053C45.3318 6.24904 44.8576 6.30164 44.4358 6.50027C43.9819 6.65945 43.5923 6.9663 43.3275 7.37327C43.0627 7.78024 42.9374 8.26459 42.9711 8.75126C42.9624 9.23768 43.1034 9.71473 43.3744 10.1158C43.6453 10.5169 44.0328 10.822 44.4827 10.9886C44.7044 11.0806 44.9316 11.1579 45.1631 11.2202Z" fill="#C01A1A"/>
<path d="M69.6132 9.75256C69.7037 9.62316 69.774 9.41202 69.888 9.37796C70.1604 9.34391 70.4354 9.33706 70.7091 9.35753H76.055C76.055 9.01699 76.055 8.73093 76.0818 8.43807C76.1173 8.24185 76.1701 8.04925 76.2393 7.86255L76.4706 9.56526C76.1354 9.59932 75.9008 9.64018 75.6662 9.64018H70.5147C70.2124 9.66063 69.9114 9.69815 69.6132 9.75256Z" fill="#BE0D0D"/>
<path d="M79.7853 9.75252C79.7853 9.56182 79.7853 9.3643 80.0467 9.35749H86.0796C86.4718 8.94543 85.9824 8.39035 86.4382 8.0498C86.5053 8.52997 86.569 9.01354 86.646 9.57203C86.3109 9.60609 86.0863 9.65376 85.8551 9.65376H80.7908C80.4539 9.66469 80.118 9.69768 79.7853 9.75252Z" fill="#BE0D0D"/>
<path d="M62.0419 7.84204C62.3971 7.84204 62.4072 8.06339 62.4038 8.33583V13.1034H64.5992C64.6394 13.3588 64.502 13.4269 64.2841 13.4235H62.2162C62.1693 13.2102 62.1358 12.9941 62.1156 12.7765V8.7547C62.1056 8.45842 62.0653 8.15194 62.0419 7.84204Z" fill="#BF1212"/>
<path d="M24.0646 24.2121C23.9335 23.7525 23.8438 23.2818 23.7965 22.8057V2.12789L24.1518 1.98486C24.1652 9.23162 24.1752 16.4795 24.1819 23.7285C24.1631 23.8941 24.1237 24.0566 24.0646 24.2121Z" fill="#6D0000"/>
<path d="M57.9427 12.9265C58.2531 13.0091 58.569 13.0683 58.8879 13.1036C59.5147 13.1274 60.1414 13.1036 60.7715 13.1036L60.9424 13.3897H58.0768L57.9427 12.9265Z" fill="#C83D3D"/>
<path d="M49.4699 13.1035H52.235C52.235 13.4134 52.0439 13.4441 51.8093 13.4441H49.3358L49.4699 13.1035Z" fill="#C83D3D"/>
<path d="M36.7271 13.1035H39.3179C39.2676 13.2023 39.2207 13.3862 39.167 13.3862C38.4029 13.4066 37.6353 13.4066 36.8712 13.3862C36.8209 13.3862 36.7773 13.2023 36.7271 13.1035Z" fill="#BE0D0D"/>
<path d="M28.777 13.1035H31.3611C31.294 13.1887 31.227 13.3453 31.16 13.3453C30.436 13.3635 29.7098 13.3635 28.9814 13.3453C28.911 13.3351 28.844 13.1852 28.777 13.1035Z" fill="#BE0303"/>
<path d="M86.3746 7.65487C85.8283 7.57995 86.1233 7.16108 86.0696 6.88184L86.3746 7.65487Z" fill="#BE0D0D"/>
<path d="M39.3178 1.46388L39.0866 1.21528L34.0659 4.98509C33.7776 4.78077 33.5262 4.60709 33.2816 4.4232C32.2057 3.60249 31.1332 2.77837 30.054 1.96107C29.7657 1.74312 29.1021 1.11312 28.7636 1.06885V1.64777C28.7636 3.00994 28.7267 4.37211 28.7301 5.73429C28.7301 8.1896 28.7502 10.6415 28.7636 13.0934H31.3477C31.3678 10.8561 31.3879 8.62209 31.408 6.25532L34.0457 8.22025L36.727 6.22126V13.1036H39.3178C39.3178 11.8641 39.3514 10.6245 39.3514 9.3815C39.3447 6.74229 39.3279 4.10309 39.3178 1.46388Z" fill="#BE0303"/>
<path d="M52.2853 12.9706C52.2853 12.7459 52.1244 12.4598 52.4864 12.3577L52.2853 12.9706Z" fill="#C83D3D"/>
<path d="M39.3178 1.46381L39.0865 1.21522L39.3111 1.05176L39.3178 1.46381Z" fill="#BE0D0D"/>
<path d="M60.6006 12.705C60.309 12.6675 60.3827 12.4598 60.4096 12.2759L60.6006 12.705Z" fill="#C83D3D"/>
<path d="M57.7283 12.3782L57.8925 12.4531L57.7819 12.5382C57.7619 12.5172 57.7467 12.492 57.7374 12.4643C57.7281 12.4366 57.725 12.4072 57.7283 12.3782Z" fill="#C83D3D"/>
<path d="M79.8222 9.89564L79.658 9.80029L79.792 9.73218C79.812 9.78428 79.8222 9.83972 79.8222 9.89564Z" fill="#BE0D0D"/>
<path d="M19.3354 21.137L19.4192 9.92969C19.5365 10.151 19.7544 10.369 19.7544 10.5869C19.7745 13.8561 19.7745 17.1242 19.7544 20.3912C19.7544 20.65 19.4829 20.8884 19.3354 21.137Z" fill="#6D0000"/>
<path d="M36.6902 25.2506C36.6994 25.715 36.5835 26.1731 36.355 26.5754C36.1294 26.9584 35.8211 27.2845 35.4534 27.5289C35.0424 27.7968 34.5888 27.9904 34.1128 28.101C33.5797 28.2332 33.0326 28.2984 32.4839 28.2951C32.1192 28.2972 31.755 28.2698 31.3946 28.2134C31.0946 28.1672 30.7979 28.1012 30.5064 28.0159C30.286 27.9539 30.0708 27.8742 29.8629 27.7775C29.7324 27.7163 29.6088 27.6409 29.4942 27.5527C29.4121 27.4813 29.3555 27.3843 29.3334 27.2769C29.2946 27.105 29.2777 26.9287 29.2831 26.7524C29.2819 26.6239 29.2886 26.4953 29.3032 26.3676C29.31 26.2813 29.3292 26.1964 29.3602 26.1156C29.3806 26.0607 29.4168 26.0132 29.4641 25.9794C29.5106 25.9512 29.5641 25.937 29.6182 25.9385C29.7374 25.9541 29.8518 25.9959 29.9534 26.0611C30.3992 26.2992 30.8719 26.481 31.3611 26.6026C31.7303 26.6893 32.1084 26.7304 32.4872 26.7252C32.7399 26.7271 32.9919 26.6985 33.238 26.6401C33.4389 26.5925 33.6304 26.5108 33.8044 26.3983C33.9521 26.3023 34.0732 26.1697 34.1565 26.013C34.2397 25.8564 34.2824 25.6807 34.2804 25.5026C34.2842 25.2946 34.2085 25.0932 34.0692 24.9407C33.9115 24.7729 33.7267 24.6335 33.5229 24.5287C33.2764 24.3969 33.0211 24.2831 32.7587 24.1881L31.8739 23.8476C31.5718 23.7292 31.2764 23.5939 30.9891 23.4424C30.7115 23.2977 30.4544 23.1156 30.2249 22.9009C29.998 22.691 29.8126 22.439 29.6786 22.1585C29.5319 21.839 29.4596 21.4894 29.4674 21.1369C29.4589 20.7126 29.5631 20.2938 29.7691 19.9246C29.9708 19.5759 30.2496 19.2798 30.5835 19.0596C30.9526 18.8169 31.3611 18.6428 31.7901 18.5454C32.273 18.4272 32.7681 18.3689 33.2648 18.3717C33.5338 18.3729 33.8024 18.3911 34.0692 18.4262C34.323 18.4581 34.5748 18.5047 34.8233 18.5658C35.0341 18.6191 35.2412 18.6862 35.4434 18.7667C35.57 18.8125 35.6905 18.8743 35.802 18.9506C35.8475 18.986 35.8871 19.0285 35.9193 19.0766C35.9449 19.1185 35.963 19.1646 35.9729 19.2128C35.99 19.2843 36.0001 19.3573 36.0031 19.4308C36.0031 19.5159 36.0031 19.6215 36.0031 19.7509C36.0031 19.8803 36.0031 20.0165 36.0031 20.1153C35.9965 20.1982 35.9819 20.2804 35.9595 20.3604C35.9439 20.4144 35.9137 20.4628 35.8724 20.5001C35.8272 20.5318 35.773 20.5473 35.7182 20.5443C35.611 20.5307 35.5074 20.496 35.4132 20.4422C35.2724 20.3707 35.1015 20.2957 34.8971 20.214C34.6651 20.125 34.4277 20.051 34.1865 19.9927C33.8977 19.9234 33.6017 19.8902 33.305 19.8939C33.0793 19.8884 32.8539 19.9136 32.6347 19.9688C32.4677 20.0135 32.3091 20.086 32.1655 20.1834C32.0579 20.2704 31.9723 20.3822 31.9158 20.5095C31.8592 20.6368 31.8334 20.776 31.8404 20.9155C31.837 21.1192 31.9101 21.3165 32.0448 21.4672C32.203 21.6385 32.3903 21.7793 32.5978 21.8827C32.8516 22.0136 33.1136 22.1273 33.3821 22.2232C33.6737 22.3288 33.9687 22.4412 34.2736 22.5638C34.5777 22.6827 34.8753 22.8179 35.1652 22.969C35.4476 23.1127 35.7102 23.2936 35.9461 23.5071C36.1715 23.7192 36.3577 23.9706 36.4958 24.2494C36.6367 24.5632 36.7032 24.9061 36.6902 25.2506Z" fill="#545557"/>
<path d="M45.1597 27.362C45.1619 27.4816 45.1541 27.6013 45.1363 27.7196C45.1283 27.801 45.1068 27.8804 45.0726 27.9545C45.0472 28.0065 45.0091 28.0511 44.962 28.0839C44.9187 28.1112 44.8688 28.1254 44.8179 28.1248H39.1201C38.9473 28.1305 38.7772 28.0805 38.6341 27.9818C38.5658 27.9251 38.5121 27.8524 38.4777 27.7699C38.4432 27.6875 38.429 27.5977 38.4364 27.5084V19.1515C38.4284 19.0627 38.4423 18.9732 38.4768 18.8912C38.5114 18.8091 38.5654 18.7371 38.6341 18.6816C38.7772 18.5829 38.9473 18.5328 39.1201 18.5385H44.7743C44.8223 18.5372 44.8697 18.5489 44.9117 18.5726C44.9599 18.6048 44.9973 18.6511 45.019 18.7054C45.0507 18.7804 45.0721 18.8594 45.0827 18.9404C45.1006 19.0621 45.1085 19.1851 45.1061 19.3082C45.1075 19.4221 45.0997 19.536 45.0827 19.6487C45.0721 19.7296 45.0507 19.8087 45.019 19.8837C44.9953 19.9358 44.9582 19.9805 44.9117 20.0131C44.8709 20.0403 44.8231 20.0545 44.7743 20.0539H40.739V22.3935H44.161C44.2118 22.3929 44.2618 22.4071 44.3051 22.4343C44.3518 22.4662 44.3898 22.5096 44.4157 22.5603C44.4497 22.6335 44.4723 22.7117 44.4827 22.7919C44.497 22.9048 44.5037 23.0186 44.5028 23.1325C44.5042 23.252 44.4975 23.3714 44.4827 23.49C44.4714 23.5679 44.4488 23.6436 44.4157 23.7148C44.3917 23.766 44.3532 23.8087 44.3051 23.8374C44.2609 23.862 44.2113 23.8749 44.161 23.8748H40.739V26.5787H44.8179C44.8688 26.5782 44.9187 26.5924 44.962 26.6196C45.0102 26.6512 45.0486 26.6961 45.0726 26.749C45.1064 26.8221 45.1279 26.9003 45.1363 26.9806C45.1551 27.1068 45.1629 27.2344 45.1597 27.362Z" fill="#545557"/>
<path d="M54.7588 26.674C54.7588 26.7966 54.7588 26.9022 54.7588 26.9873C54.7507 27.062 54.7373 27.136 54.7185 27.2087C54.704 27.2656 54.6802 27.3197 54.6481 27.3687C54.608 27.4258 54.5607 27.4774 54.5074 27.5219C54.3919 27.6087 54.2671 27.6819 54.1353 27.7399C53.9187 27.8424 53.6946 27.9277 53.465 27.9953C53.1673 28.0846 52.8638 28.1529 52.5567 28.1996C52.1907 28.2559 51.8209 28.2833 51.4507 28.2814C50.7391 28.2905 50.0303 28.1883 49.3492 27.9783C48.7606 27.7945 48.2177 27.4844 47.7572 27.069C47.3096 26.6538 46.965 26.1369 46.7517 25.5604C46.505 24.8877 46.3856 24.1736 46.3998 23.4559C46.386 22.714 46.517 21.9767 46.7852 21.2866C47.024 20.6813 47.3914 20.1371 47.8611 19.6929C48.3409 19.253 48.9061 18.92 49.5202 18.7155C50.2076 18.4842 50.9277 18.3691 51.6518 18.375C51.9557 18.3736 52.2593 18.3953 52.5601 18.4397C52.8336 18.4827 53.1044 18.5418 53.3712 18.6168C53.6005 18.681 53.8246 18.7629 54.0415 18.8619C54.1887 18.926 54.3282 19.0072 54.4571 19.1037C54.5185 19.1521 54.5737 19.2082 54.6213 19.2706C54.6518 19.3241 54.6754 19.3813 54.6917 19.4409C54.7107 19.5214 54.723 19.6034 54.7286 19.6861C54.7342 19.7995 54.7342 19.9132 54.7286 20.0266C54.7308 20.1528 54.7252 20.2791 54.7118 20.4046C54.7062 20.4915 54.6857 20.5768 54.6515 20.6566C54.629 20.7132 54.592 20.7626 54.5442 20.7996C54.5038 20.8279 54.4559 20.8433 54.4068 20.8439C54.2858 20.8315 54.1702 20.7869 54.0717 20.7145C53.9045 20.6073 53.731 20.5106 53.5522 20.425C53.3082 20.3042 53.0534 20.2073 52.7913 20.1356C52.4472 20.0419 52.0918 19.9983 51.7356 20.0062C51.3232 19.9997 50.9138 20.0785 50.5324 20.2377C50.1852 20.3928 49.877 20.6257 49.6308 20.9188C49.3739 21.2253 49.1822 21.5824 49.0677 21.9677C48.8041 22.8989 48.8041 23.8868 49.0677 24.818C49.1858 25.1988 49.3862 25.5478 49.6542 25.8397C49.9132 26.109 50.2297 26.3141 50.5793 26.439C50.9696 26.5748 51.38 26.6416 51.7926 26.6365C52.1493 26.6425 52.5054 26.6013 52.8517 26.5139C53.1131 26.4437 53.3686 26.3526 53.6158 26.2415C53.8304 26.1427 54.0046 26.0542 54.142 25.9759C54.2424 25.9088 54.3575 25.8678 54.4772 25.8567C54.5259 25.8548 54.5743 25.8653 54.618 25.8873C54.6593 25.9161 54.69 25.958 54.7051 26.0065C54.7329 26.0857 54.7509 26.1681 54.7588 26.2517C54.752 26.3539 54.7588 26.4935 54.7588 26.674Z" fill="#545557"/>
<path d="M65.6515 24.5525C65.6641 25.0945 65.5636 25.633 65.3566 26.1326C65.1532 26.593 64.844 26.9971 64.455 27.3109C64.0175 27.6522 63.5172 27.9011 62.9836 28.0431C62.3278 28.2199 61.6511 28.3047 60.9726 28.2951C60.3268 28.3029 59.6826 28.2274 59.0555 28.0703C58.5377 27.9421 58.05 27.7106 57.621 27.3892C57.2331 27.0891 56.9245 26.696 56.7228 26.245C56.508 25.739 56.4028 25.192 56.4144 24.641V18.8041C56.4137 18.7549 56.4317 18.7073 56.4647 18.6713C56.5176 18.6221 56.5824 18.588 56.6524 18.5726C56.7692 18.5439 56.888 18.5246 57.0077 18.5147C57.1551 18.5147 57.3428 18.4942 57.5674 18.4942C57.792 18.4942 57.9729 18.4942 58.1204 18.5147C58.2335 18.5249 58.3455 18.5443 58.4556 18.5726C58.5253 18.5889 58.5899 18.6229 58.6433 18.6713C58.6618 18.6878 58.6765 18.7083 58.6864 18.7313C58.6962 18.7542 58.7009 18.7791 58.7002 18.8041V24.464C58.6933 24.8021 58.7501 25.1385 58.8678 25.4549C58.9709 25.7172 59.134 25.9507 59.3438 26.136C59.5608 26.3245 59.8143 26.4648 60.0878 26.5481C60.402 26.6433 60.7286 26.6892 61.0564 26.6843C61.3845 26.6887 61.7112 26.6416 62.0251 26.5447C62.2934 26.4609 62.5412 26.3205 62.7524 26.1326C62.9551 25.9447 63.1123 25.7115 63.2115 25.4515C63.324 25.1658 63.3798 24.8602 63.3758 24.5525V18.7633C63.375 18.7141 63.393 18.6665 63.426 18.6305C63.4781 18.5819 63.5416 18.5479 63.6104 18.5317C63.727 18.5022 63.8458 18.4829 63.9656 18.4738C64.1131 18.4738 64.3008 18.4534 64.522 18.4534C64.7432 18.4534 64.9242 18.4534 65.0683 18.4738C65.1814 18.4841 65.2934 18.5035 65.4035 18.5317C65.4723 18.5479 65.5358 18.5819 65.5878 18.6305C65.6208 18.6665 65.6388 18.7141 65.6381 18.7633L65.6515 24.5525Z" fill="#545557"/>
<path d="M76.5141 27.8727C76.5152 27.9208 76.5024 27.9681 76.4772 28.0089C76.4348 28.0582 76.3766 28.0907 76.313 28.1008C76.1868 28.1329 76.0576 28.1512 75.9275 28.1553C75.7566 28.1553 75.5253 28.1553 75.2338 28.1553C74.9422 28.1553 74.7947 28.1553 74.6472 28.1553C74.5337 28.1487 74.4213 28.1293 74.3121 28.0974C74.2448 28.0804 74.1834 28.0451 74.1344 27.9953C74.0962 27.9502 74.0667 27.8982 74.0473 27.842L73.0418 25.7034C72.9178 25.4616 72.8005 25.2437 72.6832 25.0564C72.576 24.8819 72.4451 24.7237 72.2944 24.5864C72.1489 24.4593 71.9804 24.3621 71.7983 24.3004C71.5893 24.233 71.3708 24.2008 71.1515 24.205H70.4342V27.8591C70.4328 27.9091 70.4124 27.9567 70.3773 27.9919C70.323 28.0384 70.2587 28.0711 70.1896 28.0872C70.0738 28.1162 69.9562 28.1367 69.8376 28.1485C69.6935 28.1485 69.5025 28.1689 69.2779 28.1689C69.0534 28.1689 68.8724 28.1689 68.7216 28.1485C68.6086 28.1359 68.4966 28.1154 68.3864 28.0872C68.3174 28.0736 68.2535 28.0406 68.2021 27.9919C68.1678 27.9564 68.1486 27.9087 68.1484 27.8591V19.1514C68.1405 19.0625 68.1544 18.9731 68.1889 18.891C68.2234 18.809 68.2774 18.737 68.3462 18.6814C68.4889 18.5821 68.6593 18.532 68.8322 18.5384H71.7246C72.0229 18.5384 72.2676 18.5384 72.462 18.5384C72.6564 18.5384 72.8273 18.5588 72.9848 18.5759C73.4039 18.6215 73.8165 18.7151 74.2149 18.8551C74.5515 18.9748 74.8655 19.1521 75.1433 19.3795C75.3915 19.5861 75.5908 19.8468 75.7264 20.1423C75.8668 20.4637 75.9355 20.8125 75.9275 21.164C75.9299 21.4631 75.8811 21.7604 75.7834 22.0426C75.6877 22.3043 75.5432 22.5448 75.3578 22.7509C75.1576 22.9668 74.9244 23.1485 74.6673 23.289C74.371 23.4522 74.0558 23.5769 73.7289 23.6602C73.8959 23.7291 74.0563 23.8134 74.2082 23.9122C74.3616 24.015 74.5022 24.1362 74.6271 24.2731C74.7648 24.4217 74.8893 24.5824 74.9991 24.7533C75.1233 24.9503 75.2352 25.1551 75.3343 25.3663L76.2862 27.2529C76.3511 27.3871 76.4093 27.5247 76.4604 27.6649C76.489 27.7309 76.5071 27.801 76.5141 27.8727ZM73.5445 21.3683C73.5536 21.0801 73.4648 20.7976 73.2932 20.568C73.0761 20.3226 72.7827 20.1603 72.462 20.1083C72.3447 20.0845 72.2106 20.064 72.0631 20.047C71.9156 20.03 71.7078 20.0266 71.4464 20.0266H70.4141V22.7509H71.5872C71.8751 22.7565 72.1625 22.7233 72.4419 22.6522C72.6666 22.5935 72.8781 22.4918 73.0653 22.3525C73.2209 22.2409 73.3474 22.0924 73.4339 21.92C73.5113 21.7469 73.5491 21.5583 73.5445 21.3683Z" fill="#545557"/>
<path d="M84.9133 27.362C84.9147 27.4815 84.908 27.601 84.8932 27.7196C84.8827 27.8009 84.8601 27.8801 84.8261 27.9545C84.8007 28.0065 84.7627 28.0511 84.7155 28.0839C84.6723 28.1112 84.6223 28.1254 84.5714 28.1248H78.8737C78.7009 28.1305 78.5307 28.0805 78.3877 27.9818C78.3194 27.9251 78.2657 27.8524 78.2312 27.7699C78.1968 27.6875 78.1826 27.5977 78.1899 27.5084V19.1515C78.182 19.0627 78.1959 18.9732 78.2304 18.8912C78.2649 18.8091 78.319 18.7371 78.3877 18.6816C78.5307 18.5829 78.7009 18.5328 78.8737 18.5385H84.5278C84.5768 18.5377 84.6253 18.5494 84.6686 18.5726C84.7147 18.6062 84.7507 18.6522 84.7725 18.7054C84.8058 18.7798 84.8273 18.8591 84.8362 18.9404C84.8542 19.0621 84.862 19.1851 84.8597 19.3082C84.8611 19.4221 84.8532 19.536 84.8362 19.6487C84.8273 19.7299 84.8058 19.8092 84.7725 19.8837C84.749 19.9349 84.7133 19.9794 84.6686 20.0131C84.6264 20.0399 84.5776 20.054 84.5278 20.0539H80.4958V22.3935H83.9145C83.9654 22.3929 84.0154 22.4071 84.0586 22.4343C84.1061 22.4653 84.1444 22.5088 84.1692 22.5603C84.2032 22.6335 84.2258 22.7117 84.2363 22.7919C84.2505 22.9048 84.2572 23.0186 84.2564 23.1325C84.2578 23.252 84.251 23.3714 84.2363 23.49C84.2249 23.5679 84.2023 23.6436 84.1692 23.7148C84.1462 23.7666 84.1075 23.8096 84.0586 23.8374C84.0145 23.862 83.9649 23.8749 83.9145 23.8748H80.4958V26.5787H84.5714C84.6223 26.5782 84.6723 26.5924 84.7155 26.6196C84.7638 26.6512 84.8021 26.6961 84.8261 26.749C84.8596 26.8224 84.8822 26.9004 84.8932 26.9806C84.9088 27.1071 84.9155 27.2345 84.9133 27.362Z" fill="#545557"/>
</g>
<defs>
<clipPath id="clip0_346_456">
<rect width="91.2847" height="28.8678" fill="white" transform="translate(0 0.898438)"/>
</clipPath>
</defs>
</svg>
