<svg width="72" height="34" viewBox="0 0 72 34" fill="none" xmlns="http://www.w3.org/2000/svg">
<path d="M18.7572 6.28223H26.0359V7.67823H23.2364V15.2167H21.5567V7.67823H18.7572V6.28223ZM25.616 8.65543H27.0158V9.91184C27.0158 9.77224 27.1557 9.63264 27.2957 9.35343C27.4357 9.07423 27.5757 9.07423 27.7156 8.93463C27.8556 8.79503 28.1356 8.65543 28.2755 8.65543C28.4155 8.51583 28.6955 8.51583 28.9754 8.51583C29.1154 8.51583 29.2554 8.51583 29.2554 8.51583H29.3953V9.91184C29.2554 9.91184 29.2554 9.91184 29.1154 9.91184C28.9754 9.91184 28.9754 9.91184 28.8354 9.91184C28.5555 9.91184 28.4155 9.91184 28.1356 10.0514C27.8556 10.191 27.7156 10.3306 27.5757 10.4702C27.4357 10.6098 27.2957 10.889 27.1557 11.1682C27.0158 11.4474 27.0158 11.7266 27.0158 12.1454V15.2167H25.616V8.65543ZM35.9742 15.2167H34.5744V14.3791C34.4345 14.6583 34.1545 14.9375 33.7346 15.2167C33.4546 15.3563 33.0347 15.4959 32.6148 15.4959C31.7749 15.4959 31.215 15.3563 30.7951 14.7979C30.3752 14.2395 30.2352 13.681 30.2352 12.8434V8.79503H31.635V12.7038C31.635 13.2622 31.7749 13.681 31.9149 13.9603C32.1949 14.2395 32.4748 14.3791 32.8947 14.3791C33.1747 14.3791 33.4546 14.3791 33.5946 14.2394C33.7346 14.0998 34.0145 13.9602 34.0145 13.8206C34.1545 13.681 34.2945 13.5414 34.2945 13.2622C34.2945 12.983 34.4345 12.8434 34.4345 12.5642V8.79503H35.8342V15.2167H35.9742ZM38.3538 13.1226C38.3538 13.5414 38.4937 13.8207 38.7737 13.9603C39.0536 14.0999 39.3336 14.2394 39.7535 14.2394C39.8935 14.2394 40.0335 14.2394 40.1735 14.2394C40.3134 14.2394 40.4534 14.2395 40.5934 14.0999C40.7334 14.0999 40.8733 13.9602 41.0133 13.8206C41.1533 13.681 41.1533 13.5414 41.1533 13.4018C41.1533 13.2622 41.0133 13.1226 41.0133 12.983C40.8733 12.8434 40.7334 12.8434 40.5934 12.7038C40.4534 12.7038 40.1735 12.5642 39.8935 12.5642C39.6136 12.5642 39.3336 12.4246 39.1936 12.4246C38.9137 12.4246 38.6337 12.285 38.4937 12.1454C38.3538 12.0058 38.0738 12.0058 37.7939 11.8662C37.6539 11.7266 37.3739 11.587 37.3739 11.3078C37.234 11.0286 37.234 10.7494 37.234 10.4702C37.234 10.0514 37.3739 9.77224 37.5139 9.63264C37.6539 9.49304 37.9338 9.21384 38.2138 9.07424C38.4938 8.93463 38.7737 8.79503 39.0537 8.79503C39.3336 8.79503 39.7535 8.65543 40.0335 8.65543C40.3134 8.65543 40.7334 8.65543 41.0133 8.79503C41.2933 8.79503 41.5732 8.93463 41.8532 9.07424C42.1331 9.21384 42.2731 9.49304 42.4131 9.63264C42.553 9.91184 42.693 10.191 42.693 10.6098H41.1533C41.1533 10.3306 40.8733 10.0514 40.7334 9.91184C40.3134 9.77224 40.0335 9.63264 39.7535 9.63264C39.6136 9.63264 39.4736 9.63264 39.3336 9.63264C39.1936 9.63264 39.0537 9.63264 38.9137 9.77224C38.7737 9.77224 38.6337 9.91184 38.6337 9.91184C38.4937 10.0514 38.4937 10.0514 38.4937 10.191C38.4937 10.3306 38.4937 10.4702 38.6337 10.6098C38.7737 10.7494 38.9137 10.7494 39.0537 10.889C39.1936 10.889 39.4736 11.0286 39.7535 11.0286C40.0335 11.0286 40.3134 11.1682 40.5934 11.1682C40.8733 11.1682 41.1533 11.3078 41.2933 11.4474C41.5732 11.587 41.7132 11.587 41.9931 11.7266C42.2731 11.8662 42.4131 12.0058 42.4131 12.285C42.553 12.5642 42.553 12.7038 42.553 13.1226C42.553 13.5414 42.4131 13.8207 42.2731 14.0999C42.1331 14.3791 41.8532 14.5187 41.5732 14.7979C41.4332 15.0771 41.1533 15.2167 40.8733 15.2167C40.5934 15.2167 40.1735 15.3563 39.8935 15.3563C39.4736 15.3563 39.0536 15.3563 38.7737 15.2167C38.4937 15.0771 38.0738 14.9375 37.9338 14.7979C37.6539 14.6583 37.5139 14.3791 37.3739 14.0999C37.094 13.8207 36.954 13.5414 36.954 13.1226H38.3538ZM43.1129 8.65543H44.2327V6.84063H45.6325V8.79503H46.8923V9.91184H45.6325V13.4018C45.6325 13.5414 45.6325 13.681 45.6325 13.8206C45.6325 13.9602 45.6325 13.9603 45.7725 14.0999C45.9125 14.2395 45.9125 14.2394 45.9125 14.2394C46.0524 14.2394 46.1924 14.2394 46.3324 14.2394C46.4724 14.2394 46.4724 14.2394 46.6123 14.2394C46.7523 14.2394 46.7523 14.2394 46.8923 14.2394V15.2167C46.7523 15.2167 46.6123 15.2167 46.4724 15.2167C46.3324 15.2167 46.1924 15.2167 46.0524 15.2167C45.6325 15.2167 45.3526 15.2167 45.2126 15.0771C44.9326 15.0771 44.7926 14.9375 44.6527 14.7979C44.5127 14.6583 44.3727 14.5187 44.3727 14.2394C44.3727 14.0998 44.2327 13.8206 44.2327 13.5414V9.77224H43.1129V8.65543ZM47.8721 8.65543H49.2719V9.63264C49.4118 9.21384 49.6918 8.93463 50.1117 8.79503C50.5316 8.65543 50.8116 8.51583 51.2315 8.51583C51.7914 8.51583 52.2113 8.65543 52.6313 8.79503C53.0512 8.93463 53.3312 9.21383 53.6111 9.49304C53.8911 9.77224 54.031 10.191 54.171 10.6098C54.311 11.0286 54.311 11.4474 54.311 12.0058C54.311 12.4246 54.311 12.8434 54.171 13.2622C54.031 13.681 53.8911 13.9602 53.6111 14.3791C53.3312 14.6583 53.0512 14.9375 52.7713 15.0771C52.3513 15.2167 52.0714 15.3563 51.5115 15.3563C51.3715 15.3563 51.0915 15.3563 50.9516 15.3563C50.8116 15.3563 50.5316 15.2167 50.3917 15.2167C50.2517 15.0771 49.9717 15.0771 49.8318 14.9375C49.6918 14.7979 49.5518 14.6583 49.4118 14.5187V17.7295H48.0121V8.65543H47.8721ZM52.9112 12.0058C52.9112 11.7266 52.9112 11.4474 52.7713 11.1682C52.6313 10.889 52.6313 10.6098 52.4913 10.4702C52.3513 10.3306 52.2113 10.0514 51.9314 9.91184C51.6514 9.77224 51.5115 9.77224 51.0915 9.77224C50.5316 9.77224 49.9717 9.91184 49.6918 10.3306C49.4118 10.7494 49.2719 11.3078 49.2719 12.0058C49.2719 12.285 49.2719 12.7038 49.4118 12.8434C49.5518 13.1226 49.5518 13.4018 49.8318 13.5414C49.9717 13.681 50.1117 13.9603 50.3917 13.9603C50.6716 14.0999 50.8116 14.0999 51.0915 14.0999C51.3715 14.0999 51.6514 14.0999 51.9314 13.9603C52.2113 13.8207 52.3513 13.681 52.4913 13.4018C52.6313 13.1226 52.7713 12.983 52.7713 12.7038C52.7713 12.5642 52.9112 12.285 52.9112 12.0058ZM55.4308 6.28223H56.8305V7.67823H55.4308V6.28223ZM55.4308 8.65543H56.8305V15.2167H55.4308V8.65543ZM58.0903 6.28223H59.4901V15.2167H58.0903V6.28223ZM63.8293 15.3563C63.2694 15.3563 62.8495 15.2167 62.4296 15.0771C62.0096 14.9375 61.7297 14.6583 61.4497 14.3791C61.1698 14.0998 60.8898 13.681 60.7499 13.2622C60.6099 12.8434 60.4699 12.4246 60.4699 11.8662C60.4699 11.3078 60.6099 10.889 60.7499 10.4702C60.8898 10.0514 61.1698 9.63264 61.4497 9.35343C61.7297 9.07423 62.0096 8.79503 62.4296 8.65543C62.8495 8.51583 63.2694 8.37623 63.8293 8.37623C64.3892 8.37623 64.8091 8.51583 65.2291 8.65543C65.649 8.79503 65.929 9.07423 66.2089 9.35343C66.4889 9.63264 66.7688 10.0514 66.9088 10.4702C67.0488 10.889 67.1887 11.3078 67.1887 11.8662C67.1887 12.4246 67.0488 12.8434 66.9088 13.2622C66.7688 13.681 66.4889 14.0998 66.2089 14.3791C65.929 14.6583 65.649 14.9375 65.2291 15.0771C64.8091 15.2167 64.3892 15.3563 63.8293 15.3563ZM63.8293 14.2394C64.1093 14.2394 64.3892 14.2395 64.6692 14.0999C64.9491 13.9603 65.0891 13.8206 65.2291 13.5414C65.369 13.2622 65.509 13.1226 65.509 12.8434C65.509 12.5642 65.649 12.285 65.649 12.0058C65.649 11.7266 65.649 11.4474 65.509 11.1682C65.509 10.889 65.369 10.6098 65.2291 10.4702C65.0891 10.3306 64.9491 10.0514 64.6692 9.91184C64.3892 9.77224 64.1093 9.77224 63.8293 9.77224C63.5494 9.77224 63.2694 9.77224 62.9895 9.91184C62.7095 10.0514 62.5695 10.191 62.4296 10.4702C62.2896 10.7494 62.1496 10.889 62.1496 11.1682C62.1496 11.4474 62.0096 11.7266 62.0096 12.0058C62.0096 12.285 62.0096 12.5642 62.1496 12.8434C62.1496 13.1226 62.2896 13.4018 62.4296 13.5414C62.5695 13.8206 62.7095 13.9603 62.9895 14.0999C63.2694 14.0999 63.5494 14.2394 63.8293 14.2394ZM67.6087 8.65543H68.7285V6.84063H70.1282V8.79503H71.388V9.91184H70.1282V13.4018C70.1282 13.5414 70.1282 13.681 70.1282 13.8206C70.1282 13.9602 70.1282 13.9603 70.2682 14.0999C70.4082 14.2395 70.4082 14.2394 70.4082 14.2394C70.5481 14.2394 70.6881 14.2394 70.8281 14.2394C70.9681 14.2394 70.9681 14.2394 71.108 14.2394C71.248 14.2394 71.248 14.2394 71.388 14.2394V15.2167C71.248 15.2167 71.108 15.2167 70.9681 15.2167C70.8281 15.2167 70.6881 15.2167 70.5481 15.2167C70.1282 15.2167 69.8483 15.2167 69.7083 15.0771C69.4283 15.0771 69.2884 14.9375 69.1484 14.7979C69.0084 14.6583 68.8684 14.5187 68.8684 14.2394C68.8684 14.0998 68.7285 13.8206 68.7285 13.5414V9.77224H67.6087V8.65543Z" fill="#191919"/>
<path d="M17.0773 6.28202H10.4984L8.53875 0L6.43912 6.28202H0.000244141L5.17934 10.0512L3.21968 16.3332L8.53875 12.4244L13.7178 16.3332L11.7582 10.0512L17.0773 6.28202Z" fill="#00B67A"/>
<path d="M12.1779 11.4473L11.758 10.0513L8.53857 12.4245L12.1779 11.4473Z" fill="#005128"/>
<path d="M13.4378 20.2422H0.00012207V33.6438H13.4378V20.2422Z" fill="#00B67A"/>
<path d="M27.855 20.2422H14.4174V33.6438H27.855V20.2422Z" fill="#00B67A"/>
<path d="M42.4131 20.2422H28.9755V33.6438H42.4131V20.2422Z" fill="#00B67A"/>
<path d="M56.8302 20.2422H43.3926V33.6438H56.8302V20.2422Z" fill="#00B67A"/>
<path d="M71.3876 20.2422H57.95V33.6438H71.3876V20.2422Z" fill="#DCDCE6"/>
<path d="M57.95 20.2422H64.6688V33.5042H57.95V20.2422Z" fill="#00B67A"/>
<path d="M6.57903 29.1764L8.67866 28.618L9.51852 31.2704L6.57903 29.1764ZM11.3382 25.826H7.69884L6.57903 22.4756L5.45923 25.826H1.95984L4.89933 27.92L3.77952 31.2704L6.71901 29.1764L8.53869 27.92L11.3382 25.826Z" fill="white"/>
<path d="M21.1367 29.1764L23.2363 28.618L24.0762 31.2704L21.1367 29.1764ZM25.7559 25.826H22.1165L20.9967 22.4756L19.8769 25.826H16.2375L19.177 27.92L18.0572 31.2704L20.9967 29.1764L22.8164 27.92L25.7559 25.826Z" fill="white"/>
<path d="M35.6941 29.1764L37.7937 28.618L38.6336 31.2704L35.6941 29.1764ZM40.3133 25.826H36.6739L35.5541 22.4756L34.4343 25.826H30.7949L33.7344 27.92L32.7546 31.2704L35.6941 29.1764L37.5137 27.92L40.3133 25.826Z" fill="white"/>
<path d="M50.1115 29.1764L52.2111 28.618L53.0509 31.2704L50.1115 29.1764ZM54.8706 25.826H51.2313L50.1115 22.4756L48.9917 25.826H45.3523L48.2918 27.92L47.172 31.2704L50.1115 29.1764L51.9311 27.92L54.8706 25.826Z" fill="white"/>
<path d="M64.6687 29.1764L66.7683 28.618L67.6082 31.2704L64.6687 29.1764ZM69.2879 25.826H65.6485L64.5287 22.4756L63.5489 25.826H59.9095L62.849 27.92L61.7292 31.2704L64.6687 29.1764L66.4884 27.92L69.2879 25.826Z" fill="white"/>
</svg>
