<svg width="29" height="34" viewBox="0 0 29 34" fill="none" xmlns="http://www.w3.org/2000/svg">
<path d="M0.0524902 9.63086V21.9264C0.0524902 23.9044 1.6028 25.4547 3.52732 25.5616C3.4204 20.2692 7.16253 15.5648 12.5619 14.6025C13.2034 14.4956 13.8449 14.4422 14.4864 14.4422C19.7788 14.4422 24.3228 18.2377 25.2316 23.4767C25.3386 24.1717 25.392 24.8667 25.392 25.5616C27.3165 25.4547 28.8668 23.8509 28.8668 21.9264V9.63086H0.0524902Z" fill="#5FC323"/>
<path d="M10.905 25.3479C10.905 23.4234 12.5088 21.8196 14.4333 21.8196C16.3579 21.8196 17.9616 23.4234 17.9616 25.3479H10.905ZM6.04028 25.3479C6.04028 29.9454 9.78241 33.6875 14.3799 33.6875C16.6252 33.6875 18.71 32.8321 20.3138 31.2284L18.6031 29.5177C17.4805 30.6403 15.9836 31.2818 14.3799 31.2818C11.1189 31.2818 8.44593 28.6089 8.44593 25.3479C8.44593 22.0869 11.1189 19.414 14.3799 19.414C17.6409 19.414 20.3138 22.0869 20.3138 25.3479H22.7195C22.7195 20.7504 18.9773 17.0083 14.3799 17.0083C9.78241 17.0083 6.04028 20.7504 6.04028 25.3479Z" fill="black"/>
<path d="M2.88272 1.7608V6.14578H1.66467V1.7608H0V0.664551H4.54739V1.7608H2.88272Z" fill="black"/>
<path d="M8.48535 6.10526L7.30789 4.35938H6.37406V6.10526H5.15601V0.624023H7.67331C8.97257 0.624023 9.74399 1.31425 9.74399 2.4511C9.74399 3.34434 9.25678 3.87216 8.56655 4.15637L9.90641 6.10526H8.48535ZM8.48535 2.4917C8.48535 1.96388 8.11993 1.72027 7.5515 1.72027H6.37406V3.30374H7.59211C8.16053 3.30374 8.48535 2.97892 8.48535 2.4917Z" fill="black"/>
<path d="M12.9518 6.18646C11.4902 6.18646 10.5969 5.37442 10.5969 3.75035V0.624023H11.815V3.70975C11.815 4.60299 12.2616 5.04961 12.9924 5.04961C13.7233 5.04961 14.1699 4.60299 14.1699 3.75035V0.624023H15.3879V3.70975C15.3473 5.37442 14.4135 6.18646 12.9518 6.18646Z" fill="black"/>
<path d="M18.3521 6.18661C17.4995 6.18661 16.6875 5.9024 16.0378 5.29337L16.7687 4.44073C17.2559 4.84675 17.7837 5.09036 18.3927 5.09036C18.88 5.09036 19.1642 4.88735 19.1642 4.56254C19.1642 4.23772 18.9612 4.11592 18.0679 3.87231C16.9717 3.5881 16.2409 3.26328 16.2409 2.20764C16.2409 1.1926 17.0529 0.542969 18.1491 0.542969C18.9612 0.542969 19.6108 0.786579 20.1792 1.2332L19.5702 2.12643C19.083 1.80162 18.5958 1.59861 18.1491 1.59861C17.7025 1.59861 17.4589 1.80162 17.4589 2.08583C17.4589 2.45125 17.7025 2.57305 18.6364 2.81666C19.7326 3.10088 20.3822 3.50689 20.3822 4.44073C20.3822 5.57758 19.5296 6.18661 18.3521 6.18661Z" fill="black"/>
<path d="M23.4264 1.7608V6.14578H22.2084V1.7608H20.5437V0.664551H25.0911V1.7608H23.4264Z" fill="black"/>
<path d="M28.8679 4.4408H25.9445C26.0663 4.96862 26.4318 5.25283 26.9596 5.25283C27.3656 5.25283 27.6498 5.13102 27.9746 4.80621L28.6649 5.41523C28.2588 5.90245 27.6904 6.18667 26.9596 6.18667C25.7009 6.18667 24.7671 5.29343 24.7671 4.03478C24.7671 2.81673 25.6197 1.84229 26.8378 1.84229C28.2182 1.84229 28.8679 2.93853 28.8679 4.11598C28.8679 4.23779 28.8679 4.31899 28.8679 4.4408ZM26.8378 2.77612C26.3506 2.77612 26.0257 3.14154 25.9445 3.66936H27.731C27.6498 3.14154 27.325 2.77612 26.8378 2.77612Z" fill="black"/>
</svg>
