<svg width="39" height="34" viewBox="0 0 39 34" fill="none" xmlns="http://www.w3.org/2000/svg">
<path fill-rule="evenodd" clip-rule="evenodd" d="M34.799 31.8896H38.124C38.4369 31.8896 38.6907 32.1435 38.6907 32.4564C38.6907 32.7693 38.4369 33.0231 38.124 33.0231H0.566758C0.253861 33.0231 0 32.7693 0 32.4564C0 32.1435 0.253861 31.8896 0.566758 31.8896H4.04288V29.7994C2.49964 29.5299 1.32244 28.1815 1.32244 26.5621C1.32244 24.7496 2.79719 23.2749 4.60964 23.2749C5.11057 23.2749 5.58552 23.3879 6.01118 23.5893V3.55139H5.53711C5.0164 3.55139 4.59251 3.1278 4.59251 2.60679V0.944597C4.59251 0.423593 5.0164 0 5.53711 0H21.2794C21.8004 0 22.224 0.423593 22.224 0.944597V2.60679C22.224 3.1278 21.8004 3.55139 21.2794 3.55139H20.8056V5.13861H33.1536C33.6743 5.13861 34.0982 5.5622 34.0982 6.08321V7.7454C34.0982 8.26641 33.6743 8.69 33.1536 8.69H32.9647V18.9297C32.9647 19.2426 32.7108 19.4965 32.3979 19.4965C32.0847 19.4965 31.8312 19.2426 31.8312 18.9297V8.69H20.8056V11.3352C20.8056 11.6481 20.5518 11.9019 20.2389 11.9019C19.9257 11.9019 19.6721 11.6481 19.6721 11.3352V3.55139H7.1447V24.4716C7.61434 25.0401 7.89683 25.7686 7.89683 26.5621C7.89683 27.3555 7.61434 28.0841 7.1447 28.6526V31.8813H19.6721V14.0178C19.6721 13.7049 19.9257 13.4511 20.2389 13.4511C20.5518 13.4511 20.8056 13.7049 20.8056 14.0178V31.8813H31.8312V28.8037C31.2821 28.216 30.945 27.4279 30.945 26.5621C30.945 25.6963 31.2821 24.9081 31.8312 24.3204V21.6502C31.8312 21.3373 32.085 21.0834 32.3979 21.0834C32.7108 21.0834 32.9647 21.3373 32.9647 21.6502V23.5293C33.3549 23.3655 33.7832 23.2749 34.2322 23.2749C36.0447 23.2749 37.5194 24.7496 37.5194 26.5621C37.5194 28.1812 36.3422 29.5299 34.799 29.7994V31.8896ZM32.9647 7.55648V6.27213H20.8056V7.55648H32.9647ZM5.72603 1.13352V2.41787H21.0905V1.13352H5.72603ZM5.17639 31.8896H6.01118V29.5349C5.74994 29.6583 5.46981 29.748 5.17639 29.7994V31.8896ZM5.17639 27.9223V28.6396C6.0897 28.3902 6.76332 27.5533 6.76332 26.5621C6.76332 25.3745 5.79717 24.4084 4.60964 24.4084C3.4221 24.4084 2.45595 25.3745 2.45595 26.5621C2.45595 27.5533 3.12957 28.3902 4.04288 28.6396V27.9223C4.04288 27.6094 4.29674 27.3555 4.60964 27.3555C4.92253 27.3555 5.17639 27.6094 5.17639 27.9223ZM32.9647 31.8896H33.6655V29.7994C33.4216 29.7569 33.187 29.6881 32.9647 29.5948V31.8896ZM33.6655 27.9223C33.6655 27.6094 33.9193 27.3555 34.2322 27.3555C34.5451 27.3555 34.799 27.6094 34.799 27.9223V28.6396C35.7123 28.3902 36.3859 27.5533 36.3859 26.5621C36.3859 25.3745 35.4197 24.4084 34.2322 24.4084C33.0447 24.4084 32.0785 25.3745 32.0785 26.5621C32.0785 27.5533 32.7521 28.3902 33.6655 28.6396V27.9223ZM10.3457 4.81543H16.4711C16.9918 4.81543 17.4157 5.23932 17.4157 5.76003V10.9966C17.4157 11.5176 16.9918 11.9412 16.4711 11.9412H10.3457C9.82465 11.9412 9.40106 11.5176 9.40106 10.9966V5.76003C9.40106 5.23932 9.82465 4.81543 10.3457 4.81543ZM13.9431 5.94895H12.8733V8.87277H13.9431V5.94895ZM11.7398 5.94895H10.5346V8.87277H11.7398V5.94895ZM10.5346 10.8077H16.2822V10.0063H10.5346V10.8077ZM15.0766 8.87277H16.2822V5.94895H15.0766V8.87277ZM10.3457 21.5908H16.4711C16.9918 21.5908 17.4157 22.0147 17.4157 22.5354V27.772C17.4157 28.293 16.9918 28.7166 16.4711 28.7166H15.7936C15.4807 28.7166 15.2269 28.4628 15.2269 28.1499C15.2269 27.837 15.4807 27.5831 15.7936 27.5831H16.2822V26.782H10.5346V27.5831H13.111C13.4239 27.5831 13.6777 27.837 13.6777 28.1499C13.6777 28.4628 13.4239 28.7166 13.111 28.7166H10.3457C9.82465 28.7166 9.40106 28.293 9.40106 27.772V22.5354C9.40106 22.0147 9.82465 21.5908 10.3457 21.5908ZM10.5346 25.6485H11.7398V22.7243H10.5346V25.6485ZM12.8736 25.6485H13.9431V22.7243H12.8736V25.6485ZM15.0766 25.6485H16.2822V22.7243H15.0766V25.6485ZM16.4711 13.2031H10.3457C9.82465 13.2031 9.40106 13.6267 9.40106 14.1477V19.3843C9.40106 19.905 9.82465 20.3289 10.3457 20.3289H16.4711C16.9918 20.3289 17.4157 19.905 17.4157 19.3843V14.1477C17.4157 13.6267 16.9918 13.2031 16.4711 13.2031ZM12.8733 14.3366H13.9431V17.2605H12.8733V14.3366ZM10.5346 14.3366H11.7398V17.2605H10.5346V14.3366ZM16.2822 19.1954H10.5346V18.394H16.2822V19.1954ZM16.2822 17.2605H15.0766V14.3366H16.2822V17.2605ZM23.0275 9.67578H24.69C25.2107 9.67578 25.6346 10.0994 25.6346 10.6204V13.262C25.6346 13.783 25.2107 14.2066 24.69 14.2066H23.0275C22.5065 14.2066 22.0829 13.783 22.0829 13.262V10.6204C22.0829 10.0994 22.5065 9.67578 23.0275 9.67578ZM23.2164 13.0731H24.5011V10.8093H23.2164V13.0731ZM29.2998 9.67578H27.6373C27.1163 9.67578 26.6927 10.0994 26.6927 10.6204V13.262C26.6927 13.783 27.1163 14.2066 27.6373 14.2066H29.2998C29.8205 14.2066 30.2444 13.783 30.2444 13.262V10.6204C30.2444 10.0994 29.8205 9.67578 29.2998 9.67578ZM29.1109 13.0731H27.8262V10.8093H29.1109V13.0731ZM23.0275 14.9619H24.69C25.2107 14.9619 25.6346 15.3855 25.6346 15.9065V18.5481C25.6346 19.0691 25.2107 19.4927 24.69 19.4927H23.0275C22.5065 19.4927 22.0829 19.0691 22.0829 18.5481V15.9065C22.0829 15.3855 22.5065 14.9619 23.0275 14.9619ZM23.2164 18.3592H24.5011V16.0954H23.2164V18.3592ZM29.2998 14.9619H27.6373C27.1163 14.9619 26.6927 15.3855 26.6927 15.9065V18.5481C26.6927 19.0691 27.1163 19.4927 27.6373 19.4927H29.2998C29.8205 19.4927 30.2444 19.0691 30.2444 18.5481V15.9065C30.2444 15.3855 29.8205 14.9619 29.2998 14.9619ZM29.1109 18.3592H27.8262V16.0954H29.1109V18.3592ZM23.0275 20.2492H24.69C25.2107 20.2492 25.6346 20.673 25.6346 21.1938V23.8354C25.6346 24.3564 25.2107 24.78 24.69 24.78H23.0275C22.5065 24.78 22.0829 24.3564 22.0829 23.8354V21.1938C22.0829 20.673 22.5065 20.2492 23.0275 20.2492ZM23.2164 23.6465H24.5011V21.3827H23.2164V23.6465ZM29.2998 20.2492H27.6373C27.1163 20.2492 26.6927 20.673 26.6927 21.1938V23.8354C26.6927 24.3564 27.1163 24.78 27.6373 24.78H29.2998C29.8205 24.78 30.2443 24.3564 30.2443 23.8354V21.1938C30.2443 20.673 29.8205 20.2492 29.2998 20.2492ZM29.1108 23.6465H27.8262V21.3827H29.1108V23.6465ZM23.0275 25.5353H24.69C25.2107 25.5353 25.6346 25.9592 25.6346 26.4799V29.1218C25.6346 29.6425 25.2107 30.0664 24.69 30.0664H23.0275C22.5065 30.0664 22.0829 29.6425 22.0829 29.1218V26.4799C22.0829 25.9592 22.5065 25.5353 23.0275 25.5353ZM23.2164 28.9329H24.5011V26.6688H23.2164V28.9329ZM29.2998 25.5353H27.6373C27.1163 25.5353 26.6927 25.9592 26.6927 26.4799V29.1218C26.6927 29.6425 27.1163 30.0664 27.6373 30.0664H29.2998C29.8205 30.0664 30.2443 29.6425 30.2443 29.1218V26.4799C30.2443 25.9592 29.8205 25.5353 29.2998 25.5353ZM29.1108 28.9329H27.8262V26.6688H29.1108V28.9329Z" fill="#263238"/>
</svg>
