<svg width="15" height="15" viewBox="0 0 15 15" fill="none" xmlns="http://www.w3.org/2000/svg">
<g clip-path="url(#clip0_214_552)">
<path d="M11.9511 11.4963L14.4004 9.0469C14.7982 8.63011 15.0201 8.07614 15.0201 7.50002C15.0201 6.92391 14.7982 6.36994 14.4004 5.95315L11.9511 3.50377C11.7753 3.3279 11.5368 3.22906 11.2882 3.229C11.0395 3.22895 10.801 3.32767 10.6251 3.50346C10.4492 3.67925 10.3504 3.9177 10.3504 4.16636C10.3503 4.41502 10.449 4.65353 10.6248 4.8294L12.3623 6.56752L0.956055 6.5819C0.707414 6.5819 0.468957 6.68067 0.293142 6.85649C0.117327 7.0323 0.0185547 7.27076 0.0185547 7.5194C0.0185547 7.76804 0.117327 8.0065 0.293142 8.18231C0.468957 8.35813 0.707414 8.4569 0.956055 8.4569L12.3504 8.44252L10.6248 10.1707C10.454 10.3475 10.3595 10.5843 10.3617 10.8301C10.3638 11.0759 10.4624 11.311 10.6362 11.4849C10.81 11.6587 11.0452 11.7573 11.291 11.7594C11.5368 11.7615 11.7736 11.667 11.9504 11.4963H11.9511Z" fill="white"/>
</g>
<defs>
<clipPath id="clip0_214_552">
<rect width="15" height="15" fill="white"/>
</clipPath>
</defs>
</svg>
