<svg width="38" height="53" viewBox="0 0 38 53" fill="none" xmlns="http://www.w3.org/2000/svg">
<path fill-rule="evenodd" clip-rule="evenodd" d="M19.0305 51.2446C21.7632 51.2157 24.3237 50.5909 26.6399 49.3878C27.0127 49.1941 27.4722 49.3393 27.6662 49.7125C27.86 50.0854 27.7147 50.5448 27.3417 50.7385C24.8116 52.0528 22.0207 52.7351 19.0461 52.7668C9.81241 52.7654 2.20169 45.8873 1.11121 35.6424C0.634916 31.8366 1.04586 27.8195 2.29981 24.0271C3.56116 20.2128 5.61244 16.8201 8.23194 14.2159C8.4985 13.9496 8.89818 13.8684 9.24916 14.011C9.59993 14.1535 9.82976 14.4906 9.83473 14.8695C9.84508 15.8553 9.99505 17.338 10.6502 18.8155C10.7709 19.0879 10.904 19.3488 11.0457 19.591C11.1072 19.6976 11.1709 19.8018 11.2364 19.9036C11.3494 19.5113 11.4709 19.1305 11.6027 18.7552C12.0947 17.3478 12.7219 16.0564 13.4665 14.9177C14.374 13.5306 15.1683 12.7949 15.9364 12.0834L15.9368 12.083L15.9371 12.0827C16.414 11.6411 16.8645 11.2239 17.3246 10.659C18.94 8.67578 19.9808 5.67385 20.4185 1.73648C20.4639 1.33558 20.7285 1.00652 21.1093 0.876027C21.4891 0.746046 21.8987 0.843253 22.1783 1.1299C22.9257 1.89233 23.7618 2.87221 24.3459 3.63119C26.8222 6.84712 28.7066 10.6904 29.7952 14.7456C29.9042 15.1515 29.6635 15.569 29.2576 15.6779C28.852 15.7868 28.4342 15.5462 28.3253 15.1402C27.2881 11.277 25.4949 7.61849 23.1398 4.55993C22.705 3.99719 22.1607 3.35013 21.7982 2.94993C21.2628 6.67838 20.1566 9.59204 18.5046 11.6201C17.9779 12.2669 17.4672 12.74 16.9735 13.1973L16.9735 13.1974L16.9709 13.1997L16.9702 13.2004C16.2375 13.8792 15.5452 14.5204 14.7402 15.7509C14.0631 16.7862 13.4907 17.9664 13.039 19.2585C12.8158 19.8944 12.624 20.5481 12.4525 21.2579C12.3596 21.6372 12.068 21.9272 11.691 22.0173C11.3153 22.1074 10.9255 21.9808 10.6738 21.6876C10.326 21.2862 10.0076 20.8372 9.72961 20.3559C9.56138 20.0685 9.40227 19.7564 9.25859 19.4323C8.76373 18.3162 8.51727 17.2047 8.40231 16.254C4.01716 21.2258 1.76446 28.6091 2.62146 35.455C3.55273 44.1411 9.7152 51.1811 19.0305 51.2446ZM35.1785 19.7664C35.1822 19.7739 35.1857 19.7813 35.1891 19.7889C37.2333 24.3335 37.7759 29.9448 36.8481 36.9437C36.182 41.6425 33.9059 45.8101 30.4377 48.6856C30.2958 48.8035 30.1236 48.8609 29.9524 48.8609C29.7337 48.8609 29.5167 48.7671 29.3662 48.5856C29.0979 48.262 29.1428 47.7823 29.4663 47.514C32.6423 44.8807 34.7285 41.0533 35.3403 36.7369C36.1357 30.7346 35.8152 25.8235 34.3579 21.7902C33.6187 23.274 32.3058 24.9491 31.0999 25.5925C30.791 25.7774 30.4051 25.7942 30.0807 25.6341C29.7411 25.4664 29.5145 25.1273 29.4895 24.7491C29.4418 24.0239 29.3566 22.6639 29.3223 21.7014C29.2849 20.6205 29.1814 19.5169 29.0144 18.4204C28.9512 18.0048 29.2368 17.6168 29.6523 17.5535C30.067 17.4912 30.4559 17.7757 30.5192 18.1913C30.6949 19.3459 30.8039 20.5088 30.8433 21.6478C30.8665 22.2995 30.914 23.143 30.9566 23.8383C31.995 22.9309 33.1998 21.1116 33.4126 20.0009C33.4928 19.6 33.8142 19.2997 34.2138 19.2479C34.6127 19.1963 35.0013 19.4045 35.1785 19.7664ZM10.2932 11.6073C10.4067 11.7788 10.5849 11.897 10.7871 11.935C10.8338 11.9438 10.8809 11.9481 10.9278 11.9481C11.0836 11.9481 11.2371 11.9001 11.3663 11.809C11.4784 11.73 14.1189 9.83861 14.6703 6.91653C15.2217 3.99384 13.4504 1.2752 13.3747 1.16085C13.2611 0.989368 13.0829 0.871158 12.8807 0.833107C12.679 0.795564 12.4696 0.840616 12.3015 0.959131C12.2412 1.00165 10.8131 2.01998 9.82855 3.69451C9.61547 4.05685 9.73652 4.5232 10.0988 4.73628C10.4612 4.94947 10.9275 4.82831 11.1405 4.46607C11.5659 3.74261 12.1015 3.15855 12.5168 2.76506C12.927 3.63677 13.4575 5.13526 13.1746 6.63435C12.8914 8.13557 11.8487 9.34101 11.149 10.0042C10.8632 9.39885 10.5197 8.48817 10.4334 7.47531C10.3978 7.05656 10.0297 6.74606 9.6107 6.78158C9.19194 6.81719 8.88135 7.18552 8.91696 7.60428C9.10255 9.78696 10.2446 11.5339 10.2932 11.6073ZM34.4652 16.7338C34.283 16.7338 34.1007 16.6687 33.9557 16.5381C33.8646 16.456 31.7231 14.4972 31.6854 11.9545C31.6475 9.41118 33.7304 7.39471 33.8191 7.31008C34.107 7.03531 34.5581 7.02871 34.8539 7.29537C34.9449 7.37756 37.0864 9.3363 37.1242 11.8791C37.1622 14.4223 35.0793 16.4389 34.9906 16.5235C34.8437 16.6635 34.6545 16.7338 34.4652 16.7338ZM35.6023 11.9016C35.5846 10.7144 34.8739 9.63076 34.3591 8.99953C33.8641 9.64162 33.1894 10.7387 33.2071 11.9318C33.2247 13.1189 33.9355 14.2026 34.4503 14.8338C34.9454 14.1918 35.6201 13.0949 35.6023 11.9016ZM29.9548 28.1161C26.3477 22.0928 18.5125 20.1269 12.4887 23.7339C10.4771 24.9386 8.84118 26.6707 7.75801 28.743C7.56329 29.1155 7.70738 29.5752 8.07987 29.7699C8.45246 29.9647 8.91211 29.8207 9.10683 29.4481C10.06 27.6245 11.4999 26.1001 13.2707 25.0397C18.5744 21.8637 25.4729 23.5945 28.649 28.898C31.825 34.2016 30.0942 41.1002 24.7907 44.2762C19.4873 47.4523 12.5885 45.7215 9.41235 40.418C8.02508 38.1015 7.52271 35.3595 7.99788 32.6972C8.07175 32.2835 7.79616 31.8882 7.38238 31.8143C6.9693 31.7413 6.57337 32.0161 6.4995 32.4298C5.96 35.4537 6.53075 38.5684 8.10666 41.2C10.4902 45.1801 14.7189 47.3886 19.0519 47.3883C21.2765 47.3881 23.5293 46.8057 25.5728 45.582C28.4863 43.8373 30.5472 41.0576 31.3757 37.7552C32.2041 34.4529 31.6996 31.0297 29.9548 28.1161ZM19.7917 25.3245V26.8465C19.7917 27.2669 19.451 27.6075 19.0307 27.6075C18.6103 27.6075 18.2697 27.2669 18.2697 26.8465V25.3245C18.2697 24.9041 18.6103 24.5635 19.0307 24.5635C19.451 24.5635 19.7917 24.9041 19.7917 25.3245ZM11.2188 35.4185C11.6391 35.4185 11.9798 35.0779 11.9798 34.6575C11.9798 34.2371 11.6391 33.8965 11.2188 33.8965H9.69674C9.27636 33.8965 8.93573 34.2371 8.93573 34.6575C8.93573 35.0779 9.27636 35.4185 9.69674 35.4185H11.2188ZM18.2696 43.9919V42.4698C18.2696 42.0495 18.6103 41.7088 19.0306 41.7088C19.451 41.7088 19.7917 42.0495 19.7917 42.4698V43.9919C19.7917 44.4122 19.451 44.7529 19.0306 44.7529C18.6103 44.7529 18.2696 44.4122 18.2696 43.9919ZM28.3643 35.4185C28.7847 35.4185 29.1253 35.0779 29.1253 34.6575C29.1253 34.2371 28.7847 33.8965 28.3643 33.8965H26.8423C26.4219 33.8965 26.0813 34.2371 26.0813 34.6575C26.0813 35.0779 26.4219 35.4185 26.8423 35.4185H28.3643ZM15.2257 30.8527C15.5229 30.5556 16.0046 30.5556 16.3019 30.8527L18.0474 32.5981C18.3454 32.4552 18.679 32.375 19.031 32.375C19.383 32.375 19.7167 32.4553 20.0147 32.5981L24.3645 28.2483C24.6617 27.9512 25.1435 27.9512 25.4408 28.2483C25.738 28.5455 25.738 29.0273 25.4408 29.3246L21.0909 33.6744C21.2339 33.9724 21.3141 34.306 21.3141 34.658C21.3141 35.9169 20.2898 36.9411 19.031 36.9411C17.7722 36.9411 16.748 35.9169 16.748 34.658C16.748 34.306 16.8283 33.9724 16.9711 33.6744L15.2257 31.929C14.9285 31.6318 14.9285 31.15 15.2257 30.8527ZM19.0309 35.4191C19.4506 35.4191 19.7919 35.0777 19.7919 34.658C19.7919 34.2385 19.4506 33.897 19.0309 33.897C18.6113 33.897 18.2699 34.2384 18.2699 34.658C18.2699 35.0777 18.6113 35.4191 19.0309 35.4191Z" fill="#263238"/>
</svg>
