<svg width="32" height="53" viewBox="0 0 32 53" fill="none" xmlns="http://www.w3.org/2000/svg">
<path fill-rule="evenodd" clip-rule="evenodd" d="M26.3425 20.6346C24.6951 22.8023 22.3565 24.4166 19.7574 25.1798C19.0448 25.389 18.547 26.0525 18.547 26.793C18.547 27.5336 19.0449 28.197 19.7575 28.4064C22.3566 29.1697 24.6952 30.7839 26.3426 32.9516C28.0453 35.1922 28.9453 37.8678 28.9453 40.6892V43.0063C28.9453 43.4267 28.6047 43.7673 28.1844 43.7673C27.764 43.7673 27.4234 43.4267 27.4234 43.0063V40.6892C27.4234 38.2032 26.6306 35.8459 25.1307 33.8724C23.6786 31.9616 21.618 30.539 19.3285 29.8667C17.9722 29.4683 17.025 28.2045 17.025 26.793C17.025 25.3817 17.9722 24.1179 19.3285 23.7195C21.6181 23.0471 23.6786 21.6246 25.1307 19.7138C26.6307 17.7402 27.4234 15.383 27.4234 12.897V6.59006H4.86525V12.897C4.86525 15.3827 5.65795 17.7398 7.15743 19.7132C8.60921 21.6238 10.6694 23.0464 12.9585 23.7191C14.3145 24.1175 15.2616 25.3813 15.2616 26.7924C15.2616 28.2049 14.3145 29.4686 12.9585 29.8671C10.6694 30.5396 8.60921 31.9624 7.15743 33.873C5.65795 35.8465 4.86525 38.2035 4.86525 40.6892V46.9961H10.4439C10.7846 44.4321 12.8194 42.3972 15.3834 42.0566V39.2081C15.3834 38.7877 15.724 38.4471 16.1443 38.4471C16.5647 38.4471 16.9053 38.7877 16.9053 39.2081V42.0566C19.4693 42.3972 21.504 44.4321 21.8447 46.9961H27.4234V46.1285C27.4234 45.7082 27.764 45.3676 28.1844 45.3676C28.6047 45.3676 28.9453 45.7082 28.9453 46.1285V47.1818C30.5293 47.6879 31.6797 49.1733 31.6797 50.923V52.0058C31.6797 52.4262 31.3391 52.7668 30.9187 52.7668H1.36996C0.949609 52.7668 0.609009 52.4262 0.609009 52.0058V50.923C0.609009 49.1733 1.75936 47.6879 3.34335 47.1818V40.6892C3.34335 37.8681 4.2432 35.1927 5.94559 32.9523C7.59259 30.7848 9.93083 29.1706 12.5294 28.407C13.2421 28.1976 13.7397 27.5342 13.7397 26.7938C13.7397 26.0521 13.242 25.3886 12.5294 25.1793C9.93073 24.4156 7.59249 22.8014 5.94559 20.6339C4.2432 18.3935 3.34335 15.7181 3.34335 12.897V6.40439C1.75936 5.89831 0.609009 4.41284 0.609009 2.66316V1.58028C0.609009 1.15994 0.949609 0.819336 1.36996 0.819336H30.9186C31.3389 0.819336 31.6795 1.15994 31.6795 1.58028V2.66316C31.6795 4.41284 30.5292 5.89831 28.9452 6.40439V12.897C28.9452 15.7184 28.0452 18.3941 26.3425 20.6346ZM20.3022 46.9741C19.9341 45.0141 18.2096 43.5266 16.1443 43.5266C14.079 43.5266 12.3546 45.0141 11.9865 46.9741H20.3022ZM30.1578 50.923C30.1578 49.5969 29.0788 48.518 27.7527 48.518H4.53591C3.20983 48.518 2.13091 49.5969 2.13091 50.923V51.2449H30.1578V50.923ZM2.13091 2.66316C2.13091 3.98924 3.20983 5.06817 4.53591 5.06817H27.7527C29.0788 5.06817 30.1578 3.98924 30.1578 2.66316V2.34123H2.13091V2.66316ZM25.9255 13.0599C25.8946 18.1699 21.9249 22.3633 16.9054 22.7514V24.0691C16.9054 24.4895 16.5648 24.8301 16.1445 24.8301C15.7241 24.8301 15.3835 24.4895 15.3835 24.0691V22.7509C12.658 22.5422 10.1641 21.2177 8.45333 19.0434C8.1936 18.7132 8.25062 18.2348 8.58087 17.9748C8.91102 17.7152 9.3894 17.772 9.64944 18.1024C11.2279 20.1083 13.5952 21.2589 16.1445 21.2589C20.6703 21.2589 24.3577 17.5998 24.4034 13.0847C24.2122 11.7892 21.9173 11.0494 21.0925 10.9254C19.6788 10.7126 18.5092 11.4395 17.0286 12.3596C15.4125 13.364 13.5807 14.5023 10.9971 14.5727C9.98832 14.6011 8.97301 14.4602 7.96531 14.1558C8.02182 14.5598 8.10807 14.9584 8.22373 15.3487C8.34295 15.7516 8.11314 16.175 7.71014 16.2945C7.30704 16.4135 6.88385 16.1838 6.76443 15.7809C6.50338 14.8992 6.36843 13.9824 6.36336 13.0548L6.36317 13.0456L6.36316 13.0396V12.9999C6.36316 12.5795 6.70376 12.2389 7.12411 12.2389C7.31262 12.2389 7.4851 12.3075 7.61812 12.421C8.7293 12.8695 9.85084 13.0824 10.9557 13.0514C13.1273 12.9921 14.7022 12.0135 16.2254 11.0669C17.8327 10.0681 19.3507 9.1247 21.3186 9.42035C22.4817 9.59517 25.5156 10.5397 25.8991 12.7997C25.9165 12.8634 25.9257 12.9306 25.9257 12.9999V13.0278L25.9258 13.0396C25.9258 13.0464 25.9257 13.0532 25.9255 13.0599ZM16.9053 29.8784C16.9053 29.458 16.5647 29.1174 16.1444 29.1174C15.724 29.1174 15.3834 29.458 15.3834 29.8784V31.1893C15.3834 31.6097 15.724 31.9503 16.1444 31.9503C16.5647 31.9503 16.9053 31.6097 16.9053 31.1893V29.8784ZM15.3834 33.9561C15.3834 33.5357 15.724 33.1951 16.1444 33.1951C16.5647 33.1951 16.9053 33.5357 16.9053 33.9561V34.2409C16.9053 34.6612 16.5647 35.0018 16.1444 35.0018C15.724 35.0018 15.3834 34.6612 15.3834 34.2409V33.9561Z" fill="#263238"/>
</svg>
