<svg width="46" height="34" viewBox="0 0 46 34" fill="none" xmlns="http://www.w3.org/2000/svg">
<path fill-rule="evenodd" clip-rule="evenodd" d="M41.5294 31.6956H44.6494C45.0159 31.6956 45.3132 31.9929 45.3132 32.3594C45.3132 32.7262 45.0159 33.0231 44.6494 33.0231H0.663768C0.297313 33.0231 0 32.7262 0 32.3594C0 31.9929 0.297313 31.6956 0.663768 31.6956H1.35312V30.4369C1.35312 29.827 1.84956 29.3306 2.4594 29.3306H2.74115C2.71419 29.1556 2.69932 28.9769 2.69932 28.7947C2.69932 27.8001 3.11625 26.9023 3.78382 26.2638V12.1041H1.10628C0.746393 12.1041 0.438363 11.9347 0.281756 11.6508C0.125494 11.367 0.146928 11.0161 0.339144 10.7115L5.76856 2.12129C6.01885 1.72545 6.54019 1.43816 7.00863 1.43816H20.9865L21.8632 0.380629C22.0637 0.138631 22.3527 0 22.6566 0C22.9601 0 23.2495 0.138631 23.45 0.380629L24.3267 1.43816H38.3046C38.7727 1.43816 39.2944 1.72545 39.5443 2.12129L44.9741 10.7115C45.1663 11.0158 45.1877 11.367 45.0314 11.6508C44.8748 11.9347 44.5668 12.1041 44.2069 12.1041H41.5294V31.6956ZM30.0752 8.37211H41.9249L41.2535 7.31009H29.1951L30.0752 8.37211ZM40.4145 5.98255L39.7431 4.92052H27.2138L28.0943 5.98255H40.4145ZM38.4259 2.83657C38.4014 2.80926 38.334 2.77192 38.2977 2.7657H25.4275L26.113 3.59299H38.904L38.4259 2.83657ZM10.0008 4.92052H5.57012L4.89874 5.98255H17.2189L18.0994 4.92052H13.0983C12.7319 4.92052 12.4346 4.62321 12.4346 4.25675C12.4346 3.88995 12.7319 3.59299 13.0983 3.59299H19.1998L19.8857 2.7657H7.01519C6.97924 2.77192 6.91183 2.80926 6.88728 2.83622L6.40881 3.59299H10.0008C10.3672 3.59299 10.6645 3.88995 10.6645 4.25675C10.6645 4.62321 10.3672 4.92052 10.0008 4.92052ZM16.1181 7.31009H4.0597L3.38833 8.37211H15.2376L16.1181 7.31009ZM2.54928 9.69965L1.86858 10.7765H13.2442L14.1372 9.69965H2.54928ZM12.9822 24.8055C13.591 24.8055 14.1687 24.9691 14.6713 25.2557V13.5312H12.8152C12.437 13.5312 12.1266 13.3511 11.9848 13.0496C11.8434 12.7485 11.9025 12.3952 12.1435 12.1041H5.11136V25.4662C5.45499 25.3532 5.8218 25.2909 6.20277 25.2909C7.22297 25.2909 8.1799 25.7462 8.83502 26.4899C9.06285 26.4256 9.30277 26.3906 9.55065 26.3906C9.72316 26.3906 9.8929 26.4069 10.0588 26.4394C10.6777 25.4423 11.7864 24.8055 12.9822 24.8055ZM4.09496 29.3306H6.92427C6.91321 29.2338 6.90699 29.1352 6.90699 29.0353C6.90699 28.3163 7.19566 27.6635 7.66306 27.1861C7.26929 26.8304 6.75072 26.6185 6.20277 26.6185C5.00315 26.6185 4.02686 27.5948 4.02686 28.7947C4.02686 28.9797 4.0514 29.1591 4.09496 29.3306ZM2.68065 31.6956H14.6713V30.6581H2.68065V31.6956ZM8.26909 29.3306H14.6717V26.987C14.2835 26.4677 13.6646 26.1331 12.9825 26.1331C12.1183 26.1331 11.3276 26.6755 11.0161 27.4831C10.9494 27.6553 10.8146 27.7922 10.6431 27.8606C10.4716 27.9287 10.2798 27.9232 10.1128 27.844C9.93612 27.7607 9.74701 27.7182 9.55065 27.7182C8.825 27.7182 8.23452 28.309 8.23452 29.0353C8.23452 29.137 8.24697 29.2358 8.26909 29.3306ZM22.6566 1.5035L13.7856 12.2036H14.9562L22.1456 3.53249C22.2715 3.38037 22.4589 3.29222 22.6566 3.29222C22.854 3.29222 23.0414 3.38037 23.1676 3.53214L30.357 12.2036H31.5276L22.6566 1.5035ZM19.846 21.3937V31.6956H25.4672V21.3937H19.846ZM30.6419 31.6956H40.2019V12.1041H38.941C38.5746 12.1041 38.2773 11.8071 38.2773 11.4403C38.2773 11.0739 38.5746 10.7765 38.941 10.7765H43.4446L42.7639 9.69965H31.176L32.069 10.7765H35.755C36.1214 10.7765 36.4187 11.0739 36.4187 11.4403C36.4187 11.8071 36.1214 12.1041 35.755 12.1041H33.1697C33.4103 12.3952 33.4698 12.7485 33.3281 13.0496C33.1863 13.3511 32.8759 13.5312 32.4977 13.5312H30.6419V20.5384C30.6419 20.9052 30.3446 21.2022 29.9781 21.2022C29.6116 21.2022 29.3143 20.9052 29.3143 20.5384V13.0261L22.6566 4.99589L15.9989 13.0261V31.6956H18.5184V21.1725C18.5184 20.5626 19.0145 20.0662 19.6247 20.0662H25.6885C26.2987 20.0662 26.7948 20.5626 26.7948 21.1725V31.6956H29.3143V23.6803C29.3143 23.3138 29.6116 23.0165 29.9781 23.0165C30.3446 23.0165 30.6419 23.3138 30.6419 23.6803V31.6956ZM22.946 9.8418H22.3673C20.9312 9.8418 19.763 11.0103 19.763 12.4464V14.9694C19.763 15.4959 20.1913 15.9243 20.7179 15.9243H24.5954C25.1219 15.9243 25.5502 15.4959 25.5502 14.9694V12.4464C25.5502 11.0103 24.3821 9.8418 22.946 9.8418ZM21.0902 14.5967V12.4464C21.0902 11.7422 21.663 11.1693 22.3673 11.1693H22.946C23.6498 11.1693 24.2227 11.7422 24.2227 12.4464V14.5967H21.0902ZM11.2481 15.1838H8.66492C8.05508 15.1838 7.55864 15.6799 7.55864 16.2901V22.9534C7.55864 23.5636 8.05508 24.0597 8.66492 24.0597H11.2481C11.8579 24.0597 12.3544 23.5636 12.3544 22.9534V16.2901C12.3544 15.6799 11.8579 15.1838 11.2481 15.1838ZM11.0268 22.7321H8.88617V16.5114H11.0268V22.7321ZM20.8866 25.0664C20.5202 25.0664 20.2228 25.3634 20.2228 25.7302V27.0722C20.2228 27.439 20.5202 27.736 20.8866 27.736C21.2531 27.736 21.5504 27.439 21.5504 27.0722V25.7302C21.5504 25.3634 21.2531 25.0664 20.8866 25.0664ZM34.0651 15.1838H36.6482C37.2581 15.1838 37.7545 15.6799 37.7545 16.2901V22.9534C37.7545 23.5636 37.2581 24.0597 36.6482 24.0597H34.0651C33.4552 24.0597 32.9588 23.5636 32.9588 22.9534V16.2901C32.9588 15.6799 33.4552 15.1838 34.0651 15.1838ZM34.2863 22.7321H36.427V16.5114H34.2863V22.7321Z" fill="#263238"/>
</svg>
