<svg width="124" height="35" viewBox="0 0 124 35" fill="none" xmlns="http://www.w3.org/2000/svg">
<g opacity="0.5">
<path d="M42.7463 22.0003V9.16626H40.6327V22.0003H42.7463Z" fill="black"/>
<path d="M44.0399 17.7221C44.0399 20.3441 45.807 22.2071 48.4924 22.2071C51.1777 22.2071 52.9448 20.3441 52.9448 17.7221C52.9448 15.1001 51.1777 13.2371 48.4924 13.2371C45.807 13.2371 44.0399 15.1001 44.0399 17.7221ZM46.1709 17.7221C46.1709 16.1868 47.0891 15.1173 48.4924 15.1173C49.8957 15.1173 50.8139 16.1868 50.8139 17.7221C50.8139 19.2401 49.8957 20.3268 48.4924 20.3268C47.0891 20.3268 46.1709 19.2401 46.1709 17.7221Z" fill="black"/>
<path d="M53.6553 17.5491C53.6553 20.0331 55.2665 21.8271 57.6746 21.8271C58.922 21.8271 59.9961 21.3269 60.5332 20.4989V21.9479C60.5332 23.3451 59.6496 24.2766 58.177 24.2766C56.8603 24.2766 55.9595 23.6384 55.8382 22.5171H53.7072C53.9844 24.7424 55.6996 26.1914 58.0557 26.1914C60.8277 26.1914 62.5948 24.3801 62.5948 21.5684V13.4781H60.7237L60.6025 14.6339C60.0827 13.7369 59.0086 13.2021 57.7439 13.2021C55.3011 13.2021 53.6553 15.0479 53.6553 17.5491ZM55.8035 17.4974C55.8035 16.0829 56.7044 15.0479 58.0384 15.0479C59.4937 15.0479 60.4639 16.1001 60.4639 17.4974C60.4639 18.9119 59.4937 19.9986 58.0384 19.9986C56.7217 19.9986 55.8035 18.9291 55.8035 17.4974Z" fill="black"/>
<path d="M63.6416 17.7221C63.6416 20.3441 65.4087 22.2071 68.094 22.2071C70.7794 22.2071 72.5465 20.3441 72.5465 17.7221C72.5465 15.1001 70.7794 13.2371 68.094 13.2371C65.4087 13.2371 63.6416 15.1001 63.6416 17.7221ZM65.7725 17.7221C65.7725 16.1868 66.6907 15.1173 68.094 15.1173C69.4973 15.1173 70.4155 16.1868 70.4155 17.7221C70.4155 19.2401 69.4973 20.3268 68.094 20.3268C66.6907 20.3268 65.7725 19.2401 65.7725 17.7221Z" fill="black"/>
<path d="M74.8334 11.7364C75.5264 11.7364 76.0981 11.1844 76.0981 10.4771C76.0981 9.78711 75.5264 9.23511 74.8334 9.23511C74.1231 9.23511 73.5861 9.78711 73.5861 10.4771C73.5861 11.1844 74.1231 11.7364 74.8334 11.7364ZM73.7766 22.0001H75.8902V13.4786H73.7766V22.0001Z" fill="black"/>
<path d="M77.7419 25.9502H79.8037V20.827C80.3408 21.7067 81.5015 22.2242 82.7836 22.2242C85.313 22.2242 86.8202 20.2922 86.7856 17.6357C86.7336 14.962 85.1917 13.2197 82.7662 13.2197C81.4669 13.2197 80.2888 13.789 79.7691 14.7722L79.6478 13.4785H77.7419V25.9502ZM79.8904 17.7392C79.8904 16.204 80.8259 15.1345 82.2985 15.1345C83.7711 15.1345 84.6546 16.2212 84.6546 17.7392C84.6546 19.2572 83.7711 20.3267 82.2985 20.3267C80.8259 20.3267 79.8904 19.2745 79.8904 17.7392Z" fill="black"/>
<path d="M87.3223 19.447C87.3916 21.1375 88.7082 22.2242 90.7526 22.2242C92.7622 22.2242 94.1309 21.1547 94.1309 19.4987C94.1309 18.274 93.3686 17.446 91.9653 17.101L90.458 16.7387C89.817 16.5662 89.3839 16.342 89.3839 15.79C89.3839 15.2035 89.8517 14.7895 90.614 14.7895C91.4109 14.7895 91.9306 15.238 91.9306 15.9797H93.8537C93.7844 14.2892 92.5197 13.2197 90.6659 13.2197C88.8295 13.2197 87.4609 14.2892 87.4609 15.9107C87.4609 17.0147 88.1019 17.929 89.7477 18.3602L91.2376 18.7397C91.792 18.895 92.1385 19.1537 92.1385 19.6367C92.1385 20.3095 91.4975 20.62 90.7179 20.62C89.7824 20.62 89.2453 20.1887 89.2453 19.447H87.3223Z" fill="black"/>
<path d="M98.5147 22.2245C99.6754 22.2245 100.784 21.6898 101.287 20.8963L101.425 22.0003H103.4V13.4788H101.287V17.9465C101.287 19.4818 100.698 20.3443 99.3116 20.3443C98.2375 20.3443 97.4925 19.8268 97.4925 18.0673V13.4788H95.3789V18.809C95.3789 20.8445 96.4877 22.2245 98.5147 22.2245Z" fill="black"/>
<path d="M107.379 22V17.101C107.379 15.721 108.194 15.0655 109.198 15.0655C110.203 15.0655 110.862 15.7037 110.862 16.9112V22H112.923V17.1182C112.923 15.721 113.72 15.0655 114.725 15.0655C115.747 15.0655 116.406 15.7037 116.406 16.9112V22H118.45V16.4282C118.45 14.4617 117.358 13.2197 115.279 13.2197C113.98 13.2197 112.958 13.8407 112.542 14.8412C112.074 13.8407 111.139 13.2197 109.718 13.2197C108.713 13.2197 107.812 13.6855 107.31 14.4445L107.206 13.4785H105.266V22H107.379Z" fill="black"/>
<path d="M102.312 29.6159C102.627 29.6159 102.901 29.3519 102.901 29.0384C102.901 28.7166 102.627 28.4526 102.312 28.4526C101.989 28.4526 101.716 28.7166 101.716 29.0384C101.716 29.3519 101.989 29.6159 102.312 29.6159Z" fill="black"/>
<path d="M103.509 27.4871C103.509 28.7493 104.288 29.5991 105.423 29.5991C106.401 29.5991 107.146 29.0133 107.304 28.1388H106.558C106.417 28.6256 105.986 28.9143 105.472 28.9143C104.743 28.9143 104.279 28.3533 104.279 27.4788C104.279 26.5878 104.768 26.0433 105.489 26.0433C105.986 26.0433 106.417 26.3073 106.55 26.8271H107.295C107.163 25.9443 106.467 25.3503 105.497 25.3503C104.321 25.3503 103.509 26.2166 103.509 27.4871Z" fill="black"/>
<path d="M107.597 27.4791C107.597 28.6919 108.425 29.5994 109.668 29.5994C110.911 29.5994 111.74 28.6919 111.74 27.4791C111.74 26.2664 110.911 25.3589 109.668 25.3589C108.425 25.3589 107.597 26.2664 107.597 27.4791ZM108.384 27.4791C108.384 26.6541 108.889 26.0519 109.668 26.0519C110.447 26.0519 110.952 26.6541 110.952 27.4791C110.952 28.3041 110.447 28.9064 109.668 28.9064C108.889 28.9064 108.384 28.3041 108.384 27.4791Z" fill="black"/>
<path d="M113.184 29.5086V27.0831C113.184 26.4479 113.582 26.0354 114.162 26.0354C114.717 26.0354 115.065 26.3901 115.065 27.0254V29.5086H115.827V27.0914C115.827 26.4479 116.217 26.0354 116.805 26.0354C117.352 26.0354 117.7 26.3901 117.7 27.0254V29.5086H118.454V26.8604C118.454 25.9281 117.907 25.3589 116.979 25.3589C116.349 25.3589 115.86 25.6641 115.662 26.1591C115.454 25.6641 114.999 25.3589 114.336 25.3589C113.83 25.3589 113.383 25.5899 113.159 25.9859L113.101 25.4744H112.405V29.5086H113.184Z" fill="black"/>
<path fill-rule="evenodd" clip-rule="evenodd" d="M5.50684 17.8265L5.50829 17.6762L5.51129 17.5258L5.51584 17.3754L5.52193 17.225L5.52958 17.0747L5.53878 16.9243L5.54954 16.774L5.56184 16.6237L5.5757 16.4735L5.59111 16.3232L5.60807 16.1733L5.62658 16.0233L5.64665 15.8734L5.66826 15.7237L5.69143 15.5742L5.71614 15.4248L5.74241 15.2756L5.77021 15.1266L5.79956 14.9778L5.83046 14.8292L5.8629 14.6809L5.89687 14.5329L5.9324 14.3851L5.96944 14.2376L6.00803 14.0904L6.04814 13.9435L6.08979 13.7969L6.13296 13.6508L6.17765 13.505L6.22385 13.3596L6.27158 13.2145L6.32082 13.0698L6.37156 12.9256L6.42381 12.7818L6.47756 12.6385L6.5328 12.4956L6.58955 12.3533L6.64777 12.2114L6.70748 12.0701L6.76867 11.9292L6.83133 11.7889L6.89546 11.6492L6.96105 11.51L7.02811 11.3715L7.09662 11.2334L7.16657 11.0961L7.23796 10.9594L7.31079 10.8233L7.38505 10.6879L7.46073 10.5531L7.53783 10.419L7.61633 10.2857L7.69625 10.153L7.77755 10.0211L7.86025 9.8899L7.94433 9.75948L8.02978 9.62988L8.11661 9.50095L8.20479 9.37293L8.29433 9.24565L8.38521 9.1192L8.47742 8.99365L8.57097 8.86885L8.66583 8.74503L8.76201 8.62202L8.85949 8.49988L8.95827 8.37868L9.05833 8.2584L9.15966 8.13904L9.26227 8.02062L9.36613 7.90316L9.47124 7.78668L9.57759 7.67118L9.68518 7.55666L9.79398 7.44316L9.90399 7.33068L10.0152 7.21922L10.1276 7.1088L10.2412 6.99944L10.3559 6.89115L10.4718 6.78395L10.5889 6.67782L10.7071 6.57281L10.8264 6.4689L10.9468 6.36612L11.0684 6.26447L11.191 6.16398L11.3147 6.06465L11.4395 5.96648L11.5654 5.86949L11.6922 5.7737L11.8202 5.6791L11.9491 5.58572L12.0791 5.49357L12.21 5.40265L12.3419 5.31297L12.4748 5.22454L12.6087 5.13738L12.7435 5.05149L12.8793 4.96689L13.016 4.88358L13.1536 4.80157L13.292 4.72088L13.4314 4.64151L13.5716 4.56346L13.7127 4.48676L13.8546 4.4114L13.9974 4.3374L14.1409 4.26477L14.2853 4.19351L14.4305 4.12363L14.5765 4.05514L14.7231 3.98805L14.8706 3.92238L15.0188 3.85811L15.1677 3.79526L15.3173 3.73386L15.4675 3.67388L15.6185 3.61534L15.7701 3.55826L15.9224 3.50264L16.0753 3.44849L16.2288 3.3958L16.3829 3.34459L16.5375 3.29487L16.6928 3.24664L16.8486 3.19991L17.005 3.15468L17.1618 3.11097L17.3193 3.06875L17.4771 3.02807L17.6355 2.98891L17.7942 2.95129L17.9536 2.91519L18.1132 2.88065L18.2733 2.84764L18.4338 2.81619L18.5947 2.78629L18.756 2.75795L18.9176 2.73117L19.0796 2.70597L19.2418 2.68232L19.4044 2.66027L19.5672 2.63978L19.7304 2.62089L19.8938 2.60356L20.0574 2.58784L20.2212 2.5737L20.3853 2.56116L20.5495 2.55021L21.4326 2.5L21.483 6.7365L21.5118 6.73617L21.6338 6.736L21.7557 6.73702L21.8777 6.73923L21.9998 6.74264L22.1218 6.74725L22.2439 6.75304L22.366 6.76004L22.4881 6.76824L22.6101 6.77762L22.7322 6.78821L22.8542 6.8L22.9761 6.81299L23.0979 6.82717L23.2197 6.84255L23.3414 6.85914L23.463 6.87691L23.5844 6.89589L23.7057 6.91607L23.8269 6.93744L23.9479 6.96L24.0687 6.98376L24.1893 7.00872L24.3098 7.03487L24.4301 7.06221L24.55 7.09073L24.6699 7.12044L24.7894 7.15135L24.9087 7.18344L25.0277 7.21671L25.1465 7.25115L25.2649 7.28678L25.383 7.32358L25.5008 7.36156L25.6183 7.40071L25.7354 7.44102L25.8522 7.4825L25.9686 7.52514L26.0846 7.56895L26.2003 7.6139L26.3155 7.66002L26.4303 7.70729L26.5446 7.75569L26.6586 7.80524L26.7721 7.85594L26.8851 7.90776L26.9976 7.96071L27.1097 8.01479L27.2213 8.07L27.3323 8.12633L27.4428 8.18376L27.5528 8.24231L27.6622 8.30196L27.7711 8.36271L27.8794 8.42456L27.9871 8.48749L28.0942 8.55153L28.2007 8.61663L28.3066 8.68278L28.4119 8.75005L28.5165 8.8183L28.6204 8.88768L28.7238 8.9581L28.8264 9.0295L28.9284 9.10203L29.0296 9.17552L29.1301 9.25008L29.23 9.32568L29.329 9.40225L29.4274 9.47988L29.5249 9.5584L29.6218 9.63797L29.7178 9.7186L29.8131 9.80012L29.9077 9.88263L30.0014 9.9661L30.0942 10.0505L30.1862 10.136L30.2774 10.2223L30.3678 10.3095L30.4573 10.3977L30.546 10.4868L30.6337 10.5769L30.7206 10.6678L30.8066 10.7596L30.8917 10.8523L30.9758 10.9459L31.0591 11.0403L31.1414 11.1357L31.2228 11.2318L31.3032 11.3288L31.3827 11.4267L31.4612 11.5253L31.5387 11.6247L31.6152 11.725L31.6907 11.8261L31.7652 11.9279L31.8388 12.0306L31.9112 12.1341L31.9827 12.2381L32.0531 12.3431L32.1225 12.4488L32.1908 12.5552L32.258 12.6623L32.3242 12.7701L32.3893 12.8786L32.4533 12.9878L32.5162 13.0976L32.5781 13.2082L32.6388 13.3194L32.6984 13.4313L32.7568 13.5438L32.8141 13.6568L32.8703 13.7705L32.9254 13.8849L32.9793 13.9998L33.0321 14.1153L33.0837 14.2314L33.134 14.348L33.1832 14.4653L33.2313 14.5829L33.2781 14.7012L33.3238 14.82L33.3682 14.9393L33.4115 15.059L33.4535 15.1793L33.4943 15.3L33.5339 15.4212L33.5723 15.5427L33.6094 15.6647L33.6453 15.7872L33.6799 15.9101L33.7133 16.0334L33.7455 16.1571L33.7763 16.281L33.8059 16.4054L33.8343 16.5302L33.8613 16.6553L33.8871 16.7806L33.9116 16.9064L33.9348 17.0324L33.9568 17.1587L33.9775 17.2852L33.9968 17.412L34.0149 17.5392L34.0316 17.6664L34.0471 17.794L34.0612 17.9217L34.074 18.0497L34.0855 18.1778L34.0958 18.3061L34.1047 18.4346L34.1122 18.5632L34.1185 18.6919L34.1234 18.8208L34.127 18.9498L34.1293 19.0788L34.1302 19.208L34.1298 19.3372L34.1281 19.4665L34.125 19.5959L34.1206 19.7252L34.1149 19.8545L34.1079 19.9839L34.0995 20.1133L34.0898 20.2427L34.0787 20.372L34.0663 20.5013L34.0526 20.6305L34.0374 20.7596L34.021 20.8886L34.0033 21.0176L33.9842 21.1464L33.9637 21.2751L33.942 21.4037L33.9189 21.5321L33.8944 21.6603L33.8687 21.7884L33.8416 21.9163L33.8131 22.0439L33.7833 22.1714L33.7523 22.2986L33.7198 22.4256L33.6861 22.5523L33.6511 22.6788L33.6147 22.8049L33.577 22.9307L33.538 23.0564L33.4976 23.1815L33.4561 23.3065L33.4131 23.431L33.3688 23.5552L33.3233 23.679L33.2765 23.8024L33.2284 23.9254L33.1789 24.048L33.1282 24.1702L33.0763 24.2919L33.023 24.4133L32.9685 24.534L32.9127 24.6544L32.8556 24.7743L32.7973 24.8936L32.7376 25.0125L32.6768 25.1307L32.6147 25.2486L32.5514 25.3657L32.4868 25.4824L32.421 25.5984L32.354 25.7139L32.2857 25.8288L32.2163 25.9431L32.1456 26.0568L32.0737 26.1697L32.0006 26.2821L31.9264 26.3937L31.851 26.5047L31.7744 26.6151L31.6965 26.7247L31.6176 26.8336L31.5375 26.9418L31.4562 27.0493L31.3738 27.156L31.2902 27.2619L31.2056 27.3671L31.1198 27.4715L31.0329 27.5751L30.9448 27.6779L30.8557 27.7799L30.7655 27.8811L30.6742 27.9815L30.5818 28.081L30.4884 28.1796L30.3939 28.2774L30.2984 28.3743L30.2017 28.4702L30.1041 28.5653L30.0055 28.6595L29.9059 28.7528L29.8052 28.8452L29.7035 28.9366L29.6009 29.027L29.4973 29.1165L29.3927 29.205L29.2871 29.2925L29.1806 29.379L29.0732 29.4646L28.9648 29.5491L28.8555 29.6326L28.7453 29.715L28.6342 29.7965L28.5223 29.8769L28.4094 29.9562L28.2956 30.0345L28.1811 30.1116L28.0657 30.1877L27.9494 30.2627L27.8323 30.3366L27.7144 30.4094L27.5957 30.4811L27.4762 30.5516L27.3559 30.621L27.2349 30.6893L27.113 30.7563L26.9906 30.8223L26.8673 30.8871L26.7433 30.9506L26.6185 31.0131L26.4931 31.0743L26.367 31.1343L26.2403 31.1932L26.1128 31.2508L25.9848 31.3072L25.856 31.3623L25.7267 31.4163L25.5968 31.469L25.4662 31.5204L25.3351 31.5706L25.2033 31.6196L25.0711 31.6672L24.9382 31.7136L24.8049 31.7587L24.671 31.8026L24.5366 31.8451L24.4017 31.8864L24.2663 31.9263L24.1305 31.9649L23.9941 32.0023L23.8574 32.0384L23.7202 32.073L23.5826 32.1064L23.4447 32.1385L23.3062 32.1692L23.1675 32.1986L23.0283 32.2266L22.8888 32.2533L22.749 32.2787L22.6089 32.3026L22.4684 32.3252L22.3277 32.3465L22.1867 32.3664L22.0454 32.3849L21.9039 32.4021L21.7621 32.4179L21.6201 32.4323L21.4779 32.4453L21.3355 32.457L21.1929 32.4672L21.0502 32.4761L20.9072 32.4836L20.7642 32.4896L20.621 32.4943L20.4777 32.4976L20.3343 32.4995L20.1909 32.5L20.0474 32.4991L19.9038 32.4968L19.7601 32.4931L19.6165 32.4879L19.4729 32.4814L19.3292 32.4735L19.1856 32.4642L19.042 32.4534L18.8985 32.4413L18.755 32.4277L18.6116 32.4128L18.4683 32.3964L18.3251 32.3787L18.182 32.3594L18.0391 32.3388L17.8963 32.3168L17.7537 32.2935L17.6113 32.2687L17.469 32.2425L17.327 32.2149L17.1852 32.1859L17.0436 32.1554L16.9023 32.1236L16.7612 32.0905L16.6205 32.0559L16.48 32.0199L16.3398 31.9826L16.2 31.9439L16.0605 31.9038L15.9213 31.8623L15.7826 31.8194L15.6442 31.7751L15.5062 31.7295L15.3686 31.6825L15.2314 31.6341L15.0947 31.5845L14.9584 31.5334L14.8226 31.481L14.6873 31.4272L14.5525 31.3721L14.4182 31.3156L14.2844 31.2579L14.1512 31.1987L14.0184 31.1383L13.8863 31.0765L13.7548 31.0134L13.6239 30.949L13.4935 30.8833L13.3638 30.8163L13.2348 30.748L13.1063 30.6785L12.9785 30.6076L12.8514 30.5354L12.725 30.462L12.5993 30.3873L12.4744 30.3114L12.3501 30.2342L12.2266 30.1558L12.1038 30.0761L11.9818 29.9952L11.8606 29.913L11.7403 29.8297L11.6206 29.7452L11.5019 29.6594L11.3839 29.5724L11.2668 29.4842L11.1506 29.3949L11.0352 29.3045L10.9207 29.2127L10.8071 29.12L10.6945 29.026L10.5827 28.9309L10.4719 28.8347L10.362 28.7373L10.2531 28.6388L10.1451 28.5393L10.0382 28.4385L9.93219 28.3368L9.82722 28.2339L9.72326 28.1301L9.62032 28.0251L9.51843 27.9191L9.41759 27.812L9.31781 27.704L9.2191 27.5949L9.12147 27.4847L9.02494 27.3737L8.92951 27.2616L8.83519 27.1485L8.74201 27.0345L8.64995 26.9195L8.55905 26.8035L8.4693 26.6867L8.38072 26.5689L8.29331 26.4501L8.2071 26.3305L8.12207 26.21L8.03826 26.0886L7.95566 25.9664L7.87428 25.8432L7.79415 25.7193L7.71524 25.5945L7.6376 25.4689L7.56122 25.3425L7.4861 25.2152L7.41228 25.0873L7.33973 24.9585L7.26848 24.829L7.19855 24.6987L7.12991 24.5676L7.06261 24.4359L6.99662 24.3035L6.93199 24.1704L6.86869 24.0365L6.80674 23.902L6.74616 23.7668L6.68694 23.631L6.6291 23.4945L6.57264 23.3575L6.51757 23.2198L6.46389 23.0815L6.41162 22.9427L6.36075 22.8032L6.3113 22.6633L6.26327 22.5228L6.21667 22.3818L6.1715 22.2402L6.12777 22.0982L6.08549 21.9557L6.04465 21.8127L6.00527 21.6692L5.96736 21.5253L5.93091 21.381L5.89593 21.2363L5.86243 21.0912L5.83041 20.9456L5.79987 20.7997L5.77083 20.6535L5.74327 20.5069L5.71722 20.36L5.69267 20.2127L5.66962 20.0652L5.64808 19.9174L5.62806 19.7693L5.60956 19.6209L5.59258 19.4724L5.57711 19.3236L5.56318 19.1746L5.55077 19.0254L5.5399 18.8759L5.53056 18.7264L5.52275 18.5767L5.51649 18.4268L5.51175 18.2769L5.50857 18.1269L5.50693 17.9767L5.50684 17.8265ZM20.1033 6.82524L20.069 3.93759L20.0364 3.94073L19.8866 3.9566L19.7372 3.97391L19.588 3.99269L19.4393 4.01286L19.2907 4.03451L19.1423 4.0576L18.9944 4.08211L18.8466 4.10808L18.6996 4.13541L18.5523 4.16426L18.4061 4.19441L18.2597 4.22608L18.114 4.25909L17.9685 4.29358L17.8236 4.32938L17.6792 4.36663L17.5351 4.40526L17.3914 4.44529L17.2484 4.48666L17.1057 4.52945L16.9637 4.57358L16.8221 4.6191L16.6813 4.66589L16.5406 4.71415L16.4007 4.7637L16.2615 4.81457L16.1227 4.86682L15.9846 4.92035L15.8473 4.97516L15.7104 5.03139L15.5741 5.08889L15.4385 5.14771L15.3037 5.20776L15.1696 5.26912L15.0362 5.33172L14.9032 5.39569L14.7712 5.46083L14.64 5.52725L14.5094 5.59491L14.3796 5.66383L14.2508 5.73393L14.1224 5.80532L13.9949 5.87795L13.8685 5.95161L13.7425 6.02672L13.6176 6.10282L13.4937 6.18011L13.3703 6.25866L13.2479 6.33836L13.1264 6.41923L13.006 6.50105L12.8861 6.58431L12.7674 6.66847L12.6496 6.75379L12.5326 6.84028L12.4167 6.9278L12.3018 7.01637L12.1876 7.10618L12.0747 7.19685L11.9626 7.2887L11.8516 7.38156L11.7415 7.4755L11.6326 7.57034L11.5245 7.66638L11.4176 7.76327L11.3117 7.86128L11.2069 7.96011L11.1032 8.06002L11.0006 8.16083L10.899 8.26263L10.7984 8.36549L10.6991 8.46905L10.601 8.5735L10.5037 8.67918L10.4077 8.78553L10.313 8.89263L10.2192 9.00085L10.1268 9.10975L10.0354 9.21963L9.94521 9.33025L9.85622 9.44178L9.76839 9.55405L9.68186 9.66708L9.59645 9.78092L9.51223 9.89567L9.42935 10.011L9.34759 10.1272L9.26713 10.2441L9.18791 10.3616L9.10988 10.48L9.03317 10.599L8.95772 10.7187L8.88353 10.839L8.81067 10.96L8.739 11.0817L8.66863 11.2041L8.59964 11.327L8.53188 11.4505L8.46542 11.5747L8.40031 11.6994L8.33648 11.8247L8.27402 11.9505L8.21287 12.0769L8.15306 12.2038L8.09456 12.3313L8.03744 12.4592L7.98161 12.5877L7.92715 12.7166L7.87409 12.8459L7.82235 12.9757L7.77196 13.106L7.72296 13.2366L7.67532 13.3677L7.62909 13.4991L7.58419 13.6311L7.54068 13.7633L7.49856 13.8959L7.45784 14.0287L7.41848 14.1621L7.38054 14.2955L7.34398 14.4294L7.30881 14.5635L7.27504 14.698L7.24269 14.8326L7.21173 14.9676L7.18217 15.1027L7.15402 15.2381L7.12728 15.3736L7.10194 15.5093L7.07802 15.6453L7.0555 15.7814L7.03441 15.9176L7.01472 16.0539L6.99644 16.1904L6.97958 16.327L6.96413 16.4636L6.95009 16.6005L6.93748 16.7372L6.92627 16.8741L6.91648 17.011L6.9081 17.1479L6.90113 17.2848L6.89558 17.4218L6.89144 17.5586L6.88871 17.6955L6.88739 17.8323L6.88748 17.9691L6.88897 18.1058L6.89187 18.2424L6.89617 18.3789L6.90187 18.5153L6.90898 18.6516L6.91748 18.7876L6.92738 18.9236L6.93867 19.0593L6.95135 19.1949L6.96542 19.3304L6.98087 19.4655L6.99771 19.6005L7.01592 19.7352L7.03551 19.8697L7.05648 20.004L7.07881 20.1378L7.10251 20.2715L7.12757 20.4048L7.15399 20.5378L7.18176 20.6705L7.21088 20.8028L7.24135 20.9348L7.27316 21.0665L7.3063 21.1977L7.34079 21.3286L7.37658 21.459L7.41372 21.589L7.45216 21.7186L7.49192 21.8478L7.53299 21.9764L7.57534 22.1046L7.619 22.2323L7.66395 22.3596L7.71019 22.4863L7.75769 22.6124L7.80649 22.7381L7.85653 22.8632L7.90783 22.9878L7.9604 23.1118L8.01421 23.2352L8.06926 23.358L8.12554 23.4803L8.18305 23.6018L8.24178 23.7228L8.30172 23.8431L8.36286 23.9628L8.42521 24.0819L8.48874 24.2002L8.55346 24.3179L8.61934 24.4348L8.6864 24.5511L8.75461 24.6666L8.82398 24.7814L8.89447 24.8955L8.96613 25.0088L9.03889 25.1213L9.11278 25.2331L9.18778 25.3441L9.26387 25.4543L9.34104 25.5637L9.41933 25.6723L9.49866 25.7801L9.57908 25.887L9.66052 25.9931L9.74306 26.0983L9.82658 26.2026L9.91115 26.3061L9.99677 26.4088L10.0833 26.5105L10.1709 26.6113L10.2595 26.7112L10.3491 26.8102L10.4396 26.9082L10.5311 27.0054L10.6235 27.1015L10.7169 27.1968L10.8112 27.291L10.9064 27.3843L11.0026 27.4766L11.0996 27.5679L11.1975 27.6582L11.2963 27.7475L11.3959 27.8358L11.4964 27.923L11.5977 28.0093L11.7 28.0945L11.8028 28.1786L11.9067 28.2618L12.0113 28.3438L12.1167 28.4248L12.2228 28.5047L12.3297 28.5836L12.4374 28.6613L12.5458 28.7379L12.6548 28.8134L12.7647 28.8879L12.8752 28.9612L12.9866 29.0334L13.0984 29.1045L13.211 29.1744L13.3243 29.2433L13.4381 29.3109L13.5527 29.3775L13.6678 29.4428L13.7836 29.507L13.8999 29.57L14.0169 29.6319L14.1343 29.6925L14.2523 29.7521L14.371 29.8103L14.4901 29.8675L14.6097 29.9235L14.7299 29.9782L14.8505 30.0317L14.9717 30.084L15.0933 30.1351L15.2154 30.185L15.3378 30.2337L15.4608 30.2811L15.5841 30.3274L15.7078 30.3724L15.832 30.4161L15.9566 30.4586L16.0814 30.5L16.2067 30.54L16.3322 30.5788L16.4582 30.6164L16.5844 30.6527L16.7109 30.6877L16.8378 30.7215L16.9648 30.7541L17.0922 30.7853L17.2197 30.8153L17.3476 30.8441L17.4757 30.8716L17.6039 30.8979L17.7324 30.9228L17.8611 30.9465L17.9899 30.9689L18.1188 30.9901L18.2479 31.01L18.3772 31.0286L18.5066 31.0459L18.636 31.062L18.7656 31.0768L18.8952 31.0903L19.0249 31.1026L19.1547 31.1136L19.2845 31.1233L19.4143 31.1317L19.5441 31.1389L19.6739 31.1448L19.8037 31.1494L19.9335 31.1528L20.0633 31.1548L20.1929 31.1556L20.3225 31.1552L20.4521 31.1535L20.5815 31.1505L20.7108 31.1462L20.8401 31.1408L20.9692 31.134L21.0981 31.126L21.2269 31.1168L21.3555 31.1063L21.484 31.0945L21.6122 31.0815L21.7402 31.0672L21.868 31.0518L21.9956 31.035L22.1229 31.017L22.2499 30.9978L22.3767 30.9774L22.5032 30.9558L22.6295 30.9329L22.7554 30.9088L22.8809 30.8835L23.0062 30.857L23.1311 30.8293L23.2556 30.8004L23.3798 30.7702L23.5036 30.7389L23.6269 30.7064L23.7499 30.6727L23.8725 30.6378L23.9946 30.6018L24.1163 30.5645L24.2375 30.5262L24.3583 30.4866L24.4786 30.446L24.5983 30.4041L24.7177 30.3611L24.8365 30.317L24.9548 30.2717L25.0725 30.2253L25.1896 30.1779L25.3062 30.1292L25.4223 30.0794L25.5378 30.0286L25.6526 29.9767L25.7669 29.9237L25.8806 29.8695L25.9936 29.8144L26.106 29.7581L26.2177 29.7008L26.3288 29.6424L26.4393 29.583L26.549 29.5225L26.6581 29.461L26.7664 29.3985L26.8742 29.3349L26.981 29.2704L27.0874 29.2048L27.1927 29.1383L27.2974 29.0707L27.4015 29.0022L27.5047 28.9326L27.607 28.8622L27.7086 28.7907L27.8095 28.7184L27.9095 28.6451L28.0088 28.5708L28.1071 28.4957L28.2048 28.4195L28.3014 28.3425L28.3973 28.2647L28.4924 28.1858L28.5865 28.1061L28.6797 28.0257L28.7721 27.9442L28.8636 27.862L28.9542 27.7789L29.0439 27.695L29.1326 27.6103L29.2205 27.5247L29.3074 27.4382L29.3933 27.3511L29.4784 27.2631L29.5624 27.1745L29.6454 27.0851L29.7276 26.9946L29.8087 26.9037L29.8889 26.8119L29.968 26.7195L30.0462 26.6263L30.1233 26.5325L30.1994 26.4379L30.2746 26.3426L30.3486 26.2467L30.4218 26.1501L30.4937 26.0529L30.5647 25.9549L30.6348 25.8563L30.7035 25.7573L30.7713 25.6574L30.838 25.5572L30.9037 25.4562L30.9684 25.3545L31.0318 25.2525L31.0942 25.1499L31.1556 25.0465L31.2157 24.9429L31.2748 24.8386L31.3329 24.7337L31.3897 24.6286L31.4455 24.5227L31.5002 24.4163L31.5536 24.3099L31.606 24.2026L31.6573 24.0949L31.7074 23.9869L31.7564 23.8785L31.8042 23.7696L31.8508 23.6604L31.8964 23.5506L31.9408 23.4405L31.9839 23.3303L32.0259 23.2193L32.0668 23.1083L32.1065 22.9967L32.1451 22.885L32.1825 22.7729L32.2185 22.6608L32.2537 22.5478L32.2874 22.435L32.32 22.3218L32.3515 22.2085L32.3818 22.0947L32.4108 21.9809L32.4387 21.8668L32.4654 21.7524L32.4909 21.638L32.5153 21.5232L32.5383 21.4086L32.5602 21.2934L32.5809 21.1784L32.6004 21.0631L32.6187 20.9477L32.6358 20.8323L32.6518 20.7166L32.6665 20.6011L32.6801 20.4851L32.6923 20.3695L32.7035 20.2535L32.7134 20.1378L32.7221 20.0217L32.7296 19.9061L32.736 19.7901L32.7411 19.674L32.745 19.5581L32.7478 19.4426L32.7493 19.3265L32.7497 19.2108L32.7488 19.0951L32.7468 18.9795L32.7436 18.8639L32.7391 18.7488L32.7335 18.6332L32.7268 18.5182L32.7188 18.4032L32.7097 18.2885L32.6993 18.1736L32.6879 18.0592L32.6752 17.9447L32.6614 17.8307L32.6464 17.7167L32.6303 17.6031L32.6129 17.4893L32.5944 17.3762L32.5748 17.2634L32.554 17.1505L32.532 17.038L32.509 16.926L32.4847 16.8138L32.4595 16.7025L32.4329 16.5911L32.4054 16.4804L32.3766 16.3695L32.3468 16.2595L32.3158 16.1496L32.2837 16.04L32.2506 15.931L32.2163 15.8224L32.1808 15.7139L32.1444 15.6062L32.1068 15.4986L32.0682 15.3916L32.0284 15.2849L31.9877 15.1789L31.9457 15.0731L31.9028 14.9678L31.8589 14.8633L31.8139 14.7592L31.7677 14.6553L31.7207 14.5523L31.6724 14.4494L31.6233 14.3475L31.5732 14.2459L31.5219 14.1447L31.4697 14.0444L31.4165 13.9445L31.3622 13.845L31.3072 13.7465L31.2509 13.6483L31.1938 13.5509L31.1356 13.4539L31.0767 13.3579L31.0165 13.2621L30.9557 13.1672L30.8937 13.0728L30.8308 12.9792L30.7672 12.8864L30.7024 12.7941L30.6368 12.7025L30.5704 12.6116L30.503 12.5215L30.4347 12.432L30.3656 12.3433L30.2956 12.2552L30.2247 12.168L30.153 12.0816L30.0804 11.9958L30.0069 11.9108L29.9327 11.8265L29.8578 11.7431L29.7819 11.6605L29.7051 11.5785L29.6279 11.4977L29.5494 11.4173L29.4706 11.338L29.3908 11.2593L29.3103 11.1816L29.2288 11.1045L29.147 11.0286L29.0642 10.9533L28.9806 10.8789L28.8967 10.8055L28.8118 10.7329L28.726 10.661L28.6398 10.5901L28.5529 10.5201L28.4653 10.4511L28.3771 10.3828L28.2883 10.3157L28.1986 10.2491L28.1086 10.1838L28.0178 10.1193L27.9264 10.0556L27.8346 9.99295L27.7418 9.93108L27.649 9.87047L27.5551 9.81055L27.461 9.75167L27.3661 9.6937L27.2708 9.6367L27.175 9.58075L27.0788 9.52585L26.9817 9.47162L26.8846 9.41868L26.7867 9.36655L26.6884 9.31548L26.5897 9.26545L26.4904 9.21632L26.3908 9.16817L26.2907 9.12115L26.1902 9.07502L26.0894 9.03003L25.9881 8.98592L25.8831 8.94153L25.7845 8.90095L25.6818 8.85985L25.5793 8.82002L25.4759 8.78095L25.3726 8.74315L25.2688 8.70625L25.1648 8.67048L25.0603 8.6356L24.9557 8.60192L24.8507 8.56923L24.7455 8.53758L24.6402 8.50705L24.5345 8.47747L24.4283 8.44891L24.3223 8.42151L24.2161 8.39516L24.1092 8.36977L24.0027 8.34555L23.8957 8.3223L23.7887 8.30018L23.6812 8.27906L23.574 8.25905L23.4664 8.24007L23.3589 8.2222L23.2509 8.20532L23.1432 8.18957L23.0353 8.17485L22.9272 8.16119L22.8191 8.14861L22.711 8.1371L22.6028 8.12665L22.4946 8.11726L22.3863 8.10893L22.2779 8.10165L22.1698 8.09546L22.0616 8.09032L21.9531 8.08623L21.8451 8.08322L21.737 8.08125L21.6289 8.08035L21.5206 8.0805L21.4989 8.08075L21.5331 10.9474L21.5945 10.9471L21.6735 10.9475L21.7525 10.9488L21.8316 10.9508L21.9107 10.9536L21.9899 10.9572L22.0691 10.9615L22.1483 10.9666L22.2276 10.9725L22.3068 10.9792L22.386 10.9867L22.4652 10.995L22.5445 11.004L22.6236 11.0139L22.7027 11.0244L22.7818 11.0359L22.8608 11.048L22.9398 11.061L23.0187 11.0748L23.0975 11.0894L23.1762 11.1047L23.2548 11.1209L23.3334 11.1378L23.4118 11.1554L23.4901 11.174L23.5683 11.1932L23.6462 11.2133L23.7241 11.2341L23.8018 11.2557L23.8794 11.2781L23.9569 11.3013L24.0341 11.3253L24.1111 11.35L24.1879 11.3755L24.2646 11.4018L24.3409 11.4289L24.4172 11.4567L24.4931 11.4853L24.5689 11.5147L24.6444 11.5449L24.7196 11.5758L24.7945 11.6075L24.8693 11.6399L24.9437 11.6731L25.0178 11.707L25.0916 11.7417L25.1652 11.7772L25.2384 11.8134L25.3114 11.8504L25.384 11.8881L25.4562 11.9265L25.5281 11.9657L25.5997 12.0056L25.6709 12.0463L25.7418 12.0877L25.8123 12.1299L25.8823 12.1727L25.952 12.2162L26.0213 12.2606L26.0902 12.3056L26.1587 12.3512L26.2268 12.3977L26.2944 12.4448L26.3616 12.4926L26.4283 12.5412L26.4946 12.5904L26.5605 12.6403L26.6258 12.6909L26.6908 12.7422L26.7552 12.7941L26.8191 12.8468L26.8825 12.9001L26.9455 12.954L27.008 13.0086L27.0699 13.0639L27.1313 13.1199L27.1921 13.1764L27.2524 13.2336L27.3121 13.2914L27.3713 13.35L27.43 13.409L27.4881 13.4688L27.5456 13.5291L27.6025 13.5901L27.6588 13.6517L27.7146 13.7139L27.7697 13.7766L27.8243 13.8399L27.8782 13.9038L27.9315 13.9683L27.9842 14.0334L28.0362 14.0991L28.0876 14.1653L28.1384 14.232L28.1885 14.2994L28.2379 14.3672L28.2867 14.4356L28.3347 14.5045L28.3822 14.5739L28.4289 14.6439L28.4749 14.7144L28.5203 14.7854L28.5649 14.8568L28.6089 14.9288L28.6522 15.0012L28.6946 15.0742L28.7364 15.1475L28.7775 15.2214L28.8178 15.2958L28.8574 15.3705L28.8963 15.4457L28.9343 15.5214L28.9717 15.5975L29.0083 15.674L29.0441 15.7509L29.0791 15.8283L29.1134 15.906L29.1469 15.9842L29.1796 16.0627L29.2115 16.1416L29.2426 16.2209L29.2729 16.3005L29.3024 16.3805L29.3311 16.4608L29.3591 16.5415L29.3862 16.6225L29.4124 16.7039L29.4379 16.7855L29.4625 16.8675L29.4863 16.9497L29.5093 17.0323L29.5313 17.1152L29.5527 17.1983L29.5731 17.2817L29.5927 17.3653L29.6114 17.4492L29.6293 17.5334L29.6463 17.6178L29.6624 17.7024L29.6777 17.7872L29.6922 17.8723L29.7057 17.9575L29.7184 18.043L29.7302 18.1286L29.7411 18.2144L29.7512 18.3004L29.7603 18.3866L29.7686 18.4728L29.7761 18.5593L29.7825 18.6458L29.7882 18.7325L29.7929 18.8193L29.7967 18.9062L29.7996 18.9933L29.8017 19.0804L29.8028 19.1676L29.803 19.2549L29.8024 19.3422L29.8008 19.4296L29.7983 19.517L29.7949 19.6046L29.7906 19.692L29.7854 19.7796L29.7793 19.8671L29.7723 19.9547L29.7643 20.0422L29.7555 20.1297L29.7457 20.2172L29.7351 20.3047L29.7235 20.3921L29.711 20.4795L29.6976 20.5667L29.6833 20.654L29.6681 20.7411L29.6519 20.8282L29.6348 20.9152L29.6168 21.002L29.5979 21.0888L29.5782 21.1754L29.5575 21.2619L29.5359 21.3483L29.5133 21.4345L29.4899 21.5205L29.4656 21.6064L29.4403 21.692L29.4142 21.7775L29.3872 21.8629L29.3591 21.948L29.3303 22.0329L29.3005 22.1175L29.27 22.202L29.2384 22.2861L29.2059 22.3701L29.1726 22.4538L29.1384 22.5371L29.1033 22.6203L29.0673 22.7031L29.0305 22.7857L28.9928 22.868L28.9541 22.9499L28.9147 23.0315L28.8743 23.1128L28.833 23.1937L28.7909 23.2743L28.748 23.3545L28.7041 23.4344L28.6595 23.5139L28.614 23.593L28.5676 23.6717L28.5203 23.75L28.4723 23.8279L28.4234 23.9054L28.3736 23.9825L28.3231 24.0591L28.2716 24.1353L28.2194 24.211L28.1664 24.2863L28.1125 24.3611L28.0578 24.4354L28.0024 24.5093L27.9461 24.5826L27.889 24.6554L27.8312 24.7277L27.7725 24.7996L27.7131 24.8708L27.6529 24.9417L27.5919 25.0119L27.5301 25.0815L27.4676 25.1506L27.4043 25.2191L27.3403 25.2871L27.2756 25.3545L27.2101 25.4213L27.1439 25.4875L27.0768 25.5531L27.0092 25.6181L26.9407 25.6824L26.8716 25.7461L26.8018 25.8092L26.7312 25.8717L26.66 25.9334L26.5881 25.9946L26.5156 26.0551L26.4423 26.1149L26.3684 26.174L26.2937 26.2325L26.2185 26.2902L26.1426 26.3473L26.0661 26.4036L25.9889 26.4593L25.9112 26.5143L25.8327 26.5684L25.7537 26.6219L25.674 26.6746L25.5938 26.7266L25.513 26.7778L25.4316 26.8283L25.3496 26.8779L25.2671 26.9269L25.184 26.975L25.1004 27.0224L25.0162 27.0689L24.9314 27.1148L24.8461 27.1598L24.7604 27.2039L24.674 27.2473L24.5873 27.2898L24.5 27.3316L24.4121 27.3725L24.3238 27.4125L24.2351 27.4518L24.1459 27.4902L24.0562 27.5277L23.9661 27.5643L23.8756 27.6002L23.7846 27.6351L23.6932 27.6692L23.6014 27.7025L23.5092 27.7348L23.4166 27.7662L23.3236 27.7968L23.2302 27.8265L23.1365 27.8552L23.0424 27.8832L22.948 27.9101L22.8532 27.9362L22.7581 27.9613L22.6626 27.9855L22.5669 28.0089L22.4709 28.0313L22.3744 28.0527L22.2779 28.0733L22.1809 28.0928L22.0838 28.1115L21.9864 28.1293L21.8887 28.1461L21.7908 28.1619L21.6927 28.1768L21.5943 28.1907L21.4957 28.2037L21.397 28.2158L21.2981 28.2268L21.1989 28.2369L21.0996 28.2461L21.0002 28.2542L20.9006 28.2614L20.8009 28.2677L20.701 28.2729L20.6011 28.2772L20.501 28.2805L20.4008 28.2828L20.3005 28.2842L20.2001 28.2845L20.0997 28.284L19.9993 28.2823L19.8987 28.2798L19.7982 28.2761L19.6976 28.2716L19.597 28.266L19.4964 28.2595L19.3958 28.252L19.2952 28.2435L19.1947 28.2339L19.0941 28.2234L18.9936 28.212L18.8932 28.1995L18.7928 28.186L18.6926 28.1715L18.5924 28.1561L18.4923 28.1396L18.3923 28.1222L18.2924 28.1038L18.1926 28.0844L18.0931 28.0639L17.9936 28.0425L17.8943 28.0202L17.7952 27.9968L17.6962 27.9724L17.5974 27.9471L17.4988 27.9207L17.4005 27.8934L17.3024 27.8652L17.2045 27.8359L17.1068 27.8057L17.0094 27.7744L16.9123 27.7422L16.8153 27.7091L16.7188 27.6749L16.6225 27.6398L16.5265 27.6038L16.4308 27.5667L16.3354 27.5288L16.2404 27.4898L16.1457 27.4499L16.0514 27.4091L15.9575 27.3672L15.8638 27.3245L15.7707 27.2808L15.6779 27.2362L15.5854 27.1906L15.4934 27.1441L15.4019 27.0967L15.3107 27.0483L15.22 26.9991L15.1298 26.9489L15.04 26.8977L14.9507 26.8457L14.8619 26.7928L14.7735 26.7389L14.6857 26.6843L14.5984 26.6286L14.5116 26.5721L14.4254 26.5147L14.3396 26.4564L14.2544 26.3973L14.1699 26.3373L14.0858 26.2764L14.0023 26.2147L13.9194 26.1521L13.8371 26.0886L13.7555 26.0243L13.6744 25.9592L13.594 25.8933L13.5142 25.8264L13.435 25.7589L13.3565 25.6904L13.2786 25.6212L13.2014 25.5511L13.1249 25.4803L13.0491 25.4087L12.9739 25.3362L12.8995 25.263L12.8258 25.1891L12.7528 25.1143L12.6805 25.0388L12.609 24.9626L12.5382 24.8856L12.4682 24.8078L12.3989 24.7294L12.3304 24.6502L12.2626 24.5703L12.1957 24.4897L12.1295 24.4083L12.0642 24.3264L11.9997 24.2436L11.9359 24.1602L11.8731 24.0761L11.8109 23.9915L11.7497 23.9061L11.6893 23.82L11.6298 23.7333L11.5711 23.646L11.5133 23.5581L11.4563 23.4696L11.4003 23.3804L11.3451 23.2906L11.2908 23.2002L11.2374 23.1093L11.185 23.0177L11.1334 22.9257L11.0828 22.833L11.0331 22.7399L10.9843 22.6461L10.9365 22.5518L10.8896 22.4571L10.8436 22.3617L10.7986 22.266L10.7546 22.1696L10.7116 22.0728L10.6695 21.9755L10.6284 21.8778L10.5883 21.7796L10.5492 21.681L10.511 21.5818L10.4739 21.4823L10.4378 21.3824L10.4027 21.2819L10.3686 21.1812L10.3355 21.08L10.3035 20.9785L10.2724 20.8766L10.2424 20.7744L10.2135 20.6717L10.1856 20.5688L10.1587 20.4654L10.1329 20.3619L10.1082 20.2579L10.0845 20.1537L10.0618 20.0491L10.0403 19.9443L10.0198 19.8392L10.0004 19.7339L9.98201 19.6283L9.96475 19.5224L9.94856 19.4164L9.93346 19.3101L9.91945 19.2036L9.90653 19.0969L9.8947 18.99L9.88397 18.883L9.87433 18.7757L9.86581 18.6684L9.85838 18.5609L9.85205 18.4532L9.84684 18.3454L9.84274 18.2376L9.83974 18.1295L9.83786 18.0215L9.83709 17.9132L9.83745 17.805L9.83891 17.6967L9.8415 17.5884L9.8452 17.4801L9.85003 17.3716L9.85598 17.2632L9.86304 17.1548L9.87124 17.0464L9.88055 16.938L9.89099 16.8296L9.90256 16.7213L9.91524 16.6131L9.92906 16.5048L9.94399 16.3967L9.96005 16.2886L9.97724 16.1807L9.99555 16.0728L10.015 15.9651L10.0355 15.8575L10.0572 15.75L10.08 15.6428L10.1039 15.5356L10.129 15.4286L10.1551 15.3218L10.1824 15.2153L10.2108 15.1089L10.2403 15.0027L10.2709 14.8968L10.3026 14.7912L10.3354 14.6857L10.3694 14.5805L10.4044 14.4756L10.4406 14.371L10.4778 14.2667L10.5162 14.1626L10.5556 14.0589L10.5961 13.9556L10.6377 13.8525L10.6804 13.7498L10.7242 13.6475L10.7691 13.5455L10.815 13.444L10.862 13.3428L10.9101 13.242L10.9593 13.1417L11.0095 13.0418L11.0608 12.9423L11.1131 12.8433L11.1665 12.7446L11.2209 12.6465L11.2764 12.5489L11.3329 12.4517L11.3904 12.3551L11.449 12.2589L11.5086 12.1633L11.5692 12.0682L11.6308 11.9736L11.6935 11.8797L11.7571 11.7862L11.8218 11.6933L11.8874 11.601L11.954 11.5093L12.0216 11.4183L12.0901 11.3277L12.1597 11.2379L12.2302 11.1486L12.3017 11.0601L12.3741 10.9721L12.4475 10.8848L12.5218 10.7982L12.5971 10.7123L12.6732 10.6271L12.7504 10.5426L12.8283 10.4587L12.9073 10.3756L12.9871 10.2932L13.0678 10.2116L13.1494 10.1307L13.2318 10.0505L13.3152 9.97113L13.3994 9.89245L13.4845 9.81468L13.5704 9.73757L13.6572 9.66138L13.7447 9.58593L13.8332 9.5113L13.9224 9.4375L14.0124 9.36453L14.1033 9.29238L14.1949 9.22113L14.2874 9.1507L14.3805 9.08118L14.4745 9.01248L14.5692 8.94468L14.6647 8.87778L14.7609 8.81178L14.8579 8.74668L14.9555 8.68255L15.0539 8.61925L15.153 8.55692L15.2528 8.49553L15.3533 8.43507L15.4544 8.37557L15.5562 8.31702L15.6587 8.25944L15.7618 8.20282L15.8656 8.14719L15.97 8.09255L16.075 8.03889L16.1806 7.98623L16.2868 7.93458L16.3936 7.88394L16.501 7.83432L16.6089 7.78572L16.7175 7.73815L16.8266 7.69162L16.9362 7.64613L17.0463 7.60169L17.1569 7.5583L17.268 7.51597L17.3797 7.47471L17.4918 7.43451L17.6044 7.39539L17.7175 7.35735L17.831 7.3204L17.9449 7.28454L18.0593 7.24977L18.1741 7.21611L18.2894 7.18355L18.4049 7.15209L18.5209 7.12176L18.6373 7.09254L18.754 7.06444L18.8711 7.03748L18.9885 7.01163L19.1063 6.98693L19.2243 6.96336L19.3427 6.94094L19.4613 6.91967L19.5803 6.89954L19.6995 6.88056L19.819 6.86274L19.9387 6.84608L20.0586 6.83058L20.1033 6.82524ZM20.1539 11.0771L20.1194 8.17892L20.0211 8.1926L19.9155 8.20837L19.8097 8.22519L19.7046 8.24298L19.5994 8.26184L19.4947 8.28168L19.3902 8.30254L19.2861 8.32437L19.1823 8.34724L19.0786 8.37112L18.9753 8.39598L18.8724 8.42183L18.7696 8.44871L18.6708 8.47555L18.5656 8.50533L18.464 8.5351L18.3628 8.56585L18.2622 8.5975L18.1618 8.6302L18.0617 8.66388L17.9621 8.69845L17.8631 8.73392L17.7644 8.77045L17.6662 8.8078L17.5683 8.8462L17.4713 8.88542L17.3742 8.9257L17.2778 8.9668L17.1819 9.0088L17.0867 9.0517L16.9917 9.09557L16.8973 9.14035L16.8037 9.18587L16.7102 9.23245L16.6177 9.27977L16.5253 9.32815L16.4339 9.37713L16.3426 9.4273L16.2522 9.478L16.1624 9.52968L16.0731 9.58225L15.9844 9.63558L15.8962 9.68988L15.8089 9.74478L15.722 9.80065L15.6359 9.85728L15.5504 9.91465L15.4655 9.97292L15.3811 10.032L15.2978 10.0917L15.2148 10.1523L15.1326 10.2137L15.0511 10.2758L14.9703 10.3385L14.8901 10.4022L14.8108 10.4665L14.7322 10.5315L14.6541 10.5975L14.5771 10.6638L14.5005 10.7311L14.4248 10.7991L14.3498 10.8676L14.2757 10.9368L14.2021 11.0069L14.1296 11.0774L14.0577 11.1486L13.9865 11.2206L13.9162 11.2931L13.8467 11.3664L13.778 11.4402L13.7101 11.5146L13.643 11.5897L13.5767 11.6655L13.5114 11.7416L13.4468 11.8184L13.383 11.8959L13.3201 11.9739L13.2581 12.0523L13.1968 12.1315L13.1365 12.2111L13.077 12.2913L13.0184 12.372L12.9606 12.4532L12.9038 12.5348L12.8478 12.617L12.7927 12.6997L12.7385 12.7829L12.6852 12.8664L12.6329 12.9505L12.5813 13.0352L12.5307 13.1201L12.4811 13.2055L12.4323 13.2914L12.3845 13.3775L12.3376 13.4642L12.2915 13.5513L12.2465 13.6386L12.2024 13.7265L12.1592 13.8147L12.117 13.9032L12.0757 13.9921L12.0353 14.0813L11.9959 14.1708L11.9574 14.2607L11.92 14.3508L11.8834 14.4413L11.8478 14.5321L11.8132 14.6231L11.7796 14.7144L11.7468 14.8061L11.7152 14.8978L11.6844 14.9899L11.6546 15.0822L11.6258 15.1748L11.598 15.2675L11.5711 15.3604L11.5452 15.4535L11.5203 15.5469L11.4964 15.6403L11.4735 15.734L11.4515 15.8278L11.4305 15.9217L11.4105 16.0158L11.3915 16.11L11.3735 16.2043L11.3565 16.2988L11.3404 16.3933L11.3254 16.488L11.3113 16.5825L11.2982 16.6773L11.2861 16.7721L11.275 16.867L11.2649 16.9619L11.2557 17.0568L11.2476 17.1518L11.2404 17.2467L11.2342 17.3417L11.229 17.4366L11.2248 17.5315L11.2215 17.6264L11.2192 17.7212L11.218 17.816L11.2177 17.9108L11.2183 18.0054L11.22 18.1L11.2226 18.1945L11.2262 18.2888L11.2308 18.3832L11.2363 18.4774L11.2428 18.5714L11.2502 18.6653L11.2587 18.7591L11.268 18.8527L11.2784 18.9461L11.2897 19.0395L11.3019 19.1326L11.3151 19.2255L11.3293 19.3182L11.3444 19.4106L11.3604 19.503L11.3774 19.5951L11.3953 19.6868L11.4141 19.7784L11.4339 19.8697L11.4546 19.9608L11.4762 20.0515L11.4988 20.142L11.5222 20.2323L11.5466 20.3222L11.5718 20.4117L11.598 20.501L11.6251 20.59L11.6531 20.6786L11.682 20.767L11.7117 20.8549L11.7424 20.9424L11.7738 21.0296L11.8062 21.1165L11.8395 21.203L11.8737 21.289L11.9086 21.3747L11.9445 21.4599L11.9811 21.5448L12.0187 21.6291L12.0571 21.7131L12.0963 21.7966L12.1364 21.8797L12.1772 21.9624L12.2189 22.0445L12.2614 22.1262L12.3047 22.2075L12.3489 22.2881L12.3938 22.3684L12.4395 22.4481L12.486 22.5273L12.5333 22.606L12.5813 22.6842L12.6301 22.7619L12.6797 22.839L12.7301 22.9156L12.7811 22.9915L12.833 23.067L12.8855 23.1419L12.9388 23.2162L12.9928 23.2899L13.0476 23.3631L13.103 23.4356L13.1592 23.5076L13.216 23.5789L13.2736 23.6496L13.3318 23.7197L13.3907 23.7893L13.4503 23.858L13.5105 23.9264L13.5714 23.9939L13.6329 24.0609L13.6951 24.1271L13.7579 24.1927L13.8213 24.2577L13.8854 24.3219L13.9501 24.3855L14.0154 24.4485L14.0813 24.5107L14.1476 24.5722L14.2147 24.6331L14.2823 24.6932L14.3505 24.7526L14.4193 24.8113L14.4886 24.8693L14.5584 24.9266L14.6287 24.983L14.6996 25.0388L14.771 25.0939L14.843 25.1483L14.9154 25.2018L14.9883 25.2546L15.0616 25.3067L15.1355 25.358L15.2099 25.4085L15.2847 25.4583L15.36 25.5073L15.4357 25.5555L15.5118 25.603L15.5884 25.6497L15.6653 25.6955L15.7428 25.7406L15.8205 25.7849L15.8988 25.8284L15.9773 25.871L16.0563 25.913L16.1356 25.9541L16.2152 25.9943L16.2953 26.0338L16.3757 26.0724L16.4564 26.1103L16.5374 26.1473L16.6188 26.1835L16.7004 26.2188L16.7823 26.2533L16.8646 26.2871L16.9471 26.3199L17.0299 26.352L17.1129 26.3832L17.1962 26.4135L17.2798 26.4431L17.3635 26.4717L17.4476 26.4996L17.5318 26.5266L17.6163 26.5527L17.7009 26.578L17.7857 26.6025L17.8707 26.6261L17.9559 26.6488L18.0412 26.6708L18.1267 26.6918L18.2124 26.712L18.2982 26.7313L18.3841 26.7498L18.4701 26.7675L18.5562 26.7842L18.6426 26.8001L18.7288 26.8152L18.8153 26.8294L18.9017 26.8427L18.9883 26.8552L19.0749 26.8668L19.1615 26.8776L19.2482 26.8875L19.3349 26.8966L19.4217 26.9048L19.5085 26.9121L19.5953 26.9186L19.682 26.9243L19.7687 26.929L19.8554 26.933L19.9422 26.9361L20.0288 26.9383L20.1154 26.9397L20.2019 26.9402L20.2884 26.9399L20.3748 26.9387L20.4611 26.9367L20.5473 26.9339L20.6335 26.9302L20.7194 26.9256L20.8053 26.9203L20.891 26.9141L20.9766 26.907L21.0621 26.8992L21.1474 26.8904L21.2326 26.8809L21.3176 26.8706L21.4024 26.8594L21.487 26.8475L21.5714 26.8347L21.6556 26.821L21.7395 26.8066L21.8234 26.7913L21.9069 26.7752L21.9902 26.7584L22.0734 26.7407L22.1561 26.7223L22.2386 26.7031L22.3209 26.683L22.4029 26.6622L22.4846 26.6406L22.5661 26.6182L22.6472 26.595L22.728 26.5711L22.8085 26.5464L22.8886 26.5209L22.9685 26.4947L23.048 26.4677L23.1272 26.4399L23.206 26.4114L23.2844 26.3822L23.3624 26.3522L23.4401 26.3214L23.5174 26.2899L23.5943 26.2577L23.6708 26.2248L23.7469 26.1912L23.8226 26.1569L23.8979 26.1218L23.9728 26.086L24.047 26.0496L24.1211 26.0124L24.1946 25.9746L24.2677 25.9359L24.3402 25.8968L24.4124 25.8569L24.4841 25.8163L24.5552 25.7751L24.6259 25.7331L24.6961 25.6906L24.7657 25.6474L24.835 25.6035L24.9035 25.5591L24.9717 25.514L25.0394 25.4681L25.1065 25.4218L25.1729 25.3749L25.239 25.3272L25.3044 25.2792L25.3694 25.2303L25.4338 25.1809L25.4973 25.131L25.5607 25.0804L25.6233 25.0293L25.6852 24.9776L25.7468 24.9252L25.8076 24.8725L25.8678 24.8193L25.9276 24.7652L25.9865 24.7109L26.0449 24.6559L26.1028 24.6004L26.1599 24.5444L26.2165 24.4879L26.2724 24.4309L26.3277 24.3734L26.3822 24.3154L26.4363 24.2569L26.4897 24.1979L26.5422 24.1386L26.5944 24.0786L26.6457 24.0183L26.6963 23.9576L26.7464 23.8962L26.7956 23.8347L26.8443 23.7725L26.8923 23.7101L26.9396 23.6471L26.9861 23.5838L27.0319 23.5202L27.0772 23.4559L27.1216 23.3915L27.1654 23.3266L27.2086 23.2613L27.2507 23.1958L27.2925 23.1298L27.3334 23.0634L27.3736 22.9968L27.413 22.9298L27.4519 22.8624L27.4897 22.795L27.5271 22.7269L27.5636 22.6587L27.5993 22.5903L27.6345 22.5212L27.6687 22.4524L27.7024 22.3828L27.7351 22.3134L27.7673 22.2433L27.7985 22.1733L27.8292 22.1027L27.859 22.0322L27.888 21.9615L27.9163 21.8904L27.9439 21.819L27.9705 21.7477L27.9967 21.6759L28.0218 21.6041L28.0463 21.5321L28.07 21.4599L28.093 21.3874L28.1152 21.3149L28.1366 21.2423L28.1573 21.1694L28.1771 21.0965L28.1962 21.0233L28.2145 20.9501L28.2321 20.8769L28.2489 20.8034L28.2648 20.7299L28.2801 20.6563L28.2945 20.5827L28.3082 20.509L28.3211 20.435L28.3332 20.3612L28.3446 20.2873L28.3551 20.2133L28.3649 20.1394L28.374 20.0654L28.3823 19.9911L28.3897 19.9174L28.3965 19.8431L28.4025 19.7691L28.4076 19.6952L28.412 19.6211L28.4156 19.5471L28.4185 19.4733L28.4206 19.3992L28.4219 19.3255L28.4225 19.2515L28.4223 19.1778L28.4214 19.1041L28.4196 19.0307L28.4171 18.9571L28.4139 18.8837L28.4099 18.8106L28.4052 18.7372L28.3997 18.6641L28.3935 18.5913L28.3865 18.5183L28.3787 18.4458L28.3702 18.3731L28.361 18.3008L28.3511 18.2286L28.3404 18.1565L28.3289 18.0846L28.3168 18.013L28.3039 17.9415L28.2903 17.8703L28.2759 17.799L28.2608 17.7281L28.2451 17.6576L28.2286 17.5871L28.2114 17.5167L28.1935 17.447L28.1748 17.377L28.1555 17.3076L28.1355 17.2383L28.1148 17.1695L28.0934 17.1007L28.0712 17.0322L28.0485 16.9642L28.0251 16.8964L28.0008 16.8287L27.9761 16.7615L27.9506 16.6946L27.9244 16.628L27.8976 16.5617L27.8701 16.4956L27.842 16.4301L27.8132 16.3647L27.7838 16.2998L27.7538 16.2354L27.723 16.171L27.6916 16.107L27.6597 16.0437L27.6271 15.9804L27.5939 15.9178L27.5601 15.8555L27.5256 15.7934L27.4906 15.7319L27.4549 15.6708L27.4187 15.6101L27.3818 15.5496L27.3445 15.4898L27.3064 15.4302L27.2679 15.3713L27.2287 15.3127L27.189 15.2546L27.1487 15.1968L27.1078 15.1395L27.0666 15.0828L27.0245 15.0264L26.9821 14.9705L26.939 14.9151L26.8957 14.8603L26.8515 14.8058L26.8069 14.7519L26.7618 14.6984L26.7162 14.6453L26.6702 14.593L26.6235 14.5409L26.5765 14.4896L26.5289 14.4386L26.481 14.3883L26.4323 14.3383L26.3834 14.289L26.3339 14.2401L26.284 14.1918L26.2338 14.1441L26.183 14.0969L26.1317 14.0501L26.08 14.0041L26.028 13.9586L25.9753 13.9134L25.9227 13.8692L25.8693 13.8252L25.8156 13.7819L25.7615 13.7392L25.707 13.6969L25.6521 13.6553L25.5971 13.6145L25.5413 13.574L25.4852 13.534L25.4291 13.4949L25.3722 13.4562L25.3154 13.4183L25.2581 13.3808L25.2004 13.3439L25.1423 13.3076L25.0842 13.272L25.0254 13.2369L24.9666 13.2026L24.9072 13.1687L24.848 13.1356L24.7881 13.1031L24.728 13.071L24.6677 13.0397L24.6072 13.0091L24.5464 12.9789L24.4852 12.9494L24.424 12.9207L24.3626 12.8925L24.3005 12.8649L24.2387 12.838L24.1765 12.8117L24.114 12.786L24.0514 12.7611L23.9887 12.7367L23.9258 12.713L23.8624 12.6899L23.7992 12.6675L23.7356 12.6457L23.6719 12.6245L23.6083 12.6041L23.5443 12.5843L23.4804 12.5651L23.4159 12.5465L23.3516 12.5286L23.2872 12.5114L23.2227 12.4948L23.158 12.4788L23.0931 12.4635L23.0283 12.4489L22.9636 12.4349L22.8985 12.4216L22.8332 12.4088L22.7684 12.3969L22.7031 12.3855L22.6379 12.3748L22.5725 12.3647L22.5074 12.3553L22.4418 12.3464L22.3766 12.3384L22.3112 12.3309L22.2459 12.3241L22.1806 12.318L22.1151 12.3124L22.0499 12.3075L21.9844 12.3033L21.9192 12.2997L21.8541 12.2968L21.7886 12.2945L21.7236 12.2928L21.6585 12.2919L21.5935 12.2915L21.549 12.2916L21.5827 15.1232L21.6028 15.1232L21.6402 15.1238L21.6776 15.1247L21.7151 15.1259L21.7526 15.1276L21.7902 15.1296L21.8278 15.132L21.8655 15.1349L21.9031 15.1381L21.9409 15.1417L21.9786 15.1457L22.0163 15.15L22.0542 15.1548L22.0919 15.16L22.1297 15.1656L22.1675 15.1715L22.2053 15.1779L22.2431 15.1847L22.2809 15.1919L22.3186 15.1994L22.3564 15.2074L22.3941 15.2157L22.4318 15.2245L22.4694 15.2337L22.5071 15.2432L22.5447 15.2531L22.5822 15.2635L22.6197 15.2742L22.6571 15.2854L22.6945 15.2969L22.7318 15.309L22.7691 15.3213L22.8062 15.3341L22.8433 15.3472L22.8803 15.3608L22.9172 15.3747L22.9541 15.389L22.9908 15.4038L23.0274 15.419L23.064 15.4345L23.1004 15.4505L23.1367 15.4668L23.173 15.4835L23.209 15.5007L23.245 15.5182L23.2808 15.5361L23.3165 15.5545L23.352 15.5732L23.3874 15.5923L23.4227 15.6118L23.4578 15.6317L23.4927 15.6519L23.5274 15.6726L23.5621 15.6936L23.5965 15.7151L23.6308 15.7369L23.6648 15.759L23.6987 15.7816L23.7325 15.8046L23.766 15.8279L23.7993 15.8517L23.8324 15.8757L23.8653 15.9002L23.898 15.925L23.9305 15.9502L23.9628 15.9758L23.9948 16.0017L24.0266 16.028L24.0582 16.0547L24.0896 16.0817L24.1207 16.109L24.1516 16.1368L24.1822 16.1649L24.2125 16.1933L24.2426 16.2221L24.2725 16.2513L24.302 16.2808L24.3313 16.3106L24.3604 16.3408L24.3891 16.3713L24.4175 16.4022L24.4457 16.4334L24.4737 16.4649L24.5012 16.4968L24.5285 16.529L24.5555 16.5615L24.5822 16.5943L24.6086 16.6274L24.6346 16.6609L24.6604 16.6947L24.6859 16.7288L24.7109 16.7632L24.7356 16.7979L24.7601 16.8329L24.7842 16.8682L24.808 16.9038L24.8314 16.9397L24.8545 16.9759L24.8772 17.0124L24.8996 17.0491L24.9215 17.0862L24.9432 17.1234L24.9645 17.161L24.9853 17.1989L25.0059 17.237L25.0261 17.2754L25.0458 17.314L25.0653 17.3528L25.0842 17.392L25.1029 17.4314L25.1211 17.471L25.1389 17.511L25.1564 17.5511L25.1734 17.5914L25.1901 17.632L25.2063 17.6728L25.2221 17.7138L25.2375 17.7551L25.2525 17.7965L25.2671 17.8383L25.2812 17.8801L25.2949 17.9222L25.3082 17.9645L25.3211 18.0069L25.3335 18.0496L25.3455 18.0925L25.3571 18.1355L25.3682 18.1787L25.3788 18.2221L25.3891 18.2657L25.3989 18.3093L25.4082 18.3533L25.4171 18.3973L25.4255 18.4414L25.4335 18.4858L25.441 18.5303L25.4481 18.5748L25.4546 18.6196L25.4607 18.6645L25.4664 18.7094L25.4716 18.7546L25.4763 18.7998L25.4805 18.8451L25.4843 18.8906L25.4876 18.9362L25.4904 18.9818L25.4927 19.0275L25.4945 19.0733L25.496 19.1193L25.4968 19.1652L25.4973 19.2113L25.4971 19.2573L25.4966 19.3035L25.4955 19.3498L25.4939 19.3961L25.4919 19.4424L25.4893 19.4888L25.4863 19.5352L25.4828 19.5816L25.4787 19.6281L25.4742 19.6746L25.4692 19.7211L25.4637 19.7676L25.4576 19.8142L25.4512 19.8608L25.4441 19.9073L25.4366 19.9538L25.4286 20.0003L25.42 20.0468L25.411 20.0933L25.4015 20.1397L25.3914 20.1861L25.3809 20.2325L25.3699 20.2788L25.3583 20.3251L25.3462 20.3714L25.3337 20.4175L25.3206 20.4636L25.3071 20.5096L25.293 20.5556L25.2784 20.6015L25.2634 20.6472L25.2478 20.693L25.2317 20.7386L25.2151 20.784L25.198 20.8295L25.1804 20.8747L25.1624 20.9199L25.1438 20.9649L25.1247 21.0098L25.1051 21.0546L25.085 21.0993L25.0644 21.1438L25.0433 21.1881L25.0217 21.2324L24.9997 21.2764L24.9771 21.3203L24.9541 21.364L24.9305 21.4075L24.9065 21.4508L24.882 21.494L24.857 21.537L24.8315 21.5798L24.8055 21.6224L24.779 21.6648L24.7521 21.707L24.7247 21.7489L24.6968 21.7907L24.6685 21.8321L24.6396 21.8735L24.6103 21.9145L24.5805 21.9553L24.5503 21.9959L24.5195 22.0361L24.4884 22.0762L24.4567 22.116L24.4246 22.1556L24.3921 22.1948L24.3591 22.2338L24.3257 22.2725L24.2917 22.3109L24.2573 22.349L24.2225 22.3869L24.1873 22.4244L24.1517 22.4615L24.1155 22.4985L24.079 22.5351L24.042 22.5714L24.0046 22.6073L23.9667 22.643L23.9285 22.6782L23.8898 22.7132L23.8507 22.7478L23.8113 22.7821L23.7713 22.816L23.731 22.8495L23.6903 22.8827L23.6492 22.9156L23.6077 22.948L23.5658 22.9801L23.5235 23.0118L23.4808 23.0432L23.4378 23.0741L23.3943 23.1046L23.3506 23.1348L23.3064 23.1645L23.2618 23.1939L23.2169 23.2228L23.1717 23.2514L23.126 23.2795L23.0801 23.3072L23.0338 23.3344L22.9871 23.3612L22.9401 23.3876L22.8928 23.4136L22.8451 23.4392L22.7972 23.4642L22.7489 23.4889L22.7002 23.5131L22.6513 23.5368L22.6021 23.5601L22.5525 23.5829L22.5027 23.6052L22.4526 23.627L22.4022 23.6485L22.3515 23.6694L22.3005 23.6898L22.2492 23.7098L22.1977 23.7293L22.1458 23.7482L22.0938 23.7668L22.0415 23.7848L21.9889 23.8022L21.9361 23.8193L21.8831 23.8357L21.8298 23.8517L21.7763 23.8672L21.7226 23.8821L21.6686 23.8966L21.6145 23.9105L21.5601 23.9239L21.5055 23.9367L21.4507 23.9491L21.3957 23.9609L21.3406 23.9722L21.2852 23.9829L21.2297 23.9931L21.1741 24.0028L21.1182 24.0119L21.0622 24.0205L21.006 24.0285L20.9498 24.036L20.8933 24.043L20.8367 24.0494L20.78 24.0551L20.7231 24.0605L20.6662 24.0651L20.6091 24.0693L20.5518 24.0728L20.4946 24.0759L20.4372 24.0784L20.3797 24.0803L20.3221 24.0816L20.2644 24.0823L20.2067 24.0825L20.149 24.0821L20.0911 24.0812L20.0332 24.0796L19.9753 24.0775L19.9173 24.0748L19.8592 24.0715L19.8011 24.0677L19.743 24.0632L19.685 24.0582L19.6268 24.0526L19.5687 24.0464L19.5106 24.0396L19.4525 24.0323L19.3944 24.0243L19.3363 24.0159L19.2782 24.0067L19.2202 23.997L19.1622 23.9867L19.1043 23.9759L19.0464 23.9645L18.9885 23.9524L18.9307 23.9398L18.873 23.9265L18.8154 23.9127L18.7578 23.8984L18.7003 23.8834L18.643 23.8678L18.5857 23.8517L18.5286 23.8349L18.4715 23.8176L18.4145 23.7997L18.3578 23.7812L18.301 23.7622L18.2445 23.7425L18.1881 23.7223L18.1319 23.7015L18.0758 23.6801L18.0198 23.6581L17.9641 23.6355L17.9085 23.6124L17.8532 23.5887L17.7979 23.5644L17.7429 23.5396L17.6881 23.5142L17.6334 23.4881L17.579 23.4616L17.5249 23.4345L17.471 23.4068L17.4172 23.3785L17.3638 23.3497L17.3105 23.3203L17.2576 23.2904L17.2048 23.2598L17.1523 23.2288L17.1001 23.1972L17.0482 23.1651L16.9966 23.1324L16.9452 23.0991L16.8941 23.0653L16.8434 23.0309L16.793 22.9961L16.7428 22.9607L16.6929 22.9247L16.6434 22.8882L16.5943 22.8512L16.5454 22.8137L16.4969 22.7757L16.4488 22.7371L16.401 22.698L16.3535 22.6584L16.3064 22.6183L16.2597 22.5777L16.2134 22.5366L16.1675 22.4949L16.1219 22.4528L16.0767 22.4102L16.032 22.3671L15.9875 22.3235L15.9436 22.2794L15.9001 22.2348L15.8569 22.1898L15.8142 22.1443L15.7719 22.0983L15.7301 22.0518L15.6887 22.0049L15.6478 21.9576L15.6073 21.9098L15.5672 21.8615L15.5277 21.8127L15.4886 21.7636L15.4499 21.714L15.4117 21.664L15.3741 21.6135L15.3369 21.5627L15.3002 21.5114L15.264 21.4596L15.2283 21.4075L15.1931 21.355L15.1585 21.3021L15.1244 21.2487L15.0907 21.195L15.0576 21.141L15.025 21.0864L14.993 21.0316L14.9615 20.9763L14.9306 20.9207L14.9001 20.8648L14.8703 20.8085L14.841 20.7518L14.8122 20.6948L14.784 20.6375L14.7565 20.5797L14.7294 20.5217L14.703 20.4634L14.6772 20.4047L14.6519 20.3457L14.6271 20.2865L14.603 20.2268L14.5795 20.167L14.5566 20.1068L14.5344 20.0463L14.5127 19.9856L14.4916 19.9246L14.4712 19.8633L14.4513 19.8018L14.4321 19.74L14.4135 19.6779L14.3955 19.6156L14.3782 19.5531L14.3616 19.4903L14.3454 19.4273L14.3301 19.364L14.3153 19.3007L14.3011 19.237L14.2877 19.1732L14.2749 19.1091L14.2627 19.0449L14.2511 18.9805L14.2403 18.9159L14.2301 18.8512L14.2205 18.7863L14.2117 18.7212L14.2035 18.656L14.196 18.5907L14.1891 18.5251L14.183 18.4595L14.1775 18.3937L14.1726 18.3279L14.1685 18.2619L14.165 18.1958L14.1622 18.1296L14.1601 18.0633L14.1588 17.997L14.1581 17.9306L14.158 17.864L14.1587 17.7975L14.1601 17.7309L14.1622 17.6642L14.165 17.5974L14.1684 17.5307L14.1726 17.4639L14.1774 17.3971L14.183 17.3303L14.1892 17.2635L14.1961 17.1966L14.2038 17.1298L14.2122 17.063L14.2212 16.9962L14.231 16.9295L14.2415 16.8627L14.2527 16.796L14.2645 16.7294L14.2771 16.6628L14.2904 16.5963L14.3045 16.5298L14.3191 16.4634L14.3345 16.3971L14.3506 16.331L14.3674 16.2648L14.385 16.1988L14.4032 16.133L14.4221 16.0672L14.4417 16.0015L14.462 15.936L14.4831 15.8706L14.5047 15.8054L14.5272 15.7403L14.5503 15.6754L14.5741 15.6107L14.5986 15.5461L14.6238 15.4818L14.6497 15.4176L14.6763 15.3535L14.7036 15.2897L14.7315 15.2262L14.7602 15.1628L14.7895 15.0996L14.8196 15.0367L14.8503 14.9741L14.8817 14.9116L14.9137 14.8494L14.9464 14.7875L14.9798 14.7259L15.0139 14.6646L15.0487 14.6034L15.0841 14.5426L15.1201 14.4822L15.1569 14.4219L15.1943 14.362L15.2324 14.3025L15.2711 14.2431L15.3104 14.1842L15.3504 14.1256L15.3911 14.0673L15.4324 14.0094L15.4743 13.9519L15.5169 13.8947L15.56 13.8378L15.6039 13.7814L15.6483 13.7253L15.6934 13.6697L15.7392 13.6143L15.7854 13.5595L15.8323 13.505L15.8799 13.4509L15.928 13.3973L15.9767 13.344L16.0261 13.2913L16.076 13.2389L16.1266 13.187L16.1776 13.1356L16.2293 13.0846L16.2816 13.034L16.3344 12.984L16.3878 12.9345L16.4417 12.8853L16.4962 12.8367L16.5512 12.7886L16.6069 12.741L16.663 12.6938L16.7197 12.6473L16.7769 12.6012L16.8347 12.5556L16.8929 12.5106L16.9517 12.4662L17.011 12.4222L17.0708 12.3788L17.1312 12.3359L17.192 12.2936L17.2533 12.2519L17.3151 12.2107L17.3773 12.1701L17.4401 12.1301L17.5033 12.0907L17.567 12.0518L17.6312 12.0136L17.6957 11.976L17.7608 11.9389L17.8263 11.9025L17.8922 11.8666L17.9585 11.8314L18.0253 11.7969L18.0925 11.7629L18.16 11.7296L18.228 11.6969L18.2964 11.6649L18.3652 11.6334L18.4344 11.6027L18.5039 11.5726L18.5739 11.5431L18.6441 11.5143L18.7147 11.4863L18.7857 11.4588L18.8571 11.432L18.9287 11.406L19.0007 11.3806L19.0731 11.3559L19.1457 11.3319L19.2187 11.3085L19.2919 11.2859L19.3655 11.264L19.4393 11.2428L19.5135 11.2223L19.5879 11.2025L19.6625 11.1833L19.7375 11.165L19.8126 11.1474L19.8881 11.1305L19.9638 11.1143L20.0397 11.0988L20.1158 11.0841L20.1539 11.0771ZM21.0894 16.5223L20.2212 16.7288L20.1702 12.4467L20.1293 12.4559L20.0677 12.4704L20.0062 12.4854L19.9451 12.501L19.8841 12.5172L19.8234 12.534L19.7628 12.5515L19.7028 12.5694L19.6426 12.5879L19.5831 12.6069L19.5236 12.6266L19.4643 12.6469L19.4054 12.6677L19.3468 12.689L19.2886 12.7108L19.2305 12.7333L19.1728 12.7563L19.1154 12.7797L19.058 12.8039L19.0015 12.8283L18.9449 12.8535L18.8889 12.8791L18.8329 12.9053L18.7775 12.932L18.7222 12.9592L18.6675 12.9869L18.613 13.0151L18.5589 13.0438L18.5052 13.073L18.4518 13.1027L18.3988 13.1329L18.3464 13.1635L18.2939 13.1948L18.2421 13.2263L18.1907 13.2585L18.1396 13.291L18.0888 13.3241L18.0386 13.3576L17.9887 13.3916L17.9392 13.4259L17.8903 13.4607L17.8416 13.496L17.7933 13.5318L17.7456 13.568L17.6982 13.6046L17.6514 13.6415L17.605 13.6789L17.5589 13.7168L17.5132 13.7551L17.4682 13.7937L17.4235 13.8327L17.3793 13.8721L17.3355 13.9119L17.2922 13.9522L17.2494 13.9928L17.2071 14.0337L17.1651 14.075L17.1238 14.1167L17.0829 14.1588L17.0425 14.201L17.0024 14.2439L16.963 14.2869L16.9241 14.3303L16.8856 14.3741L16.8477 14.4181L16.8102 14.4626L16.7734 14.5071L16.7368 14.5523L16.701 14.5975L16.6655 14.6432L16.6306 14.6891L16.5963 14.7353L16.5624 14.7817L16.5291 14.8284L16.4963 14.8755L16.4639 14.9228L16.4322 14.9704L16.401 15.0181L16.3704 15.0661L16.3402 15.1145L16.3107 15.1629L16.2815 15.2118L16.253 15.2607L16.225 15.3099L16.1975 15.3594L16.1707 15.4089L16.1443 15.4587L16.1186 15.5087L16.0933 15.5591L16.0686 15.6093L16.0445 15.66L16.0209 15.7107L15.9979 15.7617L15.9754 15.8127L15.9535 15.864L15.9321 15.9153L15.9114 15.9669L15.8912 16.0186L15.8714 16.0704L15.8524 16.1222L15.8338 16.1744L15.8158 16.2266L15.7984 16.2788L15.7816 16.3312L15.7653 16.3838L15.7496 16.4363L15.7345 16.4889L15.7199 16.5417L15.7058 16.5946L15.6924 16.6475L15.6795 16.7004L15.6672 16.7535L15.6554 16.8065L15.6443 16.8597L15.6336 16.9128L15.6235 16.966L15.6141 17.0193L15.6052 17.0725L15.5968 17.1257L15.589 17.1792L15.5817 17.2323L15.5751 17.2857L15.569 17.3389L15.5634 17.3922L15.5585 17.4456L15.554 17.4988L15.5502 17.5521L15.5469 17.6053L15.5441 17.6584L15.5419 17.7115L15.5402 17.7645L15.5392 17.8176L15.5386 17.8706L15.5387 17.9235L15.5392 17.9762L15.5403 18.0291L15.542 18.0817L15.5442 18.1343L15.5469 18.1868L15.5502 18.2391L15.554 18.2914L15.5584 18.3436L15.5633 18.3957L15.5687 18.4477L15.5747 18.4994L15.5811 18.5512L15.5881 18.6026L15.5957 18.6542L15.6038 18.7054L15.6124 18.7565L15.6215 18.8076L15.6312 18.8584L15.6413 18.9091L15.6519 18.9595L15.6632 19.0099L15.6748 19.06L15.687 19.11L15.6997 19.1597L15.713 19.2094L15.7266 19.2587L15.7407 19.308L15.7554 19.3568L15.7706 19.4057L15.7862 19.4542L15.8024 19.5024L15.819 19.5506L15.8361 19.5985L15.8537 19.646L15.8717 19.6935L15.8902 19.7407L15.9092 19.7876L15.9286 19.8342L15.9484 19.8806L15.9688 19.9268L15.9896 19.9727L16.0109 20.0183L16.0326 20.0636L16.0546 20.1086L16.0773 20.1535L16.1002 20.1979L16.1236 20.2421L16.1475 20.286L16.1718 20.3296L16.1965 20.373L16.2216 20.416L16.2472 20.4586L16.2731 20.501L16.2994 20.5431L16.3262 20.5848L16.3534 20.6263L16.3809 20.6674L16.4088 20.7083L16.437 20.7486L16.4657 20.7887L16.4948 20.8285L16.5242 20.8679L16.5541 20.907L16.5842 20.9457L16.6147 20.984L16.6456 21.0221L16.6769 21.0598L16.7084 21.097L16.7404 21.134L16.7726 21.1706L16.8052 21.2067L16.8382 21.2426L16.8714 21.2779L16.905 21.3131L16.9389 21.3477L16.973 21.382L17.0076 21.4159L17.0424 21.4494L17.0775 21.4826L17.1129 21.5153L17.1486 21.5476L17.1846 21.5795L17.2208 21.611L17.2573 21.6422L17.2941 21.6729L17.3312 21.7032L17.3685 21.7332L17.4062 21.7626L17.4439 21.7917L17.482 21.8203L17.5204 21.8486L17.5589 21.8764L17.5977 21.9038L17.6367 21.9308L17.676 21.9573L17.7155 21.9834L17.7551 22.0091L17.7949 22.0343L17.8352 22.0592L17.8754 22.0835L17.9158 22.1075L17.9566 22.1311L17.9973 22.1541L18.0383 22.1768L18.0797 22.1991L18.121 22.2208L18.1625 22.2421L18.2042 22.2629L18.2461 22.2834L18.288 22.3034L18.3303 22.3229L18.3725 22.3421L18.4148 22.3607L18.4575 22.3789L18.5002 22.3967L18.5429 22.414L18.5858 22.4309L18.6288 22.4472L18.6721 22.4632L18.7152 22.4787L18.7586 22.4938L18.8019 22.5084L18.8454 22.5225L18.889 22.5363L18.9327 22.5495L18.9764 22.5623L19.0202 22.5746L19.0641 22.5865L19.108 22.598L19.1519 22.6089L19.1959 22.6195L19.2399 22.6295L19.2839 22.6391L19.3281 22.6484L19.3722 22.6571L19.4164 22.6654L19.4605 22.6732L19.5047 22.6806L19.5489 22.6875L19.5932 22.694L19.6372 22.7001L19.6814 22.7056L19.7256 22.7108L19.7698 22.7155L19.8139 22.7197L19.8581 22.7235L19.9021 22.7269L19.9461 22.7298L19.9902 22.7323L20.0341 22.7343L20.0779 22.736L20.1219 22.7371L20.1656 22.7379L20.2093 22.7381L20.253 22.738L20.2965 22.7375L20.3401 22.7364L20.3836 22.735L20.4268 22.7332L20.4701 22.7309L20.5134 22.7282L20.5563 22.725L20.5993 22.7215L20.6421 22.7175L20.6849 22.7132L20.7275 22.7083L20.77 22.7031L20.8124 22.6975L20.8546 22.6914L20.8966 22.685L20.9388 22.6782L20.9806 22.6709L21.0222 22.6632L21.0638 22.6551L21.1052 22.6467L21.1463 22.6378L21.1873 22.6286L21.2283 22.6189L21.2691 22.6089L21.3096 22.5985L21.35 22.5877L21.3901 22.5765L21.4302 22.5649L21.47 22.553L21.5095 22.5407L21.5491 22.5279L21.5883 22.5149L21.6273 22.5015L21.6661 22.4877L21.7047 22.4735L21.7431 22.459L21.7813 22.4441L21.8192 22.4289L21.857 22.4134L21.8945 22.3974L21.9318 22.3811L21.9687 22.3646L22.0057 22.3476L22.0422 22.3304L22.0784 22.3127L22.1146 22.2948L22.1503 22.2766L22.1859 22.258L22.2212 22.239L22.2563 22.2198L22.291 22.2003L22.3256 22.1805L22.3598 22.1603L22.3937 22.1398L22.4274 22.119L22.4608 22.0979L22.494 22.0766L22.5269 22.055L22.5594 22.0331L22.5918 22.0108L22.6238 21.9883L22.6554 21.9656L22.6868 21.9425L22.7179 21.9192L22.7487 21.8955L22.7792 21.8717L22.8095 21.8475L22.8393 21.8232L22.8689 21.7986L22.8982 21.7737L22.9271 21.7486L22.9558 21.7233L22.9841 21.6976L23.0121 21.6718L23.0397 21.6458L23.0671 21.6194L23.0942 21.5929L23.1209 21.5662L23.1473 21.5393L23.1733 21.5121L23.1989 21.4847L23.2244 21.4571L23.2493 21.4294L23.2741 21.4014L23.2984 21.3731L23.3224 21.3449L23.3462 21.3162L23.3694 21.2876L23.3925 21.2586L23.4151 21.2296L23.4373 21.2003L23.4593 21.1709L23.4809 21.1414L23.5021 21.1115L23.5231 21.0816L23.5436 21.0517L23.5637 21.0214L23.5836 20.9911L23.603 20.9607L23.6221 20.93L23.6409 20.8993L23.6593 20.8684L23.6773 20.8374L23.695 20.8063L23.7123 20.7751L23.7292 20.7437L23.7458 20.7123L23.762 20.6807L23.7779 20.6491L23.7934 20.6174L23.8085 20.5854L23.8233 20.5536L23.8377 20.5215L23.8517 20.4895L23.8654 20.4573L23.8787 20.4251L23.8917 20.3926L23.9042 20.3604L23.9165 20.3277L23.9282 20.2955L23.9398 20.2628L23.9509 20.2302L23.9616 20.1976L23.972 20.1649L23.982 20.1323L23.9917 20.0993L24.0009 20.0667L24.01 20.0336L24.0185 20.0011L24.0267 19.9681L24.0345 19.9351L24.042 19.9023L24.0491 19.8696L24.0558 19.8365L24.0622 19.8037L24.0683 19.7706L24.0739 19.7379L24.0793 19.7051L24.0842 19.6721L24.0888 19.6392L24.0931 19.6064L24.097 19.5737L24.1005 19.541L24.1037 19.5081L24.1065 19.4755L24.109 19.4428L24.1111 19.4102L24.1129 19.3776L24.1144 19.3451L24.1154 19.3128L24.1162 19.2803L24.1166 19.2478L24.1167 19.2156L24.1164 19.1835L24.1158 19.1514L24.1148 19.1193L24.1135 19.0872L24.1119 19.0556L24.1099 19.0233L24.1077 18.9919L24.105 18.9603L24.1021 18.9285L24.0988 18.8971L24.0952 18.866L24.0912 18.8344L24.087 18.8035L24.0824 18.7724L24.0776 18.7417L24.0723 18.7107L24.0668 18.68L24.061 18.6495L24.0549 18.6192L24.0485 18.5887L24.0417 18.5586L24.0347 18.5286L24.0273 18.4987L24.0197 18.4691L24.0116 18.4392L24.0035 18.41L23.9949 18.3804L23.9861 18.3514L23.977 18.3224L23.9676 18.2936L23.9578 18.2649L23.9478 18.2362L23.9377 18.208L23.9271 18.1799L23.9163 18.1517L23.9052 18.1239L23.8938 18.096L23.8823 18.0688L23.8703 18.0413L23.8583 18.0142L23.8458 17.9873L23.8332 17.9605L23.8203 17.934L23.8071 17.9075L23.7937 17.8813L23.7801 17.8554L23.7661 17.8295L23.7521 17.804L23.7377 17.7786L23.723 17.7533L23.7082 17.7284L23.6932 17.7036L23.6778 17.6789L23.6623 17.6547L23.6465 17.6306L23.6306 17.6067L23.6144 17.5829L23.598 17.5595L23.5814 17.5361L23.5646 17.5131L23.5475 17.4903L23.5303 17.4678L23.513 17.4454L23.4953 17.4232L23.4775 17.4014L23.4595 17.3797L23.4413 17.3583L23.423 17.337L23.4045 17.3161L23.3858 17.2954L23.3668 17.2749L23.3478 17.2546L23.3286 17.2346L23.3091 17.2149L23.2896 17.1953L23.2699 17.1761L23.25 17.1572L23.2301 17.1384L23.2097 17.1198L23.1895 17.1016L23.169 17.0835L23.1485 17.0658L23.1277 17.0483L23.1068 17.0311L23.0858 17.0141L23.0647 16.9973L23.0435 16.9809L23.0221 16.9646L23.0006 16.9487L22.979 16.9329L22.9572 16.9175L22.9355 16.9023L22.9135 16.8873L22.8915 16.8727L22.8694 16.8583L22.8471 16.8441L22.8249 16.8302L22.8024 16.8166L22.7799 16.8032L22.7574 16.7902L22.7347 16.7774L22.7119 16.7648L22.6891 16.7525L22.6663 16.7404L22.6434 16.7286L22.6205 16.7171L22.5973 16.7058L22.5742 16.6949L22.551 16.6842L22.5278 16.6737L22.5045 16.6635L22.4811 16.6536L22.4579 16.644L22.4344 16.6346L22.4109 16.6254L22.3875 16.6166L22.364 16.608L22.3405 16.5996L22.3169 16.5915L22.2933 16.5837L22.2698 16.5761L22.2462 16.5688L22.2225 16.5618L22.199 16.555L22.1752 16.5485L22.1517 16.5422L22.1281 16.5363L22.1044 16.5305L22.0808 16.525L22.0572 16.5198L22.0335 16.5148L22.0099 16.5101L21.9864 16.5056L21.9629 16.5014L21.9393 16.4974L21.9159 16.4937L21.8923 16.4903L21.869 16.4871L21.8455 16.484L21.8222 16.4813L21.799 16.4789L21.7756 16.4767L21.7524 16.4747L21.7292 16.4729L21.7061 16.4714L21.683 16.4702L21.6599 16.4692L21.6371 16.4684L21.6141 16.4678L21.5913 16.4676L21.5685 16.4675L21.5458 16.4677L21.5231 16.4681L21.5006 16.4687L21.4781 16.4696L21.4558 16.4706L21.4333 16.472L21.4112 16.4735L21.389 16.4752L21.367 16.4772L21.3451 16.4794L21.3231 16.4818L21.3014 16.4844L21.2797 16.4873L21.2581 16.4903L21.2366 16.4936L21.2153 16.4971L21.194 16.5008L21.1729 16.5047L21.1518 16.5088L21.1309 16.5131L21.11 16.5176L21.0894 16.5223Z" fill="black"/>
</g>
</svg>
