<svg width="117" height="35" viewBox="0 0 117 35" fill="none" xmlns="http://www.w3.org/2000/svg">
<g opacity="0.5">
<path d="M23.1826 10.3968H24.8341V21.8808H29.7887V23.5308H23.1826V10.3968ZM34.9331 10.3968C35.9131 10.3968 36.871 10.6871 37.6857 11.231C38.5005 11.775 39.1356 12.548 39.5106 13.4525C39.8855 14.357 39.9836 15.3523 39.7925 16.3125C39.6013 17.2727 39.1295 18.1547 38.4365 18.8469C37.7436 19.5393 36.8608 20.0107 35.8997 20.2017C34.9387 20.3927 33.9425 20.2947 33.0371 19.92C32.1318 19.5453 31.358 18.9109 30.8136 18.0969C30.2692 17.2828 29.9786 16.3258 29.9786 15.3468C29.9786 14.6968 30.1068 14.053 30.3557 13.4525C30.6047 12.8519 30.9697 12.3063 31.4298 11.8467C31.8898 11.387 32.436 11.0223 33.0371 10.7736C33.6382 10.5248 34.2825 10.3968 34.9331 10.3968ZM34.9331 18.6468C35.5864 18.6468 36.225 18.4533 36.7682 18.0907C37.3114 17.728 37.7348 17.2126 37.9847 16.6096C38.2348 16.0066 38.3002 15.3432 38.1727 14.703C38.0453 14.0629 37.7306 13.4749 37.2687 13.0134C36.8068 12.5519 36.2183 12.2375 35.5776 12.1102C34.9368 11.9829 34.2727 12.0482 33.6692 12.298C33.0656 12.5477 32.5497 12.9707 32.1868 13.5134C31.8238 14.0561 31.6301 14.6941 31.6301 15.3468C31.6345 16.2192 31.9844 17.0543 32.6034 17.6696C33.2223 18.2849 34.06 18.6303 34.9331 18.6303V18.6468ZM31.6301 21.8973H38.2362V23.5473H31.6301V21.8973ZM52.7695 23.5473H51.118V22.3675C50.0529 23.1124 48.7847 23.5127 47.4847 23.5143C46.3761 23.5217 45.2834 23.2503 44.3075 22.725C43.3314 22.1997 42.5034 21.4374 41.8998 20.5085C41.2961 19.5795 40.9361 18.5137 40.853 17.4092C40.7699 16.3048 40.9663 15.1971 41.4242 14.1885C41.8821 13.1798 42.5867 12.3024 43.473 11.6373C44.3595 10.9721 45.3992 10.5404 46.4964 10.3822C47.5937 10.2239 48.7131 10.3441 49.7516 10.7316C50.7902 11.1191 51.7144 11.7614 52.4392 12.5996L51.2253 13.6803C50.6741 13.0645 49.9774 12.5964 49.1986 12.3186C48.4199 12.0408 47.584 11.9621 46.7671 12.0897C45.9501 12.2173 45.1782 12.5472 44.5214 13.0493C43.8648 13.5514 43.3443 14.2095 43.0076 14.9641C42.6707 15.7185 42.5283 16.5452 42.5932 17.3688C42.6581 18.1924 42.9282 18.9866 43.3791 19.6791C43.8299 20.3716 44.447 20.9405 45.1743 21.3337C45.9014 21.7269 46.7156 21.932 47.5425 21.9303C48.2287 21.9317 48.9071 21.785 49.5314 21.5002C50.1556 21.2154 50.7109 20.7993 51.1593 20.2803H46.7002V18.6303H52.786L52.7695 23.5473ZM58.8471 10.4298C59.827 10.4298 60.7849 10.7201 61.5997 11.264C62.4144 11.808 63.0495 12.581 63.4245 13.4855C63.7995 14.39 63.8976 15.3853 63.7064 16.3455C63.5153 17.3057 63.0434 18.1877 62.3504 18.8799C61.6576 19.5723 60.7747 20.0437 59.8136 20.2347C58.8526 20.4257 57.8564 20.3277 56.9511 19.953C56.0457 19.5783 55.272 18.9439 54.7275 18.1299C54.1831 17.3158 53.8925 16.3588 53.8925 15.3798C53.8882 14.7256 54.0137 14.077 54.2617 13.4716C54.5098 12.8661 54.8755 12.3158 55.3378 11.8524C55.8 11.389 56.3497 11.0218 56.9549 10.7719C57.5601 10.5221 58.2088 10.3946 58.8636 10.3968L58.8471 10.4298ZM58.8471 18.6798C59.5003 18.6798 60.139 18.4863 60.6822 18.1237C61.2254 17.761 61.6487 17.2456 61.8987 16.6426C62.1487 16.0396 62.2141 15.3762 62.0866 14.736C61.9592 14.0959 61.6446 13.5079 61.1827 13.0464C60.7207 12.5849 60.1322 12.2705 59.4915 12.1432C58.8507 12.0159 58.1866 12.0812 57.5831 12.331C56.9796 12.5807 56.4636 13.0037 56.1007 13.5464C55.7378 14.0891 55.5441 14.7271 55.5441 15.3798C55.5571 16.2493 55.9131 17.0785 56.5347 17.6872C57.1563 18.2958 57.9933 18.6348 58.8636 18.6303L58.8471 18.6798ZM55.5441 21.9303H62.1501V23.5803H55.5441V21.9303ZM65.5605 10.3968H67.212V23.5143H65.5605V10.3968ZM69.4994 10.3968H71.1509C71.2359 10.3878 71.3217 10.3878 71.4069 10.3968C72.0985 10.3218 72.7983 10.3933 73.4604 10.6064C74.1226 10.8195 74.7325 11.1696 75.2503 11.6338C75.7681 12.098 76.1822 12.666 76.4657 13.3008C76.7493 13.9356 76.8958 14.6229 76.8958 15.3179C76.8958 16.013 76.7493 16.7003 76.4657 17.335C76.1822 17.9698 75.7681 18.5378 75.2503 19.002C74.7325 19.4663 74.1226 19.8163 73.4604 20.0295C72.7983 20.2426 72.0985 20.314 71.4069 20.239H71.1509V23.5391H69.4994V10.3968ZM71.1509 12.0468V18.5725H71.4069C71.8733 18.6346 72.3476 18.5964 72.7982 18.4604C73.2486 18.3244 73.6648 18.0938 74.0188 17.7841C74.3729 17.4744 74.6565 17.0927 74.8509 16.6645C75.0453 16.2363 75.1459 15.7716 75.1459 15.3014C75.1459 14.8313 75.0453 14.3665 74.8509 13.9384C74.6565 13.5102 74.3729 13.1285 74.0188 12.8188C73.6648 12.509 73.2486 12.2785 72.7982 12.1424C72.3476 12.0065 71.8733 11.9683 71.4069 12.0303C71.3169 12.0396 71.2282 12.059 71.1426 12.0881L71.1509 12.0468ZM83.05 11.3456L81.8279 12.3108C81.6171 12.0907 81.3477 11.9353 81.0515 11.8628C80.7553 11.7904 80.4446 11.8039 80.1558 11.9018C79.867 11.9997 79.6123 12.1779 79.4213 12.4155C79.2304 12.6531 79.1113 12.9402 79.0781 13.2431V13.3751C79.0781 14.1011 79.5819 14.5878 80.5645 14.6538C84.3465 14.8848 86.0806 16.6586 86.0806 19.0016V19.1501C85.9829 20.0774 85.6207 20.9571 85.0371 21.6848C84.4534 22.4124 83.6728 22.9572 82.7883 23.2544C81.9036 23.5516 80.9522 23.5887 80.0471 23.3613C79.142 23.1339 78.3213 22.6515 77.6826 21.9716L78.946 20.9981C79.2401 21.313 79.5992 21.5601 79.9985 21.7226C80.3977 21.8849 80.8275 21.9587 81.2581 21.9385C82.0535 21.9805 82.8343 21.7137 83.4374 21.1941C84.0406 20.6745 84.4196 19.9421 84.4951 19.1501V19.0346C84.4951 16.8318 82.3316 16.4276 80.4572 16.2461C78.7231 16.081 77.4762 15.0003 77.4762 13.4411V13.3751C77.5373 12.5633 77.9081 11.8059 78.512 11.2594C79.1159 10.7129 79.9068 10.4188 80.7214 10.4381C81.1531 10.4253 81.5826 10.5031 81.9823 10.6666C82.382 10.83 82.7429 11.0754 83.0418 11.3868L83.05 11.3456ZM92.5462 21.8396C94.6024 21.8396 96.2291 19.6203 96.2291 16.8896V10.2896H97.8807V16.8896C97.8807 20.5196 95.5025 23.4483 92.5793 23.4483C89.6561 23.4483 87.2779 20.5196 87.2779 16.8896V10.2896H88.9294V16.8896C88.8634 19.6616 90.4901 21.8808 92.538 21.8808L92.5462 21.8396ZM110.556 23.4896H108.905V15.3221L105.098 20.2721L101.291 15.3221V23.5143H99.6395V10.3968L105.09 17.5661L110.54 10.3968L110.556 23.4896Z" fill="black"/>
<path d="M15.2548 8.42501C15.2548 7.23472 14.7815 6.09317 13.9391 5.25152C13.0966 4.40985 11.954 3.93701 10.7626 3.93701C9.57124 3.93701 8.42866 4.40985 7.58622 5.25152C6.74378 6.09317 6.27051 7.23472 6.27051 8.42501V21.9963L9.9699 24.6445V31.096H11.5554V24.6445L15.2548 21.9963V8.42501ZM13.6693 16.015L11.5554 18.127V16.147L13.6693 14.035V16.015ZM7.88899 14.035L10.0029 16.147V18.127L7.88899 16.015V14.035ZM13.6693 11.791L10.7626 14.695L7.85596 11.725V9.74501L10.7626 12.649L13.6693 9.74501V11.791ZM10.7626 5.52101C11.4019 5.52383 12.0226 5.73595 12.5297 6.12485C13.0368 6.51376 13.4022 7.05801 13.5702 7.67426L10.7626 10.471L7.95505 7.67426C8.11685 7.05188 8.47971 6.50025 8.98736 6.10495C9.495 5.70966 10.119 5.49279 10.7626 5.488V5.52101ZM7.85596 21.196V18.226L9.9699 20.338V22.6975L7.85596 21.196ZM11.5554 22.7058V20.338L13.6693 18.226V21.1878L11.5554 22.7058Z" fill="black"/>
</g>
</svg>
