<svg width="134" height="35" viewBox="0 0 134 35" fill="none" xmlns="http://www.w3.org/2000/svg">
<g opacity="0.5">
<path d="M32.902 12.55C33.2429 12.55 33.3565 12.6726 33.3565 13.0026V20.47H37.2107C37.5421 20.47 37.6652 20.5926 37.6652 20.9226V21.5826C37.6652 21.9126 37.5421 22.0352 37.2107 22.0352H32.1349C31.8035 22.0352 31.6709 21.9126 31.6709 21.5826V13.0026C31.6709 12.6726 31.8035 12.55 32.1349 12.55H32.902Z" fill="black"/>
<path d="M41.0265 15.8406C41.0265 13.6626 42.4091 12.3521 44.8144 12.3521C47.2197 12.3521 48.6022 13.6626 48.6022 15.8406V18.7446C48.6022 20.9226 47.2102 22.2332 44.8144 22.2332C42.4185 22.2332 41.0265 20.9226 41.0265 18.7446V15.8406ZM47.0113 15.8406C47.0113 14.6149 46.2443 13.9549 44.8617 13.9549C43.4791 13.9549 42.7216 14.6243 42.7216 15.8406V18.7635C42.7216 19.9986 43.4791 20.6492 44.8617 20.6492C46.2443 20.6492 47.0113 19.9703 47.0113 18.7635V15.8406Z" fill="black"/>
<path d="M59.8812 16.8397C60.2505 16.8397 60.3357 16.9623 60.3357 17.2923V19.0837C60.3457 19.5056 60.2608 19.9245 60.0871 20.3095C59.9134 20.6946 59.6554 21.036 59.3319 21.3088C58.5286 21.9457 57.5157 22.2617 56.491 22.1951C54.0384 22.1951 52.7031 20.8845 52.7031 18.7065V15.7837C52.7031 13.634 54.0857 12.314 56.491 12.314C58.3849 12.314 59.616 13.0588 60.1368 14.5485C60.166 14.6045 60.1816 14.6665 60.1825 14.7295C60.1833 14.7925 60.1694 14.855 60.1419 14.9116C60.1143 14.9684 60.0738 15.018 60.0236 15.0565C59.9734 15.0948 59.9149 15.1211 59.8527 15.1331L59.1141 15.3877C58.7921 15.5008 58.6596 15.4348 58.5459 15.1048C58.389 14.7021 58.1018 14.3629 57.7296 14.1409C57.3575 13.919 56.9217 13.8268 56.491 13.8791C55.099 13.8791 54.3414 14.5485 54.3414 15.7648V18.7631C54.3414 19.9983 55.1084 20.6488 56.491 20.6488C57.8736 20.6488 58.7259 20.0171 58.7259 19.0931V18.3954H56.6709C56.33 18.3954 56.2069 18.2634 56.2069 17.9334V17.2923C56.2069 16.9623 56.33 16.8397 56.6709 16.8397H59.8812Z" fill="black"/>
<path d="M64.2462 15.8406C64.2462 13.6626 65.6288 12.3521 68.0341 12.3521C70.4394 12.3521 71.822 13.6626 71.822 15.8406V18.7446C71.822 20.9226 70.4299 22.2332 68.0341 22.2332C65.6383 22.2332 64.2462 20.9226 64.2462 18.7446V15.8406ZM70.2216 15.8406C70.2216 14.6149 69.4545 13.9549 68.0814 13.9549C66.7083 13.9549 65.9318 14.6243 65.9318 15.8406V18.7635C65.9318 19.9986 66.6989 20.6492 68.0814 20.6492C69.464 20.6492 70.2216 19.9703 70.2216 18.7635V15.8406Z" fill="black"/>
<path d="M76.2822 12.8235C76.2822 12.616 76.3485 12.55 76.5568 12.55H76.9925C77.2008 12.55 77.2481 12.616 77.2481 12.8235V21.7618C77.2481 21.9692 77.2481 22.0352 76.9925 22.0352H76.5568C76.3485 22.0352 76.2822 21.9692 76.2822 21.7618V12.8235Z" fill="black"/>
<path d="M85.8751 12.55C86.6637 12.55 87.4199 12.8619 87.9776 13.4172C88.5353 13.9723 88.8485 14.7254 88.8485 15.5106C88.8485 16.2958 88.5353 17.0489 87.9776 17.604C87.4199 18.1593 86.6637 18.4712 85.8751 18.4712H83.0341V21.7618C83.0341 21.9692 82.9868 22.0352 82.7879 22.0352H82.3429C82.144 22.0352 82.0682 21.9692 82.0682 21.7618V12.8235C82.0682 12.616 82.144 12.55 82.3429 12.55H85.8751ZM85.7898 17.5378C86.0609 17.5378 86.3294 17.4846 86.5799 17.3813C86.8303 17.278 87.0579 17.1266 87.2496 16.9358C87.4412 16.7449 87.5933 16.5183 87.6971 16.269C87.8008 16.0196 87.8542 15.7523 87.8542 15.4823C87.8542 15.2124 87.8008 14.9451 87.6971 14.6957C87.5933 14.4464 87.4412 14.2198 87.2496 14.0289C87.0579 13.8381 86.8303 13.6867 86.5799 13.5833C86.3294 13.4801 86.0609 13.4269 85.7898 13.4269H82.9489V17.5378H85.7898Z" fill="black"/>
<path d="M96.2439 12.3619C96.9751 12.2815 97.7126 12.4381 98.3473 12.8084C98.9816 13.1787 99.4797 13.7429 99.7666 14.4173C99.8424 14.5681 99.7666 14.6907 99.6151 14.7661L99.1984 14.9547C99.028 15.0207 98.9617 15.0113 98.8575 14.8321C98.6429 14.3317 98.2741 13.9121 97.8042 13.6341C97.3344 13.3562 96.7879 13.2342 96.2439 13.2858C94.6435 13.2858 93.7723 13.9176 93.7723 15.049C93.763 15.3947 93.8796 15.7323 94.1007 15.9991C94.3217 16.2659 94.6322 16.4442 94.975 16.501C95.4842 16.6664 96.0124 16.7677 96.5469 16.8027C97.194 16.837 97.8323 16.9673 98.4409 17.1893C98.9077 17.3363 99.3092 17.6385 99.5782 18.0455C99.8471 18.4524 99.9674 18.9391 99.9181 19.4239C99.9181 21.187 98.6303 22.2524 96.2628 22.2524C95.4863 22.3409 94.7028 22.1617 94.0429 21.7448C93.3829 21.328 92.8863 20.6984 92.6359 19.9613C92.6192 19.9277 92.6102 19.8908 92.6094 19.8533C92.6087 19.8158 92.6163 19.7786 92.6317 19.7444C92.647 19.7102 92.6698 19.6797 92.6984 19.6553C92.7269 19.6308 92.7606 19.613 92.7969 19.603L93.2136 19.4521C93.2464 19.4387 93.2817 19.4323 93.3171 19.4333C93.3525 19.4342 93.3874 19.4425 93.4195 19.4576C93.4515 19.4727 93.4801 19.4942 93.5033 19.5209C93.5266 19.5476 93.544 19.5787 93.5545 19.6124C93.7663 20.145 94.143 20.5967 94.63 20.9019C95.1169 21.207 95.6889 21.3498 96.2628 21.3096C98.0526 21.3096 98.9333 20.6873 98.9333 19.4239C98.9503 19.0918 98.8481 18.7645 98.6448 18.5003C98.442 18.2362 98.1516 18.0523 97.8253 17.9813C97.3354 17.8358 96.8301 17.7472 96.3197 17.7173L95.2969 17.5853C94.9769 17.5177 94.6608 17.4326 94.35 17.3307C94.043 17.2384 93.7568 17.0879 93.5072 16.8876C93.2559 16.6611 93.0579 16.3824 92.9269 16.0711C92.7961 15.7599 92.7355 15.4239 92.7496 15.0867C92.8159 13.4367 94.0564 12.3619 96.2439 12.3619Z" fill="black"/>
<path d="M105.022 18.8106C105.062 19.4774 105.357 20.1037 105.845 20.5617C106.334 21.0196 106.98 21.2746 107.65 21.2746C108.321 21.2746 108.966 21.0196 109.455 20.5617C109.944 20.1037 110.237 19.4774 110.278 18.8106V12.8235C110.278 12.616 110.344 12.55 110.553 12.55H110.988C111.196 12.55 111.263 12.616 111.263 12.8235V18.8012C111.263 20.9415 109.994 22.2332 107.655 22.2332C105.316 22.2332 104.047 20.9415 104.047 18.8012V12.8235C104.047 12.616 104.113 12.55 104.312 12.55H104.757C104.956 12.55 105.022 12.616 105.022 12.8235V18.8106Z" fill="black"/>
<path d="M124.331 12.5504C124.54 12.5504 124.606 12.6164 124.606 12.8239V21.7622C124.606 21.9696 124.54 22.0356 124.331 22.0356H123.934C123.735 22.0356 123.669 21.9696 123.669 21.7622V16.3219C123.669 15.5303 123.723 14.7397 123.83 13.9553H123.773C123.477 14.6725 123.132 15.3687 122.741 16.039L120.705 19.6124C120.68 19.6745 120.636 19.7275 120.581 19.7645C120.525 19.8015 120.459 19.8208 120.392 19.8199H120.127C120.059 19.8202 119.992 19.8007 119.935 19.764C119.878 19.7271 119.832 19.6745 119.805 19.6124L117.741 16.0013C117.374 15.3406 117.058 14.6536 116.794 13.9459H116.737C116.833 14.7374 116.885 15.5339 116.888 16.3313V21.7622C116.888 21.9696 116.822 22.0356 116.614 22.0356H116.244C116.036 22.0356 115.97 21.9696 115.97 21.7622V12.8239C115.97 12.6164 116.036 12.5504 116.244 12.5504H116.585C116.663 12.5433 116.742 12.5601 116.809 12.599C116.877 12.6378 116.931 12.6967 116.964 12.7673L120.278 18.6319L123.574 12.8239C123.678 12.6259 123.735 12.5976 123.943 12.5976L124.331 12.5504Z" fill="black"/>
<path d="M16.0549 20.602V27.4189C16.0549 27.6803 15.9506 27.9309 15.765 28.1156C15.5795 28.3004 15.3278 28.4042 15.0653 28.4042C14.8029 28.4042 14.5512 28.3004 14.3656 28.1156C14.18 27.9309 14.0757 27.6803 14.0757 27.4189V20.6115C14.3513 20.8118 14.6816 20.9237 15.0227 20.932C15.3945 20.9426 15.7588 20.8262 16.0549 20.602ZM24.4829 18.6315C24.2318 18.6315 23.9909 18.7308 23.8133 18.9076C23.6358 19.0844 23.5359 19.3243 23.5359 19.5743V20.7623C23.5359 21.0237 23.6402 21.2743 23.8258 21.459C24.0113 21.6438 24.263 21.7476 24.5255 21.7476C24.788 21.7476 25.0397 21.6438 25.2252 21.459C25.4109 21.2743 25.5151 21.0237 25.5151 20.7623V19.6215C25.5225 19.4863 25.5005 19.3511 25.4507 19.2251C25.4009 19.0991 25.3245 18.9852 25.2265 18.8913C25.1286 18.7974 25.0114 18.7256 24.8832 18.6807C24.7549 18.6359 24.6183 18.6191 24.4829 18.6315ZM11.9261 23.1855C11.5854 23.1753 11.2555 23.0637 10.9791 22.8649V29.7006C10.9791 29.9632 11.0839 30.215 11.2704 30.4007C11.4568 30.5863 11.7097 30.6906 11.9734 30.6906C12.2372 30.6906 12.4901 30.5863 12.6765 30.4007C12.863 30.215 12.9678 29.9632 12.9678 29.7006V22.912C12.6585 23.1111 12.2937 23.2069 11.9261 23.1855ZM21.3958 16.5855C21.2675 16.5791 21.1393 16.5988 21.0188 16.6433C20.8984 16.6878 20.7884 16.7562 20.6953 16.8444C20.6023 16.9326 20.5284 17.0387 20.4778 17.1563C20.4273 17.2739 20.4013 17.4005 20.4015 17.5283V22.78C20.4015 23.0426 20.5062 23.2945 20.6927 23.4801C20.8792 23.6658 21.1321 23.77 21.3958 23.77C21.6595 23.77 21.9125 23.6658 22.0989 23.4801C22.2854 23.2945 22.3901 23.0426 22.3901 22.78V17.5943C22.3977 17.4583 22.3755 17.3222 22.3252 17.1955C22.2748 17.0688 22.1975 16.9544 22.0984 16.8603C21.9994 16.7662 21.8811 16.6946 21.7517 16.6504C21.6222 16.6062 21.4846 16.5905 21.3484 16.6043L21.3958 16.5855ZM18.2519 18.6032C17.8951 18.6007 17.548 18.4888 17.2575 18.2826V25.1372C17.2575 25.3998 17.3623 25.6516 17.5487 25.8373C17.7353 26.0229 17.9881 26.1272 18.2519 26.1272C18.5156 26.1272 18.7684 26.0229 18.955 25.8373C19.1414 25.6516 19.2462 25.3998 19.2462 25.1372V18.292C18.9458 18.5148 18.579 18.631 18.2045 18.622L18.2519 18.6032ZM9.77648 23.8549V4.70547C9.77399 4.47205 9.6791 4.24904 9.51243 4.08486C9.34577 3.92068 9.12078 3.8286 8.88633 3.82861H8.67799C8.44354 3.8286 8.21855 3.92068 8.05189 4.08486C7.88522 4.24904 7.79033 4.47205 7.78784 4.70547V23.8549C7.78784 24.09 7.88163 24.3154 8.04856 24.4816C8.21549 24.6478 8.44191 24.7412 8.67799 24.7412H8.88633C9.12242 24.7412 9.34883 24.6478 9.51576 24.4816C9.6827 24.3154 9.77648 24.09 9.77648 23.8549ZM12.0303 22.4595H11.8219C11.5859 22.4595 11.3594 22.3661 11.1925 22.1999C11.0256 22.0337 10.9318 21.8082 10.9318 21.5732V6.98718C10.9343 6.75377 11.0292 6.53075 11.1958 6.36658C11.3625 6.2024 11.5875 6.11032 11.8219 6.11033H12.0303C12.2647 6.11032 12.4897 6.2024 12.6564 6.36658C12.823 6.53075 12.9179 6.75377 12.9204 6.98718V21.592C12.9204 21.8271 12.8266 22.0525 12.6597 22.2188C12.4928 22.385 12.2663 22.4783 12.0303 22.4783V22.4595ZM15.1647 20.2155H14.9469C14.7134 20.2155 14.4894 20.1231 14.3242 19.9586C14.1591 19.7942 14.0663 19.5712 14.0663 19.3386V9.25004C14.065 9.1341 14.0869 9.01906 14.1305 8.91158C14.1742 8.80411 14.2389 8.70633 14.3208 8.62391C14.4027 8.54149 14.5002 8.47605 14.6077 8.4314C14.7152 8.38674 14.8305 8.36375 14.9469 8.36376H15.1647C15.3992 8.36625 15.6232 8.46071 15.788 8.62665C15.953 8.7926 16.0454 9.01661 16.0454 9.25004V19.3386C16.0454 19.5712 15.9526 19.7942 15.7875 19.9586C15.6223 20.1231 15.3984 20.2155 15.1647 20.2155ZM18.2992 17.9055H18.1003C17.8659 17.9055 17.6409 17.8134 17.4742 17.6492C17.3075 17.4851 17.2127 17.2621 17.2102 17.0286V11.5978C17.2024 11.4767 17.2197 11.3553 17.2609 11.2412C17.3021 11.1271 17.3665 11.0225 17.45 10.9342C17.5334 10.8457 17.6341 10.7754 17.7461 10.7273C17.8579 10.6793 17.9785 10.6546 18.1003 10.6549H18.3087C18.5448 10.6549 18.7712 10.7482 18.9381 10.9145C19.1051 11.0807 19.1988 11.3061 19.1988 11.5412V17.0098C19.2001 17.127 19.178 17.2432 19.1338 17.3518C19.0896 17.4604 19.0243 17.5593 18.9414 17.6426C18.8587 17.7259 18.7602 17.792 18.6515 17.8371C18.5429 17.8823 18.4264 17.9055 18.3087 17.9055H18.2992ZM21.4431 15.8783H21.2348C20.9987 15.8783 20.7723 15.785 20.6054 15.6188C20.4384 15.4525 20.3447 15.2271 20.3447 14.992V13.5872C20.3471 13.3537 20.442 13.1307 20.6087 12.9666C20.7753 12.8024 21.0003 12.7103 21.2348 12.7103H21.4431C21.6776 12.7103 21.9026 12.8024 22.0693 12.9666C22.2359 13.1307 22.3308 13.3537 22.3333 13.5872V14.992C22.3333 15.2255 22.2409 15.4495 22.0759 15.6155C21.911 15.7814 21.6871 15.8759 21.4526 15.8783H21.4431Z" fill="black"/>
</g>
</svg>
