<svg width="12" height="12" viewBox="0 0 12 12" fill="none" xmlns="http://www.w3.org/2000/svg">
<path opacity="0.5" fill-rule="evenodd" clip-rule="evenodd" d="M5.95453 4.82395L0.744023 2.63006C0.650367 2.59063 0.64786 2.45882 0.739945 2.41586L5.84142 0.0351738C5.94195 -0.0117246 6.05806 -0.0117246 6.15858 0.0351738L11.2601 2.41586C11.3521 2.45882 11.3496 2.59063 11.256 2.63006L6.04547 4.82395C6.01641 4.83621 5.98359 4.83621 5.95453 4.82395ZM6.44672 5.4685L11.8373 3.19876C11.9146 3.16623 12 3.22295 12 3.30676V9.37471C12 9.52804 11.9066 9.66594 11.7643 9.72287L6.53571 11.8143C6.45874 11.8451 6.375 11.7884 6.375 11.7055V5.5765C6.375 5.52934 6.40327 5.4868 6.44672 5.4685ZM5.625 11.7055V5.5765C5.625 5.52934 5.59673 5.4868 5.55328 5.4685L0.162657 3.19876C0.0854301 3.16623 0 3.22295 0 3.30676V9.37471C0 9.52804 0.0933752 9.66592 0.235735 9.72287L5.46429 11.8143C5.54126 11.8451 5.625 11.7884 5.625 11.7055Z" fill="#263238"/>
</svg>
