<svg width="50" height="53" viewBox="0 0 50 53" fill="none" xmlns="http://www.w3.org/2000/svg">
<path fill-rule="evenodd" clip-rule="evenodd" d="M39.077 4.18101H45.0396C47.3128 4.18101 49.1622 6.03042 49.1622 8.30364V48.6442C49.1622 50.9173 47.3128 52.7668 45.0396 52.7668H12.9444C12.524 52.7668 12.1834 52.4261 12.1834 52.0058C12.1834 51.5856 12.524 51.2449 12.9444 51.2449H45.0396C46.4737 51.2449 47.6403 50.0783 47.6403 48.6442V48.4783C46.9303 49.0572 46.0249 49.4051 45.0396 49.4051H4.69894C3.71366 49.4051 2.80823 49.0572 2.09832 48.4783V48.6442C2.09832 50.0782 3.2649 51.2449 4.69894 51.2449H9.90059C10.3209 51.2449 10.6615 51.5856 10.6615 52.0058C10.6615 52.4261 10.3209 52.7668 9.90059 52.7668H4.69894C2.42573 52.7668 0.576416 50.9174 0.576416 48.6442V8.30353C0.576416 6.03042 2.42583 4.18101 4.69894 4.18101H10.6615V3.26117C10.6615 1.9147 11.7568 0.819336 13.1033 0.819336C14.4498 0.819336 15.5451 1.9147 15.5451 3.26117V4.18101H34.1935V3.26117C34.1935 1.9147 35.2889 0.819336 36.6353 0.819336C37.9817 0.819336 39.077 1.9147 39.077 3.26117V4.18101ZM36.6352 2.34124C36.128 2.34124 35.7154 2.75387 35.7154 3.26117V8.30374C35.7154 8.81104 36.128 9.22367 36.6352 9.22367C37.1424 9.22367 37.555 8.81094 37.555 8.30374V3.26117C37.555 2.75387 37.1424 2.34124 36.6352 2.34124ZM13.1033 2.34124C12.5961 2.34124 12.1834 2.75387 12.1834 3.26117V8.30374C12.1834 8.81104 12.5961 9.22367 13.1033 9.22367C13.6105 9.22367 14.0231 8.81094 14.0231 8.30374V3.26117C14.0231 2.75387 13.6105 2.34124 13.1033 2.34124ZM10.6615 5.70291H4.69894C3.2649 5.70291 2.09832 6.8696 2.09832 8.30364V12.5853H35.1133C35.5337 12.5853 35.8743 12.9261 35.8743 13.3463C35.8743 13.7665 35.5337 14.1072 35.1133 14.1072H2.09832V15.947H47.6404V14.1071H38.1573C37.737 14.1071 37.3964 13.7664 37.3964 13.3462C37.3964 12.926 37.737 12.5852 38.1573 12.5852H47.6404V8.30353C47.6404 6.8696 46.4738 5.70291 45.0397 5.70291H39.0771V7.54269H39.997C40.4173 7.54269 40.7579 7.88339 40.7579 8.30364C40.7579 8.72388 40.4173 9.06458 39.997 9.06458H38.9549C38.6344 10.0394 37.716 10.7455 36.6352 10.7455C35.5546 10.7455 34.6361 10.0394 34.3155 9.06458H33.2735C32.8532 9.06458 32.5126 8.72388 32.5126 8.30364C32.5126 7.88339 32.8532 7.54269 33.2735 7.54269H34.1935V5.70291H15.5451V7.54269H16.465C16.8853 7.54269 17.2259 7.88339 17.2259 8.30364C17.2259 8.72388 16.8853 9.06458 16.465 9.06458H15.423C15.1024 10.0394 14.184 10.7455 13.1033 10.7455C12.0224 10.7455 11.1041 10.0394 10.7835 9.06458H9.7416C9.32125 9.06458 8.98065 8.72388 8.98065 8.30364C8.98065 7.88339 9.32125 7.54269 9.7416 7.54269H10.6615V5.70291ZM4.69894 47.8832H45.0396C46.4737 47.8832 47.6403 46.7166 47.6402 45.2826V17.4689H2.09832V45.2826C2.09832 46.7165 3.2649 47.8832 4.69894 47.8832ZM34.0768 21.1755C33.1612 20.796 32.1169 21.0039 31.4158 21.7048L28.054 25.0664C27.102 26.0184 27.102 27.5676 28.0541 28.5197C28.7683 29.2338 29.8186 29.4123 30.7006 29.0549V41.9208C30.7006 43.2672 31.796 44.3625 33.1423 44.3625C34.4887 44.3625 35.5841 43.2672 35.5841 41.9208V23.4314C35.5841 22.4403 34.9924 21.5547 34.0768 21.1755ZM34.0622 41.9208C34.0622 42.428 33.6495 42.8406 33.1423 42.8406C32.6351 42.8406 32.2225 42.428 32.2225 41.9208V27.4893C32.2225 27.1815 32.0371 26.9041 31.7527 26.7863C31.6586 26.7473 31.5598 26.7284 31.4618 26.7284C31.2637 26.7284 31.0691 26.8057 30.9234 26.9513L30.4311 27.4436C30.0724 27.8023 29.4888 27.8022 29.1302 27.4436C28.7715 27.0849 28.7715 26.5013 29.1302 26.1426L32.492 22.781C32.756 22.5169 33.1493 22.4384 33.4942 22.5815H33.4944C33.8394 22.7244 34.0623 23.058 34.0623 23.4314L34.0622 41.9208ZM19.4067 20.9893C15.5114 20.9893 12.3425 24.1582 12.3425 28.0534C12.3425 29.3999 13.4379 30.4952 14.7843 30.4952C16.1307 30.4952 17.2261 29.3999 17.2261 28.0534C17.2261 26.851 18.2043 25.8728 19.4066 25.8728C20.6089 25.8728 21.5872 26.851 21.5872 28.0534C21.5872 29.2558 20.6089 30.234 19.4066 30.234C18.0601 30.234 16.9648 31.3294 16.9648 32.6758C16.9648 34.0223 18.0602 35.1176 19.4066 35.1176C20.609 35.1176 21.5872 36.0957 21.5872 37.2981C21.5872 38.5005 20.6089 39.4787 19.4066 39.4787C18.2043 39.4787 17.2261 38.5005 17.2261 37.2981C17.2261 35.9518 16.1306 34.8564 14.7843 34.8564C13.4379 34.8564 12.3425 35.9518 12.3425 37.2981C12.3425 41.1933 15.5114 44.3623 19.4067 44.3623C23.3019 44.3623 26.4708 41.1933 26.4708 37.2981C26.4708 35.6 25.8487 33.9539 24.7428 32.6758C25.8487 31.3977 26.4708 29.7515 26.4708 28.0534C26.4708 24.1582 23.3019 20.9893 19.4067 20.9893ZM23.1689 33.234C24.3001 34.2819 24.9489 35.7633 24.9489 37.298C24.9489 40.354 22.4627 42.8403 19.4067 42.8403C16.3507 42.8403 13.8644 40.354 13.8644 37.298C13.8644 36.7908 14.2771 36.3782 14.7843 36.3782C15.2916 36.3782 15.7042 36.7908 15.7042 37.298C15.7042 39.3396 17.3651 41.0005 19.4066 41.0005C21.4482 41.0005 23.1091 39.3396 23.1091 37.298C23.1091 35.2565 21.4482 33.5956 19.4066 33.5956C18.8994 33.5956 18.4867 33.1829 18.4867 32.6757C18.4867 32.1684 18.8994 31.7558 19.4066 31.7558C21.4482 31.7558 23.1091 30.0949 23.1091 28.0533C23.1091 26.0117 21.4482 24.3508 19.4066 24.3508C17.3651 24.3508 15.7042 26.0117 15.7042 28.0533C15.7042 28.5605 15.2916 28.9732 14.7843 28.9732C14.2771 28.9732 13.8644 28.5606 13.8644 28.0533C13.8644 24.9973 16.3507 22.5111 19.4067 22.5111C22.4627 22.5111 24.9489 24.9973 24.9489 28.0533C24.9489 29.5881 24.3001 31.0694 23.1689 32.1175C23.0135 32.2615 22.9251 32.4639 22.9251 32.6757C22.9251 32.8876 23.0135 33.09 23.1689 33.234Z" fill="#263238"/>
</svg>
